<svg width="53" height="54" fill="none" xmlns="http://www.w3.org/2000/svg"><rect width="53" height="54" rx="2" fill="#734BA9"/><path d="M6 8v37.307h41.147V8H6zm39.049 2.32v32.666H8.098V10.32h36.95z" fill="#fff"/><path d="M10.185 12.396v20.207h32.778V12.395H10.185zm2.487 17.68l-.146.476v-.476h.146l4.536-14.68 8.195 10.105 4.683-2.527 1.17 7.1H12.672v.002zm24.461-7.579c-1.938 0-3.51-1.695-3.51-3.789 0-2.093 1.572-3.789 3.51-3.789 1.94 0 3.512 1.696 3.512 3.79 0 2.092-1.572 3.788-3.512 3.788z" fill="#fff"/><path d="M12.958 26.777l.14-.424h-.14v.424z" fill="#fff"/><path d="M12.958 26.354v.423l.14-.424h-.14zM18.52 35.54h-8.335v5.441h8.336V35.54zM30.841 35.54h-8.337v5.441h8.337V35.54zM42.962 35.54h-8.336v5.441h8.336V35.54z" fill="#fff"/></svg>