<?xml version="1.0" encoding="utf-8"?>
<!-- Generator: Adobe Illustrator 24.3.0, SVG Export Plug-In . SVG Version: 6.00 Build 0)  -->
<svg version="1.1" id="Layer_1" xmlns="http://www.w3.org/2000/svg" xmlns:xlink="http://www.w3.org/1999/xlink" x="0px" y="0px"
	 viewBox="0 0 163.7 27.5" enable-background="new 0 0 163.7 27.5" xml:space="preserve">
<g>
	<g>
		<path fill="#FFFFFF" d="M33.1,20.7L30.5,7.2l0-0.1c0-0.1,0.1-0.2,0.2-0.2h1.9c0.2,0,0.2,0.1,0.3,0.2l1.4,8.3c0,0,0,0.1,0.1,0.1
			s0,0,0.1-0.1l1.3-8.3c0-0.1,0.1-0.2,0.3-0.2h1.6c0.2,0,0.2,0.1,0.3,0.2l1.4,8.3c0,0,0,0.1,0.1,0.1c0,0,0,0,0.1-0.1l1.3-8.3
			c0-0.1,0.1-0.2,0.3-0.2h1.9c0.2,0,0.2,0.1,0.2,0.3l-2.5,13.5c0,0.1-0.1,0.2-0.3,0.2h-1.7c-0.2,0-0.2-0.1-0.3-0.2l-1.3-8.5
			c0-0.1,0-0.1-0.1-0.1c0,0,0,0-0.1,0.1l-1.2,8.5c0,0.1-0.1,0.2-0.3,0.2h-1.7C33.2,20.9,33.2,20.8,33.1,20.7z"/>
		<path fill="#FFFFFF" d="M44.1,20.2c-0.6-0.6-1-1.4-1-2.4v-4c0-1,0.3-1.8,1-2.4c0.6-0.6,1.5-0.9,2.6-0.9c1.1,0,2,0.3,2.6,0.9
			c0.6,0.6,1,1.4,1,2.4v4c0,1-0.3,1.8-0.9,2.4c-0.6,0.6-1.5,0.9-2.6,0.9C45.6,21.1,44.7,20.8,44.1,20.2z M47.6,18.6
			c0.2-0.3,0.4-0.6,0.4-1v-3.7c0-0.4-0.1-0.8-0.4-1c-0.2-0.3-0.5-0.4-0.9-0.4c-0.4,0-0.7,0.1-0.9,0.4c-0.2,0.3-0.3,0.6-0.3,1v3.7
			c0,0.4,0.1,0.8,0.3,1s0.5,0.4,0.9,0.4C47.1,19,47.4,18.9,47.6,18.6z"/>
		<path fill="#FFFFFF" d="M52.7,20.2c-0.6-0.6-1-1.4-1-2.4v-4c0-1,0.3-1.8,1-2.4c0.6-0.6,1.5-0.9,2.6-0.9c1.1,0,2,0.3,2.6,0.9
			c0.6,0.6,1,1.4,1,2.4v4c0,1-0.3,1.8-0.9,2.4c-0.6,0.6-1.5,0.9-2.6,0.9C54.3,21.1,53.4,20.8,52.7,20.2z M56.3,18.6
			c0.2-0.3,0.4-0.6,0.4-1v-3.7c0-0.4-0.1-0.8-0.4-1c-0.2-0.3-0.5-0.4-0.9-0.4c-0.4,0-0.7,0.1-0.9,0.4c-0.2,0.3-0.3,0.6-0.3,1v3.7
			c0,0.4,0.1,0.8,0.3,1S55,19,55.4,19C55.7,19,56,18.9,56.3,18.6z"/>
		<path fill="#FFFFFF" d="M70.6,7.4c0.5,0.3,1,0.8,1.3,1.5c0.3,0.6,0.5,1.3,0.5,2.1c0,1.2-0.3,2.2-1,2.9c-0.6,0.7-1.5,1.1-2.5,1.1
			h-1.7c-0.1,0-0.1,0-0.1,0.1v5.6c0,0.1,0,0.1-0.1,0.2c0,0-0.1,0.1-0.2,0.1H65c-0.1,0-0.1,0-0.2-0.1s-0.1-0.1-0.1-0.2V7.1
			c0-0.1,0-0.1,0.1-0.2c0,0,0.1-0.1,0.2-0.1h3.8C69.4,6.9,70.1,7,70.6,7.4z M69.5,12.6c0.3-0.4,0.4-0.9,0.4-1.5
			c0-0.7-0.1-1.2-0.4-1.6c-0.3-0.4-0.7-0.6-1.2-0.6h-1.2c-0.1,0-0.1,0-0.1,0.1v4.1c0,0.1,0,0.1,0.1,0.1h1.2
			C68.9,13.2,69.2,13,69.5,12.6z"/>
		<path fill="#FFFFFF" d="M78.8,10.8c0.1,0.1,0.1,0.2,0.1,0.3l-0.3,1.9c0,0.2-0.1,0.2-0.3,0.1C78.1,13,77.9,13,77.8,13
			s-0.3,0-0.4,0.1c-0.4,0.1-0.7,0.3-0.9,0.6s-0.3,0.8-0.3,1.3v5.7c0,0.1,0,0.1-0.1,0.2s-0.1,0.1-0.2,0.1H74c-0.1,0-0.1,0-0.2-0.1
			c0,0-0.1-0.1-0.1-0.2v-9.7c0-0.1,0-0.1,0.1-0.2c0,0,0.1-0.1,0.2-0.1h1.8c0.1,0,0.1,0,0.2,0.1s0.1,0.1,0.1,0.2v0.9
			c0,0.1,0,0.1,0,0.1c0,0,0,0,0.1-0.1c0.4-0.9,0.9-1.3,1.8-1.3C78.3,10.6,78.6,10.6,78.8,10.8z"/>
		<path fill="#FFFFFF" d="M80.7,20.2c-0.6-0.6-1-1.4-1-2.4v-4c0-1,0.3-1.8,1-2.4c0.6-0.6,1.5-0.9,2.6-0.9c1.1,0,2,0.3,2.6,0.9
			c0.6,0.6,1,1.4,1,2.4v4c0,1-0.3,1.8-0.9,2.4c-0.6,0.6-1.5,0.9-2.6,0.9C82.2,21.1,81.3,20.8,80.7,20.2z M84.2,18.6
			c0.2-0.3,0.4-0.6,0.4-1v-3.7c0-0.4-0.1-0.8-0.4-1c-0.2-0.3-0.5-0.4-0.9-0.4c-0.4,0-0.7,0.1-0.9,0.4c-0.2,0.3-0.3,0.6-0.3,1v3.7
			c0,0.4,0.1,0.8,0.3,1s0.5,0.4,0.9,0.4C83.7,19,84,18.9,84.2,18.6z"/>
		<path fill="#FFFFFF" d="M93.2,7c0,0,0.1-0.1,0.2-0.1h1.8c0.1,0,0.1,0,0.2,0.1c0,0,0.1,0.1,0.1,0.2v13.5c0,0.1,0,0.1-0.1,0.2
			c0,0-0.1,0.1-0.2,0.1h-1.8c-0.1,0-0.1,0-0.2-0.1s-0.1-0.1-0.1-0.2v-0.2c0,0,0-0.1,0-0.1c0,0-0.1,0-0.1,0c-0.5,0.5-1.1,0.7-1.8,0.7
			c-0.9,0-1.6-0.3-2.1-0.9c-0.5-0.6-0.7-1.4-0.7-2.4v-4.1c0-1,0.2-1.8,0.8-2.4s1.2-0.9,2.1-0.9c0.3,0,0.6,0.1,0.9,0.2
			c0.3,0.1,0.6,0.3,0.9,0.5c0,0,0.1,0,0.1,0c0,0,0,0,0-0.1v-4C93.1,7.1,93.1,7,93.2,7z M92.7,18.7c0.2-0.2,0.3-0.5,0.4-0.8v-4.3
			c-0.1-0.3-0.2-0.6-0.4-0.8s-0.5-0.3-0.8-0.3c-0.4,0-0.7,0.1-0.9,0.4c-0.2,0.3-0.3,0.6-0.3,1v3.7c0,0.4,0.1,0.8,0.3,1
			c0.2,0.3,0.5,0.4,0.9,0.4C92.2,19.1,92.5,19,92.7,18.7z"/>
		<path fill="#FFFFFF" d="M101.9,10.7c0,0,0.1-0.1,0.2-0.1h1.8c0.1,0,0.1,0,0.2,0.1c0,0,0.1,0.1,0.1,0.2v9.7c0,0.1,0,0.1-0.1,0.2
			c0,0-0.1,0.1-0.2,0.1h-1.8c-0.1,0-0.1,0-0.2-0.1s-0.1-0.1-0.1-0.2v-0.4c0,0,0-0.1,0-0.1c0,0-0.1,0-0.1,0c-0.4,0.6-1,0.9-1.9,0.9
			c-0.8,0-1.5-0.2-2-0.7s-0.8-1.2-0.8-2.2v-7.1c0-0.1,0-0.1,0.1-0.2c0,0,0.1-0.1,0.2-0.1h1.8c0.1,0,0.1,0,0.2,0.1s0.1,0.1,0.1,0.2
			v6.6c0,1,0.4,1.5,1.2,1.5c0.4,0,0.7-0.1,0.9-0.4c0.2-0.3,0.3-0.7,0.3-1.2v-6.5C101.9,10.8,101.9,10.8,101.9,10.7z"/>
		<path fill="#FFFFFF" d="M106.8,20.2c-0.6-0.6-1-1.4-1-2.4v-4c0-1,0.3-1.8,1-2.4c0.6-0.6,1.5-0.9,2.6-0.9c1.1,0,2,0.3,2.6,0.9
			c0.6,0.6,1,1.3,1,2.2v0.3c0,0.1,0,0.1-0.1,0.2c0,0-0.1,0.1-0.2,0.1l-1.8,0.1c-0.2,0-0.2-0.1-0.2-0.2v-0.2c0-0.3-0.1-0.6-0.4-0.9
			s-0.5-0.4-0.9-0.4s-0.7,0.1-0.9,0.4c-0.2,0.3-0.3,0.6-0.3,1v3.7c0,0.4,0.1,0.8,0.3,1c0.2,0.3,0.5,0.4,0.9,0.4s0.7-0.1,0.9-0.4
			c0.2-0.2,0.4-0.5,0.4-0.9v-0.2c0-0.1,0-0.1,0.1-0.2c0,0,0.1-0.1,0.2-0.1l1.8,0c0.1,0,0.1,0,0.2,0.1c0,0,0.1,0.1,0.1,0.2V18
			c0,0.9-0.3,1.7-1,2.2c-0.6,0.6-1.5,0.9-2.6,0.9C108.3,21.1,107.4,20.8,106.8,20.2z"/>
		<path fill="#FFFFFF" d="M118.6,12.2c0,0-0.1,0.1-0.2,0.1h-1.2c-0.1,0-0.1,0-0.1,0.1v5.2c0,0.5,0.1,0.8,0.3,1
			c0.2,0.2,0.4,0.3,0.8,0.2h0.1c0.1,0,0.1,0,0.2,0.1c0,0,0.1,0.1,0.1,0.2v1.5c0,0.1,0,0.1-0.1,0.2s-0.1,0.1-0.2,0.1h-0.7
			c-0.9,0-1.6-0.2-2.1-0.5c-0.5-0.3-0.7-1-0.7-1.9v-6.1c0-0.1,0-0.1-0.1-0.1H114c-0.1,0-0.1,0-0.2-0.1c0,0-0.1-0.1-0.1-0.2v-1.2
			c0-0.1,0-0.1,0.1-0.2c0,0,0.1-0.1,0.2-0.1h0.7c0.1,0,0.1,0,0.1-0.1V8.4c0-0.1,0-0.1,0.1-0.2c0,0,0.1-0.1,0.2-0.1h1.8
			c0.1,0,0.1,0,0.2,0.1c0,0,0.1,0.1,0.1,0.2v2.2c0,0.1,0,0.1,0.1,0.1h1.2c0.1,0,0.1,0,0.2,0.1s0.1,0.1,0.1,0.2v1.2
			C118.6,12.1,118.6,12.2,118.6,12.2z"/>
		<path fill="#FFFFFF" d="M124.8,20.1c-0.7-0.7-1-1.5-1-2.6v-0.5c0-0.1,0-0.1,0.1-0.2s0.1-0.1,0.2-0.1h1.8c0.1,0,0.1,0,0.2,0.1
			s0.1,0.1,0.1,0.2v0.4c0,0.5,0.1,0.9,0.4,1.3c0.3,0.3,0.6,0.5,1,0.5s0.8-0.2,1-0.5s0.4-0.7,0.4-1.2c0-0.3-0.1-0.6-0.2-0.9
			s-0.4-0.5-0.6-0.7c-0.3-0.2-0.7-0.6-1.3-1c-0.7-0.5-1.2-0.9-1.6-1.3c-0.4-0.4-0.7-0.8-1-1.4c-0.3-0.5-0.4-1.1-0.4-1.8
			c0-1.1,0.3-2,1-2.6c0.7-0.7,1.5-1,2.6-1c1.1,0,2,0.3,2.7,1c0.7,0.7,1,1.6,1,2.7V11c0,0.1,0,0.1-0.1,0.2c0,0-0.1,0.1-0.2,0.1H129
			c-0.1,0-0.1,0-0.2-0.1c0,0-0.1-0.1-0.1-0.2v-0.5c0-0.5-0.1-0.9-0.4-1.2c-0.3-0.3-0.6-0.5-1-0.5c-0.4,0-0.7,0.1-1,0.4
			c-0.3,0.3-0.4,0.7-0.4,1.2c0,0.5,0.1,0.9,0.4,1.2s0.8,0.8,1.6,1.4c0.8,0.6,1.4,1.1,1.8,1.5c0.4,0.4,0.7,0.8,1,1.2
			c0.2,0.5,0.3,1,0.3,1.6c0,1.1-0.3,2-1,2.7c-0.7,0.7-1.6,1-2.7,1C126.4,21.1,125.5,20.7,124.8,20.1z"/>
		<path fill="#FFFFFF" d="M132.7,20.8c0,0-0.1-0.1-0.1-0.2V7.1c0-0.1,0-0.1,0.1-0.2c0,0,0.1-0.1,0.2-0.1h1.8c0.1,0,0.1,0,0.2,0.1
			c0,0,0.1,0.1,0.1,0.2v13.5c0,0.1,0,0.1-0.1,0.2s-0.1,0.1-0.2,0.1h-1.8C132.8,20.9,132.7,20.9,132.7,20.8z"/>
		<path fill="#FFFFFF" d="M136.9,8.9c-0.3-0.3-0.4-0.6-0.4-1c0-0.4,0.1-0.8,0.4-1c0.3-0.3,0.6-0.4,1-0.4s0.8,0.1,1,0.4
			c0.3,0.3,0.4,0.6,0.4,1c0,0.4-0.1,0.8-0.4,1c-0.3,0.3-0.6,0.4-1,0.4C137.5,9.3,137.1,9.1,136.9,8.9z M136.8,20.8
			c0,0-0.1-0.1-0.1-0.2v-9.7c0-0.1,0-0.1,0.1-0.2s0.1-0.1,0.2-0.1h1.8c0.1,0,0.1,0,0.2,0.1c0,0,0.1,0.1,0.1,0.2v9.7
			c0,0.1,0,0.1-0.1,0.2c0,0-0.1,0.1-0.2,0.1H137C136.9,20.9,136.9,20.9,136.8,20.8z"/>
		<path fill="#FFFFFF" d="M145.6,7c0,0,0.1-0.1,0.2-0.1h1.8c0.1,0,0.1,0,0.2,0.1c0,0,0.1,0.1,0.1,0.2v13.5c0,0.1,0,0.1-0.1,0.2
			c0,0-0.1,0.1-0.2,0.1h-1.8c-0.1,0-0.1,0-0.2-0.1s-0.1-0.1-0.1-0.2v-0.2c0,0,0-0.1,0-0.1c0,0-0.1,0-0.1,0c-0.5,0.5-1.1,0.7-1.8,0.7
			c-0.9,0-1.6-0.3-2.1-0.9c-0.5-0.6-0.7-1.4-0.7-2.4v-4.1c0-1,0.2-1.8,0.8-2.4s1.2-0.9,2.1-0.9c0.3,0,0.6,0.1,0.9,0.2
			c0.3,0.1,0.6,0.3,0.9,0.5c0,0,0.1,0,0.1,0c0,0,0,0,0-0.1v-4C145.5,7.1,145.6,7,145.6,7z M145.1,18.7c0.2-0.2,0.3-0.5,0.4-0.8v-4.3
			c-0.1-0.3-0.2-0.6-0.4-0.8s-0.5-0.3-0.8-0.3c-0.4,0-0.7,0.1-0.9,0.4c-0.2,0.3-0.3,0.6-0.3,1v3.7c0,0.4,0.1,0.8,0.3,1
			c0.2,0.3,0.5,0.4,0.9,0.4C144.7,19.1,144.9,19,145.1,18.7z"/>
		<path fill="#FFFFFF" d="M156.5,16.6c0,0-0.1,0.1-0.2,0.1H152c-0.1,0-0.1,0-0.1,0.1v0.9c0,0.4,0.1,0.8,0.3,1
			c0.2,0.3,0.5,0.4,0.9,0.4c0.3,0,0.6-0.1,0.8-0.3s0.4-0.4,0.4-0.8c0-0.1,0.1-0.2,0.3-0.2l1.8,0.1c0.1,0,0.1,0,0.2,0.1
			c0,0,0.1,0.1,0,0.2c-0.1,0.9-0.4,1.7-1,2.2s-1.4,0.8-2.5,0.8c-1.1,0-2-0.3-2.6-0.9c-0.6-0.6-1-1.4-1-2.4v-4.1c0-1,0.3-1.8,1-2.4
			c0.6-0.6,1.5-0.9,2.6-0.9c1.1,0,2,0.3,2.6,0.9c0.6,0.6,1,1.4,1,2.4v2.6C156.6,16.5,156.6,16.5,156.5,16.6z M152.2,12.9
			c-0.2,0.3-0.3,0.6-0.3,1v0.9c0,0.1,0,0.1,0.1,0.1h2.3c0.1,0,0.1,0,0.1-0.1v-0.9c0-0.4-0.1-0.8-0.3-1c-0.2-0.3-0.5-0.4-0.9-0.4
			C152.7,12.5,152.4,12.6,152.2,12.9z"/>
		<path fill="#FFFFFF" d="M163.2,10.8c0.1,0.1,0.1,0.2,0.1,0.3l-0.3,1.9c0,0.2-0.1,0.2-0.3,0.1c-0.2-0.1-0.4-0.1-0.5-0.1
			s-0.3,0-0.4,0.1c-0.4,0.1-0.7,0.3-0.9,0.6s-0.3,0.8-0.3,1.3v5.7c0,0.1,0,0.1-0.1,0.2s-0.1,0.1-0.2,0.1h-1.8c-0.1,0-0.1,0-0.2-0.1
			c0,0-0.1-0.1-0.1-0.2v-9.7c0-0.1,0-0.1,0.1-0.2c0,0,0.1-0.1,0.2-0.1h1.8c0.1,0,0.1,0,0.2,0.1s0.1,0.1,0.1,0.2v0.9
			c0,0.1,0,0.1,0,0.1c0,0,0,0,0.1-0.1c0.4-0.9,0.9-1.3,1.8-1.3C162.8,10.6,163,10.6,163.2,10.8z"/>
	</g>
	<g>
		<path fill="#FFFFFF" d="M23.4,10l-17-1.6c-0.1,0-0.2,0-0.3,0L5.4,5.1c0-0.1,0-0.1-0.1-0.2C5.3,4.6,5.1,4.4,4.8,4.3l-3.2-1
			C1,3.2,0.5,3.5,0.3,4C0.2,4.5,0.5,5.1,1,5.2L3.7,6L7,21.7c0.1,0.5,0.5,0.8,0.9,0.8l14,0c0.5,0,0.9-0.4,0.9-0.9
			c0-0.5-0.4-0.9-0.9-0.9l-13.2,0l-0.4-2.2h13.9c0.7,0,1.4-0.5,1.5-1.1l1.1-5.7C24.9,10.8,24.3,10.1,23.4,10z M12.1,15
			c0,0.2-0.2,0.4-0.4,0.4h-1.5c-0.2,0-0.4-0.2-0.4-0.4v-2.4c0-0.2,0.2-0.4,0.4-0.4h1.5c0.2,0,0.4,0.2,0.4,0.4V15z M16,15
			c0,0.2-0.2,0.4-0.4,0.4h-1.5c-0.2,0-0.4-0.2-0.4-0.4v-2.4c0-0.2,0.2-0.4,0.4-0.4h1.5c0.2,0,0.4,0.2,0.4,0.4V15z M19.9,15
			c0,0.2-0.2,0.4-0.4,0.4h-1.5c-0.2,0-0.4-0.2-0.4-0.4v-2.4c0-0.2,0.2-0.4,0.4-0.4h1.5c0.2,0,0.4,0.2,0.4,0.4V15z"/>
		<ellipse fill="#FFFFFF" cx="10.6" cy="25.3" rx="1.9" ry="1.9"/>
		<circle fill="#FFFFFF" cx="19.6" cy="25.3" r="1.9"/>
		<path fill="#FFFFFF" d="M9,7.7l0.2,0l0.7,0.1L12.6,8l0.1-1.1c0.1-1.4,1.4-2.5,2.8-2.3C17,4.7,18,6,17.9,7.4l-0.1,1.1l2.8,0.3
			l0.9,0.1c0.3,0,0.6-0.2,0.6-0.5l0.1-0.9c0-0.3-0.2-0.6-0.5-0.6l-0.9-0.1c-0.1-0.7-0.3-1.4-0.6-2L20.8,4c0.3-0.2,0.3-0.6,0.1-0.8
			l-0.6-0.7c-0.2-0.3-0.6-0.3-0.8-0.1l-0.7,0.6c-0.6-0.4-1.2-0.8-1.9-1L17,1.1c0-0.3-0.2-0.6-0.5-0.6l-0.9-0.1
			c-0.3,0-0.6,0.2-0.6,0.5l-0.1,0.9c-0.7,0.1-1.4,0.3-2,0.6l-0.6-0.7c-0.2-0.3-0.6-0.3-0.8-0.1l-0.7,0.6c-0.3,0.2-0.3,0.6-0.1,0.8
			l0.6,0.7c-0.4,0.6-0.8,1.2-1,1.9L9.2,5.5c-0.3,0-0.6,0.2-0.6,0.5L8.4,7C8.4,7.4,8.6,7.6,9,7.7z"/>
	</g>
</g>
<g>
</g>
<g>
</g>
<g>
</g>
<g>
</g>
<g>
</g>
<g>
</g>
</svg>
