<svg xmlns="http://www.w3.org/2000/svg" viewBox="0 0 256 256"  xmlns:v="https://vecta.io/nano"><linearGradient id="A" gradientUnits="userSpaceOnUse" x1="53.265" y1="202.721" x2="239.631" y2="16.356"><stop offset=".009" stop-color="#634676"/><stop offset=".095" stop-color="#6a4979"/><stop offset=".694" stop-color="#945d8f"/><stop offset="1" stop-color="#a46497"/></linearGradient><path fill="url(#A)" d="M245.6 256.1H10.1c-5.7 0-10.3-4.6-10.3-10.3V10.4C-.2 4.7 4.4.1 10.1.1h235.5c5.7 0 10.3 4.6 10.3 10.3v235.5c0 5.6-4.6 10.2-10.3 10.2z"/><g opacity=".9" fill="#fff"><path d="M202.7 103L85.5 92.5c-.6-.1-1.2-.1-1.9 0l-4.7-22c-.1-.4-.2-.9-.4-1.3-.7-1.8-2.2-3.2-4.2-3.8L52 59c-3.4-1-7.1.9-8.1 4.3a6.2 6.2 0 0 0 4.4 7.8L67 76.4l22.4 104.8c.4 3.1 3.2 5.5 6.5 5.5h96.4c3.6 0 6.5-2.8 6.5-6.3s-2.9-6.3-6.5-6.3h-91.1L98 159.6h95.9c5 0 9.4-3.2 10.3-7.7L212 114c1-5.3-3.3-10.4-9.3-11zm-77.8 33.6c0 1.3-1.3 2.4-3 2.4h-10.3c-1.7 0-3-1.1-3-2.4v-16.3c0-1.3 1.4-2.4 3-2.4h10.3c1.7 0 3 1.1 3 2.4v16.3zm26.6 0c0 1.3-1.3 2.4-3 2.4h-10.3c-1.7 0-3-1.1-3-2.4v-16.3c0-1.3 1.4-2.4 3-2.4h10.3c1.7 0 3 1.1 3 2.4v16.3zm26.6 0c0 1.3-1.3 2.4-3 2.4h-10.3c-1.7 0-3-1.1-3-2.4v-16.3c0-1.3 1.4-2.4 3-2.4h10.3c1.7 0 3 1.1 3 2.4v16.3z"/><ellipse cx="114.3" cy="205" rx="13" ry="12.6"/><ellipse cx="176.5" cy="205" rx="13" ry="12.6"/><path d="M103.2 87.6l1.5.1 4.6.4 19 1.7.7-7.1c.9-9.6 9.7-16.6 19.5-15.7 9.9.9 17.1 9.4 16.2 19l-.7 7.1 19 1.7 6 .6c2.2.2 4.2-1.4 4.4-3.6l.6-6.3c.2-2.2-1.4-4.1-3.7-4.3l-6-.6A35.01 35.01 0 0 0 180 67l4.7-3.8c1.7-1.4 2-3.9.5-5.6l-4.1-4.9c-1.4-1.7-4-1.9-5.7-.5l-4.7 3.7c-3.8-3-8.1-5.3-13-6.7l.6-5.9c.2-2.2-1.4-4.1-3.7-4.3l-6.5-.6c-2.2-.2-4.2 1.4-4.4 3.6l-.6 5.9c-5 .5-9.8 1.9-14.1 4.2l-3.9-4.6c-1.4-1.7-4-1.9-5.7-.5l-5 4c-1.7 1.4-2 3.9-.5 5.6l3.9 4.6c-3.1 3.7-5.4 7.9-6.9 12.6l-6-.6c-2.2-.2-4.2 1.4-4.4 3.6l-.6 6.3c-.6 2.4 1.1 4.3 3.3 4.5z"/></g></svg>