<svg xmlns="http://www.w3.org/2000/svg" xmlns:xlink="http://www.w3.org/1999/xlink" viewBox="0 0 163.7 27.5" width="223.134px" height="37.202px" xmlns:v="https://vecta.io/nano"><g fill="#444"><path d="M33.1 20.7L30.5 7.2v-.1c0-.1.1-.2.2-.2h1.9c.2 0 .2.1.3.2l1.4 8.3s0 .1.1.1 0 0 .1-.1l1.3-8.3c0-.1.1-.2.3-.2h1.6c.2 0 .2.1.3.2l1.4 8.3s0 .1.1.1l.1-.1 1.3-8.3c0-.1.1-.2.3-.2h1.9c.2 0 .2.1.2.3l-2.5 13.5c0 .1-.1.2-.3.2h-1.7c-.2 0-.2-.1-.3-.2l-1.3-8.5c0-.1 0-.1-.1-.1l-.1.1-1.2 8.5c0 .1-.1.2-.3.2h-1.7c-.6 0-.6-.1-.7-.2z"/><use xlink:href="#B"/><path d="M52.7 20.2a3.31 3.31 0 0 1-1-2.4v-4c0-1 .3-1.8 1-2.4.6-.6 1.5-.9 2.6-.9s2 .3 2.6.9a3.31 3.31 0 0 1 1 2.4v4c0 1-.3 1.8-.9 2.4s-1.5.9-2.6.9-2-.3-2.7-.9zm3.6-1.6c.2-.3.4-.6.4-1v-3.7c0-.4-.1-.8-.4-1-.2-.3-.5-.4-.9-.4s-.7.1-.9.4a1.69 1.69 0 0 0-.3 1v3.7c0 .4.1.8.3 1s.5.4.9.4c.3 0 .6-.1.9-.4zM70.6 7.4c.5.3 1 .8 1.3 1.5a4.65 4.65 0 0 1 .5 2.1c0 1.2-.3 2.2-1 2.9-.6.7-1.5 1.1-2.5 1.1h-1.7c-.1 0-.1 0-.1.1v5.6c0 .1 0 .1-.1.2 0 0-.1.1-.2.1H65c-.1 0-.1 0-.2-.1s-.1-.1-.1-.2V7.1c0-.1 0-.1.1-.2 0 0 .1-.1.2-.1h3.8c.6.1 1.3.2 1.8.6zm-1.1 5.2c.3-.4.4-.9.4-1.5 0-.7-.1-1.2-.4-1.6s-.7-.6-1.2-.6h-1.2c-.1 0-.1 0-.1.1v4.1c0 .1 0 .1.1.1h1.2c.6 0 .9-.2 1.2-.6zm9.3-1.8c.1.1.1.2.1.3l-.3 1.9c0 .2-.1.2-.3.1s-.4-.1-.5-.1-.3 0-.4.1c-.4.1-.7.3-.9.6s-.3.8-.3 1.3v5.7c0 .1 0 .1-.1.2s-.1.1-.2.1H74c-.1 0-.1 0-.2-.1 0 0-.1-.1-.1-.2V11c0-.1 0-.1.1-.2 0 0 .1-.1.2-.1h1.8c.1 0 .1 0 .2.1s.1.1.1.2v1l.1-.1c.4-.9.9-1.3 1.8-1.3.3 0 .6 0 .8.2z"/><use xlink:href="#B" x="36.6"/><path d="M93.2 7s.1-.1.2-.1h1.8c.1 0 .1 0 .2.1 0 0 .1.1.1.2v13.5c0 .1 0 .1-.1.2 0 0-.1.1-.2.1h-1.8c-.1 0-.1 0-.2-.1s-.1-.1-.1-.2v-.3H93c-.5.5-1.1.7-1.8.7-.9 0-1.6-.3-2.1-.9s-.7-1.4-.7-2.4v-4.1c0-1 .2-1.8.8-2.4s1.2-.9 2.1-.9c.3 0 .6.1.9.2s.6.3.9.5h.1V7c-.1.1-.1 0 0 0zm-.5 11.7c.2-.2.3-.5.4-.8v-4.3c-.1-.3-.2-.6-.4-.8s-.5-.3-.8-.3c-.4 0-.7.1-.9.4a1.69 1.69 0 0 0-.3 1v3.7c0 .4.1.8.3 1 .2.3.5.4.9.4.3.1.6 0 .8-.3zm9.2-8s.1-.1.2-.1h1.8c.1 0 .1 0 .2.1 0 0 .1.1.1.2v9.7c0 .1 0 .1-.1.2 0 0-.1.1-.2.1h-1.8c-.1 0-.1 0-.2-.1s-.1-.1-.1-.2v-.5h-.1c-.4.6-1 .9-1.9.9-.8 0-1.5-.2-2-.7s-.8-1.2-.8-2.2V11c0-.1 0-.1.1-.2 0 0 .1-.1.2-.1h1.8c.1 0 .1 0 .2.1s.1.1.1.2v6.6c0 1 .4 1.5 1.2 1.5.4 0 .7-.1.9-.4s.3-.7.3-1.2V11c.1-.2.1-.2.1-.3zm4.9 9.5a3.31 3.31 0 0 1-1-2.4v-4c0-1 .3-1.8 1-2.4.6-.6 1.5-.9 2.6-.9s2 .3 2.6.9 1 1.3 1 2.2v.3c0 .1 0 .1-.1.2 0 0-.1.1-.2.1l-1.8.1c-.2 0-.2-.1-.2-.2v-.2c0-.3-.1-.6-.4-.9s-.5-.4-.9-.4-.7.1-.9.4a1.69 1.69 0 0 0-.3 1v3.7c0 .4.1.8.3 1 .2.3.5.4.9.4s.7-.1.9-.4c.2-.2.4-.5.4-.9v-.2c0-.1 0-.1.1-.2 0 0 .1-.1.2-.1h1.8c.1 0 .1 0 .2.1 0 0 .1.1.1.2v.4c0 .9-.3 1.7-1 2.2-.6.6-1.5.9-2.6.9-1.2 0-2.1-.3-2.7-.9zm11.8-8s-.1.1-.2.1h-1.2c-.1 0-.1 0-.1.1v5.2c0 .5.1.8.3 1s.4.3.8.2h.1c.1 0 .1 0 .2.1 0 0 .1.1.1.2v1.5c0 .1 0 .1-.1.2s-.1.1-.2.1h-.7c-.9 0-1.6-.2-2.1-.5s-.7-1-.7-1.9v-6.1c0-.1 0-.1-.1-.1h-.7c-.1 0-.1 0-.2-.1 0 0-.1-.1-.1-.2v-1.2c0-.1 0-.1.1-.2 0 0 .1-.1.2-.1h.7c.1 0 .1 0 .1-.1v-2c0-.1 0-.1.1-.2 0 0 .1-.1.2-.1h1.8c.1 0 .1 0 .2.1 0 0 .1.1.1.2v2.2c0 .1 0 .1.1.1h1.2c.1 0 .1 0 .2.1s.1.1.1.2v1.2c-.2-.1-.2 0-.2 0zm6.2 7.9c-.7-.7-1-1.5-1-2.6V17c0-.1 0-.1.1-.2s.1-.1.2-.1h1.8c.1 0 .1 0 .2.1s.1.1.1.2v.4c0 .5.1.9.4 1.3.3.3.6.5 1 .5s.8-.2 1-.5.4-.7.4-1.2c0-.3-.1-.6-.2-.9s-.4-.5-.6-.7c-.3-.2-.7-.6-1.3-1-.7-.5-1.2-.9-1.6-1.3a5.02 5.02 0 0 1-1-1.4c-.3-.5-.4-1.1-.4-1.8 0-1.1.3-2 1-2.6.7-.7 1.5-1 2.6-1s2 .3 2.7 1 1 1.6 1 2.7v.5c0 .1 0 .1-.1.2 0 0-.1.1-.2.1H129c-.1 0-.1 0-.2-.1 0 0-.1-.1-.1-.2v-.5c0-.5-.1-.9-.4-1.2s-.6-.5-1-.5-.7.1-1 .4-.4.7-.4 1.2.1.9.4 1.2.8.8 1.6 1.4 1.4 1.1 1.8 1.5.7.8 1 1.2c.2.5.3 1 .3 1.6 0 1.1-.3 2-1 2.7s-1.6 1-2.7 1c-.9.1-1.8-.3-2.5-.9zm7.9.7s-.1-.1-.1-.2V7.1c0-.1 0-.1.1-.2 0 0 .1-.1.2-.1h1.8c.1 0 .1 0 .2.1 0 0 .1.1.1.2v13.5c0 .1 0 .1-.1.2s-.1.1-.2.1h-1.8c-.1 0-.2 0-.2-.1zm4.2-11.9c-.3-.3-.4-.6-.4-1s.1-.8.4-1c.3-.3.6-.4 1-.4s.8.1 1 .4c.3.3.4.6.4 1s-.1.8-.4 1c-.3.3-.6.4-1 .4a1.53 1.53 0 0 1-1-.4zm-.1 11.9s-.1-.1-.1-.2v-9.7c0-.1 0-.1.1-.2s.1-.1.2-.1h1.8c.1 0 .1 0 .2.1 0 0 .1.1.1.2v9.7c0 .1 0 .1-.1.2 0 0-.1.1-.2.1H137c-.1 0-.1 0-.2-.1zM145.6 7s.1-.1.2-.1h1.8c.1 0 .1 0 .2.1 0 0 .1.1.1.2v13.5c0 .1 0 .1-.1.2 0 0-.1.1-.2.1h-1.8c-.1 0-.1 0-.2-.1s-.1-.1-.1-.2v-.3h-.1c-.5.5-1.1.7-1.8.7-.9 0-1.6-.3-2.1-.9s-.7-1.4-.7-2.4v-4.1c0-1 .2-1.8.8-2.4s1.2-.9 2.1-.9c.3 0 .6.1.9.2s.6.3.9.5h.1V7c-.1.1 0 0 0 0zm-.5 11.7c.2-.2.3-.5.4-.8v-4.3c-.1-.3-.2-.6-.4-.8s-.5-.3-.8-.3c-.4 0-.7.1-.9.4a1.69 1.69 0 0 0-.3 1v3.7c0 .4.1.8.3 1 .2.3.5.4.9.4.4.1.6 0 .8-.3zm11.4-2.1s-.1.1-.2.1H152c-.1 0-.1 0-.1.1v.9c0 .4.1.8.3 1 .2.3.5.4.9.4.3 0 .6-.1.8-.3s.4-.4.4-.8c0-.1.1-.2.3-.2l1.8.1c.1 0 .1 0 .2.1 0 0 .1.1 0 .2-.1.9-.4 1.7-1 2.2s-1.4.8-2.5.8-2-.3-2.6-.9a3.31 3.31 0 0 1-1-2.4v-4.1c0-1 .3-1.8 1-2.4.6-.6 1.5-.9 2.6-.9s2 .3 2.6.9a3.31 3.31 0 0 1 1 2.4v2.6l-.2.2zm-4.3-3.7a1.69 1.69 0 0 0-.3 1v.9c0 .1 0 .1.1.1h2.3c.1 0 .1 0 .1-.1v-.9c0-.4-.1-.8-.3-1-.2-.3-.5-.4-.9-.4-.5 0-.8.1-1 .4zm11-2.1c.1.1.1.2.1.3L163 13c0 .2-.1.2-.3.1s-.4-.1-.5-.1-.3 0-.4.1c-.4.1-.7.3-.9.6s-.3.8-.3 1.3v5.7c0 .1 0 .1-.1.2s-.1.1-.2.1h-1.8c-.1 0-.1 0-.2-.1 0 0-.1-.1-.1-.2V11c0-.1 0-.1.1-.2 0 0 .1-.1.2-.1h1.8c.1 0 .1 0 .2.1s.1.1.1.2v1l.1-.1c.4-.9.9-1.3 1.8-1.3.3 0 .5 0 .7.2z"/></g><g fill="#ab599b"><path d="M23.4 10l-17-1.6h-.3l-.7-3.3c0-.1 0-.1-.1-.2 0-.3-.2-.5-.5-.6l-3.2-1C1 3.2.5 3.5.3 4c-.1.5.2 1.1.7 1.2l2.7.8L7 21.7c.1.5.5.8.9.8h14c.5 0 .9-.4.9-.9s-.4-.9-.9-.9H8.7l-.4-2.2h13.9c.7 0 1.4-.5 1.5-1.1l1.1-5.7c.1-.9-.5-1.6-1.4-1.7zm-11.3 5c0 .2-.2.4-.4.4h-1.5c-.2 0-.4-.2-.4-.4v-2.4c0-.2.2-.4.4-.4h1.5c.2 0 .4.2.4.4V15zm3.9 0c0 .2-.2.4-.4.4h-1.5c-.2 0-.4-.2-.4-.4v-2.4c0-.2.2-.4.4-.4h1.5c.2 0 .4.2.4.4V15zm3.9 0c0 .2-.2.4-.4.4H18c-.2 0-.4-.2-.4-.4v-2.4c0-.2.2-.4.4-.4h1.5c.2 0 .4.2.4.4V15z"/><circle cx="10.6" cy="25.3" r="1.9"/><circle cx="19.6" cy="25.3" r="1.9"/><path d="M9 7.7h.2l.7.1 2.7.2.1-1.1c.1-1.4 1.4-2.5 2.8-2.3C17 4.7 18 6 17.9 7.4l-.1 1.1 2.8.3.9.1c.3 0 .6-.2.6-.5l.1-.9c0-.3-.2-.6-.5-.6l-.9-.1c-.1-.7-.3-1.4-.6-2l.6-.8a.53.53 0 0 0 .1-.8l-.6-.7a.53.53 0 0 0-.8-.1l-.7.6c-.6-.4-1.2-.8-1.9-1l.1-.9c0-.3-.2-.6-.5-.6l-.9-.1c-.3 0-.6.2-.6.5l-.1.9c-.7.1-1.4.3-2 .6l-.6-.7a.53.53 0 0 0-.8-.1l-.7.6a.53.53 0 0 0-.1.8l.6.7c-.4.6-.8 1.2-1 1.9l-1.1-.1c-.3 0-.6.2-.6.5l-.2 1c0 .4.2.6.6.7z"/></g><defs ><path id="B" d="M44.1 20.2a3.31 3.31 0 0 1-1-2.4v-4c0-1 .3-1.8 1-2.4.6-.6 1.5-.9 2.6-.9s2 .3 2.6.9a3.31 3.31 0 0 1 1 2.4v4c0 1-.3 1.8-.9 2.4s-1.5.9-2.6.9c-1.2 0-2.1-.3-2.7-.9zm3.5-1.6c.2-.3.4-.6.4-1v-3.7c0-.4-.1-.8-.4-1-.2-.3-.5-.4-.9-.4s-.7.1-.9.4a1.69 1.69 0 0 0-.3 1v3.7c0 .4.1.8.3 1s.5.4.9.4.7-.1.9-.4z"/></defs></svg>