<svg xmlns="http://www.w3.org/2000/svg" viewBox="0 0 554.3 607.5"  width="128" height="128" fill="#ffffff"  xmlns:v="https://vecta.io/nano"><path d="M523.3 218.6l-385.4-35.9c-2.1-.3-4.1-.3-6.1-.1L116.3 108c-.4-1.5-.7-3-1.4-4.3-2.4-6-7.4-10.8-13.9-12.8L27.5 69.3C16.3 65.9 4.3 72.4.9 83.8-2.5 95.1 4 107.1 15.5 110.4l61.3 18 73.7 355.4c1.4 10.5 10.4 18.5 21.3 18.5l317.1-.1c11.8 0 21.4-9.5 21.4-21.4 0-11.8-9.5-21.4-21.4-21.4l-299.6.1-10.2-49.1h315.4c16.5 0 30.8-10.9 33.8-26l25.5-128.5c3.4-18.2-10.5-35.3-30.5-37.3zm-255.9 114c0 4.5-4.4 8.2-9.9 8.2h-33.8c-5.5 0-9.9-3.7-9.9-8.2v-55.2c0-4.5 4.5-8.2 9.9-8.2h33.8c5.5 0 9.9 3.7 9.9 8.2v55.2zm87.5 0c0 4.5-4.4 8.2-9.9 8.2h-33.8c-5.5 0-9.9-3.7-9.9-8.2v-55.2c0-4.5 4.5-8.2 9.9-8.2H345c5.5 0 9.9 3.7 9.9 8.2v55.2zm87.5 0c0 4.5-4.4 8.2-9.9 8.2h-33.8c-5.5 0-9.9-3.7-9.9-8.2v-55.2c0-4.5 4.5-8.2 9.9-8.2h33.8c5.5 0 9.9 3.7 9.9 8.2v55.2z"/><circle transform="matrix(.070887 -.9975 .9975 .070887 -347.0148 756.6814)" cx="232.7" cy="564.6" r="42.8"/><circle cx="437.2" cy="564.6" r="42.8"/><path d="M196 166.2l4.8.5L216 168l62.5 5.8 2.3-24c3.1-32.5 31.8-56.2 64.3-53.2 32.5 3.1 56.2 31.8 53.2 64.3l-2.3 24 82.4 7.7c7.4.7 13.9-4.7 14.5-12.1l2-21.4c.7-7.4-4.7-13.9-12.1-14.5l-19.9-1.9c-1.6-16.5-6.6-32.2-14.3-46.3l15.5-12.8c5.7-4.7 6.5-13.2 1.7-18.9l-13.6-16.5c-4.7-5.7-13.2-6.5-18.9-1.7l-15.5 12.7C405.3 49.1 391 41.3 375 36.6l1.9-19.9c.7-7.4-4.7-13.9-12.1-14.5l-21.4-2c-7.4-.7-13.9 4.7-14.5 12.1L327 32.2c-16.5 1.6-32.2 6.6-46.3 14.3L267.9 31c-4.7-5.7-13.2-6.5-18.9-1.7l-16.5 13.6c-5.7 4.7-6.5 13.2-1.7 18.9l12.8 15.5c-10.1 12.5-17.9 26.8-22.6 42.8l-19.9-1.9c-7.4-.7-13.9 4.7-14.5 12.1l-2 21.4c-1.4 7.3 4.1 13.8 11.4 14.5z"/></svg>