<svg xmlns="http://www.w3.org/2000/svg" height="300" width="300" fill="#b33a9a" viewBox="0 0 64 64" fill-rule="evenodd" stroke-linejoin="round" stroke-miterlimit="2"  xmlns:v="https://vecta.io/nano"><path d="M37 25a1 1 0 1 1-2 0 1 1 0 1 1 2 0zM27 39a1 1 0 1 0 2 0 1 1 0 1 0-2 0zm1-13.001h4a1 1 0 1 0 0-2h-4a1 1 0 1 0 0 2zm8 12h-4a1 1 0 1 0 0 2h4a1 1 0 1 0 0-2zM13.765 23.31l.864-1.619-2.577-3.593a1 1 0 0 1 .015-1.187 25.03 25.03 0 0 1 4.844-4.844 1 1 0 0 1 1.187-.015l3.593 2.577a20.18 20.18 0 0 1 5.316-2.202l.718-4.363a1 1 0 0 1 .85-.828c2.272-.315 4.578-.315 6.85 0a1 1 0 0 1 .85.828l.718 4.363c1.869.477 3.659 1.218 5.316 2.202l3.593-2.577a1 1 0 0 1 1.187.015 25.03 25.03 0 0 1 4.844 4.844 1 1 0 0 1 .015 1.187l-2.577 3.593.864 1.619a8.99 8.99 0 0 1 2.347-.31c3.774 0 7.009 2.328 8.345 5.624A1 1 0 0 1 60 30h-7v4h7a1 1 0 0 1 .927 1.376C59.591 38.672 56.356 41 52.582 41a8.99 8.99 0 0 1-2.347-.31 19.93 19.93 0 0 1-.864 1.619l2.577 3.593a1 1 0 0 1-.015 1.187 25.03 25.03 0 0 1-4.844 4.844 1 1 0 0 1-1.187.015l-3.593-2.577a20.18 20.18 0 0 1-5.316 2.202l-.718 4.363a1 1 0 0 1-.85.828c-2.272.315-4.578.315-6.85 0a1 1 0 0 1-.85-.828l-.718-4.363c-1.869-.477-3.659-1.218-5.316-2.202l-3.593 2.577a1 1 0 0 1-1.187-.015 25.03 25.03 0 0 1-4.844-4.844 1 1 0 0 1-.015-1.187l2.577-3.593a20.1 20.1 0 0 1-.864-1.619 8.99 8.99 0 0 1-2.347.31c-3.774 0-7.009-2.328-8.345-5.624A1 1 0 0 1 4 34h7v-4H4a1 1 0 0 1-.927-1.376C4.409 25.328 7.644 23 11.418 23a8.99 8.99 0 0 1 2.347.31zM43.316 36H20.684c1.649 4.659 6.095 8 11.316 8s9.667-3.341 11.316-8zm15.01-8c-1.265-1.813-3.367-3-5.744-3-2.935 0-5.451 1.811-6.49 4.376a1 1 0 0 1-.927.624h-26.33a1 1 0 0 1-.927-.624C16.869 26.811 14.353 25 11.418 25c-2.377 0-4.479 1.187-5.744 3H12a1 1 0 0 1 1 1v6a1 1 0 0 1-1 1H5.674c1.265 1.813 3.367 3 5.744 3 2.935 0 5.451-1.811 6.49-4.376a1 1 0 0 1 .927-.624h26.33a1 1 0 0 1 .927.624C47.131 37.189 49.647 39 52.582 39c2.377 0 4.479-1.187 5.744-3H52a1 1 0 0 1-1-1v-6a1 1 0 0 1 1-1zm-15.01 0c-1.649-4.659-6.095-8-11.316-8s-9.667 3.341-11.316 8z"/></svg>