<svg xmlns="http://www.w3.org/2000/svg" height="300" width="300" fill="#b33a9a" viewBox="0 0 100 100"  xmlns:v="https://vecta.io/nano"><path d="M79 21.5v69l1.5-1.5h-61l1.5 1.5v-81L19.5 11h46.693c1.152 0-1.219-.95-.186-.056L79.439 22.56c1.455 1.259 3.587-.854 2.121-2.121L68.128 8.823C65.819 6.825 60.299 8 57.514 8H19.5c-.818 0-1.5.682-1.5 1.5v81c0 .817.682 1.5 1.5 1.5h61c.817 0 1.5-.683 1.5-1.5v-69c0-1.935-3-1.935-3 0z"/><path d="M64.125 10.5v12c0 .818.683 1.5 1.5 1.5H79.5c1.935 0 1.935-3 0-3H65.625l1.5 1.5v-12c0-1.935-3-1.935-3 0h0zM19.5 75.25h61c.968 0 .968-1.5 0-1.5h-61c-.967 0-.967 1.5 0 1.5h0zm0-17h61c.968 0 .968-1.5 0-1.5h-61c-.967 0-.967 1.5 0 1.5h0zm0 20.209h61c1.451 0 1.451-2.25 0-2.25h-61c-1.451 0-1.451 2.25 0 2.25h0zm.321-22.5h60.357c1.451 0 1.451-2.25 0-2.25H19.821c-1.451 0-1.451 2.25 0 2.25h0zm13.138 15.374l3.438-10.179h2.789l3.438 10.179h-2.632l-.636-2.078h-3.199l-.636 2.078h-2.562zm5.838-3.924l-1.039-3.356-1.039 3.356h2.078z"/><path d="M48.668 68.346a3.43 3.43 0 0 1-.226 1.248c-.15.389-.378.721-.684.994-.342.31-.745.538-1.21.684s-1 .219-1.606.219c-.451 0-.875-.018-1.271-.051s-.745-.084-1.046-.147v-2.064h.232l.643.229c.224.07.511.105.861.105.451 0 .799-.063 1.043-.191a1.1 1.1 0 0 0 .516-.533 2.07 2.07 0 0 0 .174-.775l.018-.981V63H43.78v-1.846h4.888v7.192zm.882 2.987l3.438-10.179h2.789l3.438 10.179h-2.632l-.636-2.078h-3.199l-.636 2.078H49.55zm5.838-3.924l-1.039-3.356-1.039 3.356h2.078z"/><path d="M68.841 71.333h-2.967l-1.955-3.247-1.996 3.247h-2.83l3.302-5.127-3.172-5.052h2.96l1.832 3.069 1.88-3.069h2.837l-3.192 4.949 3.301 5.23z"/></svg>