<svg xmlns="http://www.w3.org/2000/svg" xmlns:xlink="http://www.w3.org/1999/xlink" viewBox="0 0 920 540" xmlns:v="https://vecta.io/nano"><style><![CDATA[.B{opacity:.2}.C{opacity:.3}.D{fill:#fff}.E{fill:#fc242e}.F{fill:#f25161}.G{fill:#8e1924}.H{fill:#1a2e35}.I{fill:#c1c1c1}.J{fill:#d6d6d6}.K{opacity:.6}.L{fill:#1f1009}.M{fill:#da8027}.N{fill:#375a64}.O{fill:#27c840}.P{fill:#a7eae5}.Q{clip-path:url(#v)}]]></style><path fill="#a26496" d="M422.5 380h0c-27.3 7.9-63 12.6-102.1 12.6-40.6 0-77.4-5.1-104.9-13.5l-.2.1c-27.3-8-63.2-12.7-102.7-12.7-40.6 0-77.4 5.1-105.1 13.5h0c-2.4.7-4.8 1.4-7.4 2l.1 158H920V374.2c-39.8-14.2-61.4 44.6-83.9 51.7h0c-3.5 1-7.2 1.9-10.9 2.8v-.1c-19 4.4-12.5-33.4-65.2-36.8h0l-5.7.3c-.4 0-.7 0-1.1.1-1.7.1-3.3.1-5 .2-.7 0-1.3.1-2 .1-1.3.1-2.9.1-4.2.1-1.5 0-3.1.1-4.6.1h-1.7c-40.6 0-77.4-5.1-104.9-13.5l-.2.1c-27.3-8-63.1-12.7-102.5-12.7h-.4c-40.8-.1-77.8 5-105.2 13.4z" class="K"/><ellipse cx="333.5" cy="409" rx="94.6" ry="16.6" class="B"/><ellipse cx="147" cy="431.9" rx="30.8" ry="5.4" class="C"/><linearGradient id="A" gradientUnits="userSpaceOnUse" x1="334.968" y1="365.306" x2="334.968" y2="416.54"><stop offset="0" stop-color="#666"/><stop offset=".024" stop-color="#737373"/><stop offset=".113" stop-color="#9c9c9e"/><stop offset=".183" stop-color="#b6b6b8"/><stop offset=".224" stop-color="#c0c0c2"/><stop offset=".344" stop-color="#d2d3d5"/><stop offset=".473" stop-color="#fff"/><stop offset=".661" stop-color="#999"/><stop offset=".81" stop-color="#f2f2f2"/><stop offset=".954" stop-color="gray"/><stop offset=".988" stop-color="#d2d3d5"/><stop offset="1" stop-color="#666"/></linearGradient><path fill="url(#A)" d="M394.4 406.7l-11.4-3.2c-1.8-.5-3.2-1.5-3.5-2.7L368.2 365c-.1-.2-.3-.3-.7-.3h-65.2c-.3 0-.6.2-.7.3l-11.3 35.8c-.3 1.2-1.7 2.2-3.5 2.7l-11.4 3.2c-.7.2-.4.7.3.7H394c.8.1 1.1-.5.4-.7z"/><linearGradient id="B" gradientUnits="userSpaceOnUse" x1="163.612" y1="266.091" x2="506.325" y2="266.091"><stop offset="0" stop-color="#b3b3b3"/><stop offset=".988" stop-color="#d2d3d5"/></linearGradient><path fill="url(#B)" d="M479.7 366.5H190.3c-14.7 0-26.7-12-26.7-26.7V165.7h342.7v174.1c0 14.8-11.9 26.7-26.6 26.7z"/><linearGradient id="C" gradientUnits="userSpaceOnUse" x1="163.695" y1="235.6" x2="506.408" y2="235.6"><stop offset="0" stop-color="#939598"/><stop offset=".051" stop-color="#231f20"/><stop offset=".949" stop-color="#231f20"/><stop offset="1" stop-color="#6d6e71"/></linearGradient><path fill="url(#C)" d="M506.3 336.5H163.7V138.1a3.33 3.33 0 0 1 3.3-3.3h336.1a3.33 3.33 0 0 1 3.3 3.3l-.1 198.4z"/><path fill="#474747" d="M504.7 335.6H165.3V148.9c0-7.2 5.9-13.1 13.1-13.1h313.3c7.2 0 13.1 5.9 13.1 13.1l-.1 186.7z"/><path fill="#231f20" d="M505,336.5H165V150.7c0-7.7,6.3-14,14-14H491c7.7,0,14,6.3,14,14V336.5z"/><path fill="#dd9fe5" d="M177.5 148.4h315v174.9h-315z"/><linearGradient id="D" gradientUnits="userSpaceOnUse" x1="333.057" y1="142.133" x2="339.506" y2="142.133"><stop offset="0" stop-color="#dad9d9"/><stop offset=".054" stop-color="#b6b5b5"/><stop offset=".129" stop-color="#8b8b8b"/><stop offset=".209" stop-color="#666565"/><stop offset=".294" stop-color="#464646"/><stop offset=".387" stop-color="#2c2c2c"/><stop offset=".489" stop-color="#191818"/><stop offset=".605" stop-color="#0b0b0b"/><stop offset=".749" stop-color="#020202"/><stop offset="1"/></linearGradient><circle fill="url(#D)" cx="336.3" cy="142.1" r="3.2"/><linearGradient id="E" gradientUnits="userSpaceOnUse" x1="333.533" y1="142.133" x2="339.03" y2="142.133"><stop offset="0"/><stop offset=".097" stop-color="#0a0a0a"/><stop offset=".264" stop-color="#272626"/><stop offset=".481" stop-color="#545454"/><stop offset=".74" stop-color="#949393"/><stop offset="1" stop-color="#dad9d9"/></linearGradient><circle fill="url(#E)" cx="336.3" cy="142.1" r="2.7"/><circle cx="336.3" cy="142.2" r="2.6"/><path d="M335.5 143.3a.7.7 0 1 1-1.4 0 .68.68 0 0 1 .7-.7c.4-.1.7.3.7.7zm2.9-2.1a.7.7 0 1 1-1.4 0 .7.7 0 1 1 1.4 0z" class="D"/><defs><path id="F" d="M1 1h1L1 2z"/><path id="G" d="M420.2,175.4c0,5.1,5.2,9.1,11.7,9.1s11.7-4.1,11.7-9.1"/><path id="H" d="M249.8 255.7c-.2 0-.5.2-.5.6 0 .3.2.6.5.6.2 0 .5-.2.5-.6 0-.3-.2-.6-.5-.6z"/><path id="I" d="M244.7 257.8c-.2 0-.5.2-.5.6 0 .3.2.6.5.6.2 0 .5-.2.5-.6s-.2-.6-.5-.6z"/><path id="J" d="M254.8 256.9c-.2.1-.4.4-.3.7s.4.5.7.4c.2-.1.4-.4.3-.7s-.4-.5-.7-.4z"/><path id="K" d="M257.4 259.3c-.2-.2-.6 0-.7.2-.2.2-.1.7.2.7.2.2.6 0 .7-.2s.1-.6-.2-.7z"/><path id="L" d="M259.5 263.7c-.2-.2-.6 0-.7.2-.2.2-.1.7.2.7.2.2.6 0 .7-.2.1-.3 0-.6-.2-.7z"/><path id="M" d="M243 261.3c-.2.1-.4.4-.3.7s.4.5.7.4c.2-.1.4-.4.3-.7-.2-.3-.5-.5-.7-.4z"/><path id="N" d="M257.4 259.1c-.2-.2-.6 0-.7.2-.2.2-.1.7.2.7.2.2.6 0 .7-.2s.1-.5-.2-.7z"/><path id="O" d="M241.9 290.8l.1-.5v-.2c0-.1 0-.1.1-.2l.1-.1h.2c.1 0 .2 0 .2.1.1.1.1.2.1.3v.4h.2c.1 0 .2 0 .2.1.1 0 .1.1.1.2s0 .2-.1.2-.1.1-.2.1h-.2v1.2l.1.1h.5s.1 0 .1.1v.1c0 .1 0 .1-.1.2 0 0-.1.1-.2.1h-.4c-.1 0-.2 0-.3-.1-.1 0-.2-.1-.2-.2-.1-.1-.1-.2-.2-.2 0-.1-.1-.2-.1-.4v-1h-.1c-.1 0-.2 0-.2-.1-.1 0-.1-.1-.1-.2s0-.2.1-.2.1-.1.2-.1h.3v.3z"/><path id="P" d="M327.6 249.8c-.1 0-.2.2-.2.3 0 .2.1.3.2.3s.2-.2.2-.3c0-.2-.1-.3-.2-.3z"/><path id="Q" d="M327.4 251.6c-.1 0-.2.2-.2.3 0 .2.1.3.2.3s.2-.2.2-.3-.1-.3-.2-.3z"/><path id="R" d="M329.3 252.1c-.1 0-.2.2-.2.3 0 .2.1.3.2.3s.2-.2.2-.3c-.1-.1-.1-.3-.2-.3z"/><path id="S" d="M332.4 251c-.1 0-.2.2-.2.3 0 .2.1.3.2.3s.2-.2.2-.3c-.1-.2-.2-.3-.2-.3z"/><path id="T" d="M324.5 247.6c-.1 0-.2.2-.2.3 0 .2.1.3.2.3s.2-.2.2-.3c-.1-.1-.2-.3-.2-.3z"/><path id="U" d="M321.7 256.2c-.1 0-.2.2-.2.3s.1.3.2.3.2-.2.2-.3-.1-.3-.2-.3z"/><path id="V" d="M336.3 257.2c-.1 0-.2.2-.2.3s.1.3.2.3.2-.2.2-.3-.2-.3-.2-.3z"/><path id="W" d="M333.2 258.5c-.1 0-.2.2-.2.3s.1.3.2.3.2-.2.2-.3c-.1-.1-.1-.3-.2-.3z"/><path id="X" d="M326.9 248c-.1 0-.2.2-.2.3 0 .2.1.3.2.3s.2-.2.2-.3c-.1-.2-.1-.3-.2-.3z"/><path id="Y" d="M420.6 245.9c-1.3 3.7-4.2 8.1-4.2 8.1-3.1 4.4-5.7 6.7-5.7 11.2s4.8 7.2 5.2 7.5c.3.2.9.2.9.2 6.6.7 11.5-3.2 11.8-7.8.3-4.7 0-8.2.7-12.1.7-3.8.6-6.4-1-8.4-1.6-1.8-6.3-2.4-7.7 1.3z"/><path id="Z" d="M419.7 257c-.4-.1-.6-.3-.6-.2s.2.4.5.5.7-.2.7-.2c0-.1-.2 0-.6-.1z"/><path id="a" d="M421.8 257.8c-.4-.1-.6-.3-.6-.2s.2.4.5.5.7-.2.7-.2c.1-.1-.2 0-.6-.1z"/><path id="b" d="M420.3 258.4c-.4-.1-.6-.3-.6-.2s.2.4.5.5.7-.2.7-.2c.1-.1-.1 0-.6-.1z"/><path id="c" d="M418.5 260c-.4-.1-.6-.3-.6-.2s.2.4.5.5.7-.2.7-.2c.1 0-.3.1-.6-.1z"/><path id="d" d="M423.5 260.1c-.4-.1-.6-.3-.6-.2s.2.4.5.5.7-.2.7-.2c.1-.1-.2.1-.6-.1z"/><path id="e" d="M422.8 262.8c-.4-.1-.6-.3-.6-.2s.2.4.5.5.7-.2.7-.2c.2-.1-.2 0-.6-.1z"/><path id="f" d="M423.2 259.4c-.4-.1-.6-.3-.6-.2s.2.4.5.5.7-.2.7-.2c.2-.1-.1 0-.6-.1z"/><path id="g" d="M423 257c-.4-.1-.6-.3-.6-.2s.2.4.5.5.7-.2.7-.2c.1-.1-.3 0-.6-.1z"/><path id="h" d="M413.9 262.5c-.4-.1-.6-.3-.6-.2s.2.4.5.5.7-.2.7-.2c.1-.1-.1.1-.6-.1z"/><path id="i" d="M411.9 263.6c-.4-.1-.6-.3-.6-.2s.2.4.5.5.7-.2.7-.2c0-.1-.3 0-.6-.1z"/><path id="j" d="M417 270.2c-.4-.1-.6-.3-.6-.2s.2.4.5.5.7-.2.7-.2c.2-.1-.2-.1-.6-.1z"/><path id="k" d="M425.7 259.5c-.4-.1-.6-.3-.6-.2s.2.4.5.5.7-.2.7-.2c0-.1-.2.1-.6-.1z"/><path id="l" d="M426.5 253.5c-.4-.1-.6-.3-.6-.2s.2.4.5.5.7-.2.7-.2c.1-.1-.2-.1-.6-.1z"/><path id="m" d="M416.5 259.9c-.2-.1-.3-.2-.3-.1s.1.2.2.2c.2 0 .3-.1.3-.1.1 0 0 0-.2 0z"/><path id="n" d="M425.3 263.2c-.2-.1-.3-.2-.3-.1s.1.2.2.2.3-.1.3-.1c.2 0 0 .1-.2 0z"/><path id="o" d="M422.9 250.8c-.2-.1-.3-.2-.3-.1s.1.2.2.2c.2 0 .3-.1.3-.1.1 0 0 .1-.2 0z"/><path id="p" d="M295.2 197.4v1.1h-4v-5h3.9v1.1h-2.5v.8h2.2v1.1h-2.2v.9h2.6z"/><path id="q" d="M302.3 194.6h-1.5v-1.1h4.4v1.1h-1.5v3.8h-1.4v-3.8z"/><path id="r" d="M719.6 338.7h-21.1c-.9 0-1.7-.8-1.7-1.7v-1.3c0-.9.8-1.7 1.7-1.7h21.1c.9 0 1.7.8 1.7 1.7v1.3c0 .9-.8 1.7-1.7 1.7z"/><path id="s" d="M719.6 349.4h-21.1c-.9 0-1.7-.8-1.7-1.7v-1.3c0-.9.8-1.7 1.7-1.7h21.1c.9 0 1.7.8 1.7 1.7v1.3c0 .9-.7 1.7-1.7 1.7z"/><path id="t" d="M-1-1h-1l1-1z"/></defs><clipPath id="u"><use xlink:href="#F"/></clipPath><clipPath id="v" clip-path="url(#u)"><use xlink:href="#t"/></clipPath><defs><filter id="w" filterUnits="userSpaceOnUse" x="270.6" y="59.2" width="164.3" height="14"><feColorMatrix values="1 0 0 0 0  0 1 0 0 0  0 0 1 0 0  0 0 0 1 0"/></filter></defs><mask maskUnits="userSpaceOnUse" x="270.6" y="59.2" width="164.3" height="14" id="x"><g filter="url(#w)"><defs><path id="y" d="M1 1h1L1 2z"/><path id="z" d="M-1-1h-1l1-1z"/></defs><clipPath id="AA" class="Q"><use xlink:href="#y"/></clipPath><clipPath id="AB" clip-path="url(#AA)"><use xlink:href="#z"/></clipPath><linearGradient id="AC" gradientUnits="userSpaceOnUse" x1="434.9" y1="66.2" x2="270.6" y2="66.2"><stop offset="0" stop-color="#fff"/><stop offset=".95"/></linearGradient><path clip-path="url(#AB)" fill="url(#AC)" d="M270.6 59.2v14h150.1l14.2-14z"/></g></mask><path mask="url(#x)" fill="url(#AC)" d="M270.6 59.2v14h150.1l14.2-14z" class="Q"/><linearGradient id="AD" gradientUnits="userSpaceOnUse" x1="335.01" y1="142.466" x2="198.507" y2="142.466"><stop offset="0" stop-color="#6d6e71"/><stop offset=".95"/></linearGradient><path fill="url(#AD)" d="M198.5 136.6v11.7h124.7l11.8-11.7z"/><linearGradient id="AE" gradientUnits="userSpaceOnUse" x1="275.191" y1="407.58" x2="394.746" y2="407.58"><stop offset="0" stop-color="#939598"/><stop offset="1" stop-color="#5e5d5f"/></linearGradient><path fill="url(#AE)" d="M275.2 407h119.6v1.2H275.2z"/><linearGradient id="AF" gradientUnits="userSpaceOnUse" x1="175.579" y1="142.719" x2="174.335" y2="179.416"><stop offset="0" stop-color="#d40005"/><stop offset=".303" stop-color="#e6090e"/><stop offset=".71" stop-color="#f81218"/><stop offset="1" stop-color="#ff151b"/></linearGradient><path fill="url(#AF)" d="M177.7 175.5h-28.3l30.3-28.6h20.8z"/><path d="M177.3 175.4c0 5.1-6.2 9.1-14 9.1-7.7 0-14-4.1-14-9.1" class="E"/><path d="M204.2 175.5h-26.9l23.2-28.6h20.8z" class="I"/><path d="M203.4 175.4c0 5.1-5.8 9.1-13 9.1s-13-4.1-13-9.1" class="J"/><linearGradient id="AG" gradientUnits="userSpaceOnUse" x1="223.299" y1="144.263" x2="222.056" y2="180.933"><stop offset="0" stop-color="#d40005"/><stop offset=".303" stop-color="#e6090e"/><stop offset=".71" stop-color="#f81218"/><stop offset="1" stop-color="#ff151b"/></linearGradient><path fill="url(#AG)" d="M228.2 175.5h-24.8l17.9-28.6H242z"/><path d="M227.5,175.4c0,5.1-5.4,9.1-12,9.1s-12-4.1-12-9.1" class="E"/><path d="M252.1 175.5h-24.6l14.5-28.6h20.9z" class="I"/><path d="M250.9 175.4c0 5.1-5.2 9.1-11.7 9.1s-11.7-4.1-11.7-9.1" class="J"/><linearGradient id="AH" gradientUnits="userSpaceOnUse" x1="267.824" y1="145.696" x2="266.581" y2="182.352"><stop offset="0" stop-color="#d40005"/><stop offset=".303" stop-color="#e6090e"/><stop offset=".71" stop-color="#f81218"/><stop offset="1" stop-color="#ff151b"/></linearGradient><path fill="url(#AH)" d="M275.1 175.5h-24.2l12-28.6h20.8z"/><path d="M274.4,175.4c0,5.1-5.2,9.1-11.7,9.1s-11.7-4.1-11.7-9.1" class="E"/><path d="M298.9 175.5h-24.5l9.3-28.6h20.7z" class="I"/><path d="M299,175.4c0,5.1-5.5,9.1-12.3,9.1s-12.3-4.1-12.3-9.1" class="J"/><linearGradient id="AI" gradientUnits="userSpaceOnUse" x1="312.515" y1="147.135" x2="311.273" y2="183.776"><stop offset="0" stop-color="#d40005"/><stop offset=".303" stop-color="#e6090e"/><stop offset=".71" stop-color="#f81218"/><stop offset="1" stop-color="#ff151b"/></linearGradient><path fill="url(#AI)" d="M322 175.5h-23.1l5.5-28.6h20.8z"/><path d="M322,175.4c0,5.1-5.2,9.1-11.5,9.1s-11.5-4.1-11.5-9.1" class="E"/><path d="M346 175.5h-24l3.2-28.6H346z" class="I"/><path d="M346,175.4c0,5.1-5.4,9.1-12,9.1s-12-4.1-12-9.1" class="J"/><linearGradient id="AJ" gradientUnits="userSpaceOnUse" x1="496.424" y1="153.049" x2="495.184" y2="189.623"><stop offset="0" stop-color="#d40005"/><stop offset=".303" stop-color="#e6090e"/><stop offset=".71" stop-color="#f81218"/><stop offset="1" stop-color="#ff151b"/></linearGradient><path fill="url(#AJ)" d="M493.4 175.5h28.3l-30.3-28.6h-20.8z"/><path d="M493.8,175.4c0,5.1,6.2,9.1,14,9.1s14-4.1,14-9.1" class="E"/><path d="M466.9 175.5h26.9l-23.2-28.6h-20.8z" class="I"/><path d="M467.7 175.4c0 5.1 5.8 9.1 13 9.1s13-4.1 13-9.1" class="J"/><linearGradient id="AK" gradientUnits="userSpaceOnUse" x1="448.745" y1="151.515" x2="447.505" y2="188.111"><stop offset="0" stop-color="#d40005"/><stop offset=".303" stop-color="#e6090e"/><stop offset=".71" stop-color="#f81218"/><stop offset="1" stop-color="#ff151b"/></linearGradient><path fill="url(#AK)" d="M442.9 175.5h24.9l-18-28.6h-20.7z"/><path d="M443.6,175.4c0,5.1,5.4,9.1,12,9.1s12-4.1,12-9.1" class="E"/><path d="M419 175.5h24.6l-14.5-28.6h-20.8z" class="I"/><use xlink:href="#G" class="J"/><linearGradient id="AL" gradientUnits="userSpaceOnUse" x1="404.22" y1="150.086" x2="402.979" y2="186.694"><stop offset="0" stop-color="#d40005"/><stop offset=".303" stop-color="#e6090e"/><stop offset=".71" stop-color="#f81218"/><stop offset="1" stop-color="#ff151b"/></linearGradient><path fill="url(#AL)" d="M396 175.5h24.2l-11.9-28.6h-20.8z"/><use xlink:href="#G" x="-23.5" class="E"/><path d="M370.5 175.5h26.2l-9.2-28.6h-20.8z" class="I"/><path d="M371.1,175.4c0,5.1,5.7,9.1,12.9,9.1s12.9-4.1,12.9-9.1" class="J"/><linearGradient id="AM" gradientUnits="userSpaceOnUse" x1="358.741" y1="148.624" x2="357.499" y2="185.253"><stop offset="0" stop-color="#d40005"/><stop offset=".303" stop-color="#e6090e"/><stop offset=".71" stop-color="#f81218"/><stop offset="1" stop-color="#ff151b"/></linearGradient><path fill="url(#AM)" d="M345.8 175.5h24.9l-4-28.6h-20.8z"/><path d="M345.8,175.4c0,5.1,6.5,9.1,13.1,9.1s12-4.1,12-9.1" class="E"/><path d="M273.2 307.5h-58.3c-5.6 0-10.2-4.6-10.2-10.2V222c0-5.6 4.6-10.2 10.2-10.2h58.3c5.6 0 10.2 4.6 10.2 10.2v75.4c-.1 5.6-4.6 10.1-10.2 10.1z" class="D"/><path d="M237.9 265.3c-3.7.1-10.6-.4-10.6 1.1 0 0 1.2 1.4 9.2 1.2 2.8-.1 13.8.2 14.1-1.2.3-1.5-9.1-1.2-12.7-1.1z" class="B"/><path d="M239.3 265.4c-7.6-.2-7.7.8-7.7.8s4.2.8 8.3.7c4-.2 7-1.3-.6-1.5z" class="B"/><ellipse fill="#c61e24" cx="236.2" cy="254.8" rx="12" ry="11.2"/><path fill="#ad0b17" d="M243.4 245.8s2.8 7.5-5 11.6c-7.9 4.2-14.3 2.4-14-4.7h0c-.2.7-.2 1.3-.2 2.1 0 6.1 5.3 11.2 12 11.2 6.6 0 12-5 12-11.2-.1-3.7-1.9-6.9-4.8-9z"/><path d="M228.8 263.6c2 1.5 4.6 2.3 7.3 2.3 6.6 0 12-5 12-11.2 0-1.3-.2-2.6-.7-3.8 0 .3.2 18.6-18.6 12.7z" class="B"/><g class="D"><path opacity=".4" d="M231.8 248.2c-1.2-1.1-3.1-.8-4.2.5-1.2 1.3-1.1 3.2.2 4.2 1.2 1.1 3.1.8 4.2-.5 1.2-1.2 1.1-3.1-.2-4.2z"/><path opacity=".4" d="M230.5 249.2c-.6-.5-1.6-.4-2.2.2-.6.7-.5 1.7.1 2.2s1.6.4 2.2-.2c.6-.7.6-1.7-.1-2.2z"/></g><path d="M230.1 245.2s2.9-.1 3.7.5c.7.7 1.7.4 3.2-.2s3.2.7 3.8.1c.3-.3.9-.5.9-.8-1.7-.7-3.5-1.2-5.4-1.2-2.3 0-4.5.6-6.2 1.6z" class="B"/><path d="M243.4 245.8c-2-1.4-4.5-2.2-7.2-2.2-2.3 0-4.5.7-6.4 1.7.1 0 2.7.2 3 .7.2.5-3.2 1.3-3.2 1.3s3 .2 5.1-1 3.4 2.1 6.2 1.7c0 0-1.3-1.3-1.3-2.3.1-1 2.2-.2 2.8.2.7.6 1.6.8 1-.1h0z" class="B"/><path fill="#057c41" d="M240.1 243.3c.9-.9 3.2-.7 3.2-.7s-.6-.4-2.5-.4-2.3.9-2.7.9c-.3 0-.4-.6-1.8-.5s-1.1.7-2.2.4c-1-.3-4.2-.4-4.2-.4 1.2.1 2.3 1.2 2.3 1.2-2.1.7-5.1 0-5.1 0 2.3 1.7 5.1 1.3 5.1 1.3-1 1.7-2.7 2.2-2.7 2.2 4.7-.6 5.7-2.2 5.7-2.2 1.6 2.2 5.7 2 5.7 2-1.7-.9-1.7-2.5-1.7-2.5 2.8 1.2 5-.7 5-.7-2.2.3-4.1-.6-4.1-.6z"/><path d="M236.6 243c-.6 0-1.7.3-1.7.3s.1 1.2 2.1.9c2.1-.1.1-1.2-.4-1.2z" class="B"/><path d="M239.3 243.3c.7-.7 1.5-.7 1.5-.7s1.1-.1 0-.1-1.8.8-2.4 1-.7 0-1.2-.3-1.2.5-2.1.4c-.8-.1-3.3-.6-3.3-.6 1.1.2 2 1.4 2 1.4-1.7.6-5.3-.3-5.3-.3 1.2.9 5.6.7 5.6.7-.3 1.2-3.1 2.2-3.1 2.2 1.7-.2 3.7-1.9 4-2.2.2-.3 1.3-1.8 1.8-.5s2.2 1.7 2.2 1.7c-1.2-1.2 0-1.9 0-1.9 1.1.7 3.4.4 3.4.4-.8.1-3.8-.3-3.1-1.2z" class="B"/><path fill="#057c41" d="M236.1 238.8c-.8-.1-1.1.4-1.1.4.5 1.7-.2 4.1-.2 4.1.9 1.2 2.3 0 2.3 0-1.1-.9-1-4.5-1-4.5z"/><path fill="#52aa61" d="M235.1 239.2s.5.2 1.1-.4c-.9 0-1.1.4-1.1.4z"/><path d="M235.6 239.6l.4 4h.2l-.3-4h-.3zm14.2 32.2c-4.9-.7-10.4-.6-7.2 1.2 0 0 4.8 1.1 9.7 1.2s13-.6 11.1-2.3c-1.8-1.8-8.7.6-13.6-.1z" class="B"/><path d="M254.2 271.8c-1.9-.1-9.9 0-9.3.8 0 0 5.2 1.8 10.7.7s.5-1.3-1.4-1.5z" class="B"/><ellipse fill="#ce2435" cx="251" cy="263.1" rx="11" ry="10.3"/><ellipse fill="#e53844" cx="251" cy="263.1" rx="10.6" ry="9.9"/><path d="M247.7 255.2l2 3.6h.8s-.7-1.5-.5-1.5c.2.1 1.7-.5 1.9-.4s-.2 1.6 0 1.7c.2 0 1.1.2 1.1.2l.7-3.8c-2.6-.7-6 .2-6 .2z" class="F"/><path d="M247.9 255.2l1.9 3.4h.7l-.5-1.4c.1.1 1.6-.5 1.8-.3.2.1-.2 1.6 0 1.6s1 .2 1 .2l.7-3.7c-2.3-.7-5.6.2-5.6.2z" class="G"/><path d="M254.8 255.5l-1.3 3.8.6.5.7-1.4c0 .2 1.6.7 1.7 1 .1.2-1.3 1-1.2 1.2s.6.8.6.8l3.4-2.2c-1.3-2.2-4.5-3.7-4.5-3.7z" class="F"/><path d="M255 255.5l-1.3 3.7.6.5.7-1.3c0 .1 1.5.7 1.6.9s-1.3 1-1.2 1.1c.1.2.6.8.6.8l3.2-2.2c-1.2-2-4.2-3.5-4.2-3.5z" class="G"/><path d="M255.8 262.1v.7l1.6-.5c-.1.1.6 1.5.4 1.7s-1.7-.2-1.8 0-.2 1-.2 1l4.1.7c.8-2.3-.2-5.5-.2-5.5l-3.9 1.9z" class="F"/><path d="M256.1 262.2v.7s1.6-.6 1.5-.4c-.1.1.5 1.5.4 1.7s-1.7-.2-1.7 0-.2.9-.2.9l3.9.6c.7-2.2-.2-5.2-.2-5.2l-3.7 1.7z" class="G"/><path d="M254.8 266.1l1.5.7c-.2 0-.8 1.4-1.1 1.5-.2.1-1.1-1.2-1.2-1.2-.2.1-.9.6-.9.6l2.4 3.2c2.4-1.2 4.1-4 4.1-4l-4.2-1.2-.6.4z" class="F"/><path d="M254.9 266.3s1.6.7 1.4.7-.7 1.4-1 1.5c-.2.1-1.1-1.2-1.2-1.1-.2.1-.8.5-.8.5l2.3 3c2.3-1.1 3.9-3.8 3.9-3.8l-4-1.2-.6.4z" class="G"/><path d="M251.5 267.8s.7 1.5.5 1.5c-.2-.1-1.7.5-1.9.4s.2-1.6 0-1.7c-.2 0-1.1-.2-1.1-.2l-.7 3.8c2.6.7 6-.2 6-.2l-2-3.6h-.8z" class="F"/><path d="M251.5 267.9l.5 1.4c-.1-.1-1.6.5-1.8.3-.2-.1.2-1.6 0-1.6s-1-.2-1-.2l-.7 3.7c2.5.7 5.7-.2 5.7-.2l-1.9-3.4h-.8z" class="G"/><path d="M247.2 268.1c-.1-.2-1.6-.7-1.7-1-.1-.2 1.3-1 1.2-1.2s-.6-.8-.6-.8l-3.4 2.2c1.2 2.2 4.4 3.7 4.4 3.7l1.3-3.8-.6-.5c.1.1-.6 1.6-.6 1.4z" class="F"/><path d="M247 268.2c0-.1-1.5-.7-1.6-.9s1.3-1 1.2-1.1c-.1-.2-.6-.8-.6-.8l-3.2 2.2c1.2 2.1 4.2 3.6 4.2 3.6l1.3-3.7-.6-.5c.1-.2-.6 1.3-.7 1.2z" class="G"/><path d="M245.9 262.4c.1-.2.2-1 .2-1l-4.1-.7c-.8 2.3.2 5.5.2 5.5l3.9-1.8v-.7l-1.6.5c.1-.1-.6-1.5-.4-1.7.2-.3 1.8.1 1.8-.1z" class="F"/><path d="M244.5 264.2c.1-.1-.5-1.5-.4-1.7s1.7.2 1.7 0 .2-.9.2-.9l-4-.6c-.7 2.2.2 5.2.2 5.2l3.7-1.7v-.7c.1-.1-1.5.5-1.4.4z" class="G"/><path d="M242.5 259.7l4.2 1.2.6-.5-1.5-.7c.2 0 .8-1.4 1.1-1.5.2-.1 1.1 1.2 1.2 1.2.2-.1.9-.6.9-.6l-2.4-3.2c-2.4 1.3-4.1 4.1-4.1 4.1z" class="F"/><path d="M242.6 259.6l4 1.2.6-.5s-1.6-.7-1.4-.7.7-1.4 1-1.5c.2-.1 1.1 1.2 1.2 1.1.2-.1.8-.5.8-.5l-2.3-3c-2.3 1.2-3.9 3.9-3.9 3.9z" class="G"/><g fill="#750816"><use xlink:href="#H"/><use xlink:href="#H" x="-3.3" y="1.3"/><path d="M251.8 255.4c-.2 0-.5.2-.5.6s.2.6.5.6c.2 0 .5-.2.5-.6s-.2-.6-.5-.6z"/><use xlink:href="#H" x="-3.3" y="12.6"/><use xlink:href="#I"/><path d="M243 261.4c-.2.1-.4.4-.3.7s.4.5.7.4.4-.4.3-.7c-.2-.3-.5-.4-.7-.4zm6.2 8.8c-.2.1-.4.4-.3.7s.4.5.7.4c.2-.1.4-.4.3-.7s-.5-.4-.7-.4zm-4.2-1.9c-.2.1-.4.4-.3.7s.4.5.7.4c.2-.1.4-.4.3-.7-.1-.4-.3-.5-.7-.4zm-2-5c-.2.1-.4.4-.3.7s.4.5.7.4c.2-.1.4-.4.3-.7-.2-.3-.5-.4-.7-.4z"/><use xlink:href="#J"/><use xlink:href="#J" x="2.6" y="0.8"/><use xlink:href="#K"/><use xlink:href="#K" x="1.5" y="2.5"/><path d="M252.3 270.7c-.2-.2-.6 0-.7.2-.2.2-.1.7.2.7.2.2.6 0 .7-.2.2-.2.1-.6-.2-.7z"/><use xlink:href="#L"/><path d="M257.4 267.4c-.2-.2-.6 0-.7.2-.2.2-.1.7.2.7.2.2.6 0 .7-.2.1-.3.1-.6-.2-.7zm-.2-2.9c-.2.2-.2.4-.2.6.2.2.4.2.7.1.2-.2.2-.4.2-.6-.2-.3-.4-.3-.7-.1zm-12.6 2.4c-.2.2-.2.4-.2.6.2.2.4.2.7.1.2-.2.2-.4.2-.6-.2-.2-.5-.2-.7-.1z"/></g><g fill="#f9d467"><use xlink:href="#H" y="-0.2"/><use xlink:href="#I" x="1.8" y="-0.9"/><use xlink:href="#H" x="2" y="-0.5"/><use xlink:href="#I" x="1.8" y="10.4"/><use xlink:href="#H" x="-5.1" y="1.9"/><use xlink:href="#M"/><path d="M249.2 270.1c-.2.1-.4.4-.3.7s.4.5.7.4c.2-.1.4-.4.3-.7s-.5-.5-.7-.4zm-4.2-2c-.2.1-.4.4-.3.7s.4.5.7.4.4-.4.3-.7-.3-.5-.7-.4z"/><use xlink:href="#M" y="1.8"/><use xlink:href="#J" y="-0.2"/><path d="M257.4 257.5c-.2.1-.4.4-.3.7s.4.5.7.4.4-.4.3-.7-.4-.4-.7-.4z"/><use xlink:href="#N"/><use xlink:href="#N" x="1.5" y="2.5"/><path d="M252.3 270.5c-.2-.2-.6 0-.7.2-.2.2-.1.7.2.7.2.2.6 0 .7-.2.2-.2.1-.5-.2-.7z"/><use xlink:href="#L" y="-0.2"/><use xlink:href="#K" y="7.9"/><path d="M257.2 264.3c-.2.2-.2.4-.2.6.2.2.4.2.7.1.2-.2.2-.4.2-.6-.2-.2-.4-.2-.7-.1zm-12.6 2.5c-.2.2-.2.4-.2.6.2.2.4.2.7.1.2-.2.2-.4.2-.6-.2-.3-.5-.3-.7-.1z"/></g><path d="M227.8 223.2c-.1 0-.2 0-.2-.1-.1 0-.2-.1-.2-.1l-.2-.2c-.1-.1-.1-.2-.1-.2s0-.2.1-.2c.1-.1.1-.2.2-.2.1-.1.1-.1.2-.1s.2-.1.2-.1h3.8c.1 0 .2 0 .2.1.1 0 .2.1.2.1l.2.2c.1.1.1.2.1.2s0 .2-.1.2-.1.2-.2.2c-.1.1-.1.1-.2.1s-.2.1-.2.1h-1.2v4.2c0 .1 0 .2-.1.3 0 .1-.1.2-.2.2l-.2.2c-.1.1-.2.1-.3.1-.2 0-.2 0-.3-.1s-.2-.1-.2-.2l-.2-.2s-.1-.2-.1-.3v-4.2h-1zm3.9 2.9c0-.3.1-.6.2-.8s.2-.5.4-.7.4-.3.7-.5.7-.2 1-.2c.4 0 .7.1 1 .2s.5.2.7.5c.2.2.3.4.4.7s.2.6.2.9-.1.6-.2.8-.2.5-.4.7-.4.3-.7.5c-.3.1-.7.2-1 .2-.4 0-.7-.1-1-.2s-.6-.2-.7-.5c-.2-.2-.3-.4-.4-.7-.2-.3-.2-.5-.2-.9zm1.4 0a.9.9 0 0 0 .1.5c0 .2.1.3.2.4.1.2.2.2.3.3s.2.1.4.1.3 0 .4-.1.2-.2.3-.2.2-.2.2-.4.1-.3.1-.6c0-.2 0-.3-.1-.5s-.1-.3-.2-.4c-.1-.2-.2-.2-.3-.3s-.2-.1-.4-.1-.3 0-.4.1l-.3.3c-.1.1-.2.2-.2.4-.1.2-.1.4-.1.5zm4-1.2c0-.2.1-.5.2-.6.1-.2.2-.2.5-.2.2 0 .4.1.5.2.1.2.2.3.2.6.1-.2.2-.2.2-.3.1-.1.2-.2.3-.2.2-.1.2-.2.4-.2.2-.1.3-.1.4-.1.2 0 .3 0 .4.1s.2.1.4.2l.3.3c.1.2.2.2.2.4.1-.2.2-.3.3-.5s.2-.2.4-.3.2-.2.4-.2.3-.1.4-.1c.2 0 .3 0 .5.1a1.38 1.38 0 0 1 .4.3c.1.2.2.3.3.5s.1.4.1.7v1.9c0 .2-.1.5-.2.6-.1.2-.2.2-.5.2-.2 0-.4-.1-.5-.2-.1-.2-.2-.3-.2-.6v-1.8c0-.2 0-.2-.1-.3 0-.1-.1-.2-.2-.2s-.2-.1-.2-.2c-.1 0-.2-.1-.2-.1-.1 0-.2 0-.3.1-.1 0-.2.1-.2.2-.1.1-.2.2-.2.3-.1.1-.1.2-.1.4v1.7c0 .2-.1.5-.2.6-.1.2-.2.2-.5.2-.2 0-.4-.1-.5-.2-.1-.2-.2-.3-.2-.6v-1.7c0-.2-.1-.5-.2-.7s-.2-.2-.5-.2c-.1 0-.2 0-.3.1s-.2.1-.2.2l-.2.2c-.1.1-.1.2-.1.4v1.7c0 .2-.1.5-.2.6-.1.2-.2.2-.5.2-.2 0-.4-.1-.5-.2-.1-.2-.2-.3-.2-.6l.4-2.7zm10.7.6c0-.2-.1-.4-.2-.5s-.3-.2-.5-.2h-.3c-.1 0-.2 0-.3.1-.1 0-.2.1-.2.1-.1 0-.2.1-.2.1h-.2c-.1 0-.2 0-.2-.1-.1-.1-.1-.2-.1-.2s0-.2.1-.2l.2-.2c.1-.1.2-.1.3-.2.1 0 .2-.1.4-.1s.2 0 .4-.1h.4c.2 0 .5 0 .7.1l.6.3c.2.2.2.3.4.6.1.2.2.5.2.8v2c0 .1-.1.2-.1.2-.1.1-.1.2-.2.2-.1.1-.2.1-.3.1-.2 0-.3-.1-.4-.2-.1-.2-.2-.3-.2-.6-.1.2-.2.2-.2.3-.1.1-.2.2-.3.2l-.4.2c-.2 0-.2.1-.4.1s-.4 0-.6-.1-.3-.2-.4-.2c-.1-.1-.2-.2-.2-.4-.1-.2-.1-.3-.1-.5s.1-.5.2-.7.2-.3.5-.4c.2-.1.4-.2.7-.2s.7-.1 1-.1h.4v-.2h-.5zm0 .8h-.6c-.2 0-.3.1-.5.1-.2.1-.2.1-.3.2s-.2.2-.2.4c0 .1 0 .2.1.2 0 .1.1.2.2.2.1.1.2.1.2.1.1 0 .2.1.2.1.2 0 .2 0 .3-.1s.2-.1.2-.2c.1-.1.2-.2.2-.3 0-.2.1-.2.1-.4l.1-.3zm2.6-2.3l.1-.9c0-.1 0-.2.1-.2 0-.1.1-.2.1-.2.1-.1.1-.2.2-.2.1-.1.2-.1.3-.1.2 0 .3.1.4.2.1.2.1.3.1.6v.8h.5c.2 0 .2 0 .3.1s.2.2.2.3c0 .2-.1.2-.2.3s-.2.1-.4.1h-.4v2c0 .1 0 .2.1.2 0 .1.1.2.2.2s.2.1.2.1h.2c.1 0 .2 0 .2.1.1 0 .1.1.2.1 0 .1.1.2.1.2s0 .2-.1.2-.2.1-.2.2c-.1 0-.2.1-.3.1h-.5c-.2 0-.4 0-.5-.1-.2-.1-.3-.2-.4-.2-.1-.1-.2-.2-.2-.5-.1-.2-.1-.4-.1-.7v-1.9h-.2c-.2 0-.2 0-.4-.1s-.2-.2-.2-.3c0-.2 0-.2.1-.3s.2-.1.3-.1h.3zm2.7 2.1c0-.3.1-.6.2-.8s.2-.5.4-.7.4-.3.7-.5.7-.2 1-.2c.4 0 .7.1 1 .2s.5.2.7.5.3.4.4.7a2.39 2.39 0 0 1 .2.9c0 .3-.1.6-.2.8s-.2.5-.4.7-.4.3-.7.5c-.3.1-.7.2-1 .2-.4 0-.7-.1-1-.2s-.6-.2-.7-.5c-.2-.2-.3-.4-.4-.7s-.2-.5-.2-.9zm1.4 0a.9.9 0 0 0 .1.5c0 .2.1.3.2.4.1.2.2.2.3.3s.2.1.4.1.3 0 .4-.1.2-.2.3-.2c.1-.1.2-.2.2-.4s.1-.3.1-.6c0-.2 0-.3-.1-.5s-.1-.3-.2-.4c-.1-.2-.2-.2-.3-.3-.2-.1-.2-.1-.4-.1s-.3 0-.4.1l-.3.3c-.1.1-.2.2-.2.4-.1.2-.1.4-.1.5z" class="L"/><path fill="#c33" d="M260.8 297.5h-33.6c-1.6 0-2.9-1.3-2.9-2.9v-5.2c0-1.6 1.2-2.9 2.9-2.9h33.6c1.6 0 2.9 1.3 2.9 2.9v5.2c0 1.6-1.3 2.9-2.9 2.9z" class="K"/><g class="D"><path d="M233.9 292.4h0v.6c0 .1-.1.1-.1.1l-.1.1h-.4c-.1 0-.1-.1-.1-.1s-.1-.1-.1-.2-.1-.2-.1-.2l-.1-.3h-1.3l-.1.3c0 .1-.1.2-.1.2s-.1.1-.1.2l-.1.1h-.4c-.1 0-.1 0-.1-.1s-.1-.1-.1-.1v-.6l.6-1.7c.1-.2.1-.3.2-.4s.1-.2.2-.3l.2-.2c.1-.1.2-.1.3-.1s.2 0 .2.1c.1 0 .2.1.2.2.1.1.1.2.2.3s.1.2.2.5l1 1.6zm-1.5-2l-.5 1.5h1l-.5-1.5zm3.7-.1c0-.2 0-.2.1-.3s.2-.1.2-.1c.2 0 .2 0 .3.1s.1.2.1.3v2.4c0 .2 0 .2-.1.3s-.2.1-.3.1c-.2 0-.2 0-.2-.1s-.1-.2-.1-.3c-.1.2-.2.3-.3.3-.2.1-.3.1-.5.1s-.2 0-.4-.1l-.2-.2c-.1-.1-.2-.2-.2-.4-.1-.2-.1-.3-.1-.5s0-.3.1-.5.1-.2.2-.3.2-.2.3-.2c.1-.1.2-.1.4-.1a.9.9 0 0 1 .5.1c.2.1.2.2.3.3l-.1-.9zm-.5 1c-.1 0-.2 0-.2.1-.1 0-.1.1-.2.2s-.1.2-.1.2v.4c0 .1 0 .2.1.2 0 .1.1.2.2.2.1.1.2.1.2.1.1 0 .2 0 .2-.1l.2-.2c0-.1.1-.2.1-.2v-.6c0-.2-.1-.2-.1-.2 0-.1-.1-.1-.2-.2-.1.1-.2.1-.2.1zm3.4-1c0-.2 0-.2.1-.3s.2-.1.2-.1c.2 0 .2 0 .3.1s.1.2.1.3v2.4c0 .2 0 .2-.1.3s-.2.1-.3.1c-.2 0-.2 0-.2-.1s-.1-.2-.1-.3c-.1.2-.2.3-.3.3a.9.9 0 0 1-.5.1c-.2 0-.2 0-.4-.1l-.2-.2c-.1-.1-.2-.2-.2-.4-.1-.2-.1-.3-.1-.5s0-.3.1-.5.1-.2.2-.3.2-.2.3-.2c.1-.1.2-.1.4-.1a.9.9 0 0 1 .5.1c.2.1.2.2.3.3l-.1-.9zm-.5 1c-.1 0-.2 0-.2.1-.1 0-.1.1-.2.2s-.1.2-.1.2v.4c0 .1 0 .2.1.2 0 .1.1.2.2.2.1.1.2.1.2.1.1 0 .2 0 .2-.1l.2-.2c0-.1.1-.2.1-.2v-.6c0-.2-.1-.2-.1-.2 0-.1-.1-.1-.2-.2-.1.1-.1.1-.2.1z"/><use xlink:href="#O"/><path d="M243.4 292c0-.2 0-.3.1-.5s.2-.2.2-.4c.1-.1.2-.2.4-.2.2-.1.3-.1.6-.1.2 0 .4 0 .6.1s.3.2.4.2.2.2.2.4c.1.2.1.3.1.5s0 .3-.1.5-.2.2-.2.4c-.1.1-.2.2-.4.2-.2.1-.3.1-.6.1-.2 0-.4 0-.6-.1s-.3-.2-.4-.2c-.1-.1-.2-.2-.2-.4s-.1-.3-.1-.5zm.8 0v.2c0 .1.1.2.1.2 0 .1.1.1.2.2.1 0 .2.1.2.1.1 0 .2 0 .2-.1.1 0 .1-.1.2-.2s.1-.2.1-.2v-.5c0-.1-.1-.2-.1-.2s-.1-.2-.2-.2-.2-.1-.2-.1c-.1 0-.2 0-.2.1l-.2.2c0 .1-.1.2-.1.2v.3zm3.7-.5c0-.2 0-.5.1-.7l.3-.6c.2-.2.3-.2.5-.3s.4-.1.7-.1h.5c.2 0 .2.1.3.1s.2.1.2.2c.1.1.1.1.1.2v.1l-.1.1s-.1 0-.1.1-.1 0-.1 0h-.2c-.1 0-.1 0-.2-.1h-.6c-.1 0-.2 0-.3.1-.1 0-.2.1-.2.2-.1.1-.2.2-.2.3-.1.2-.1.3-.1.6a.9.9 0 0 0 .1.5c.1.2.1.2.2.3l.2.2c.1.1.2.1.3.1h.2c.1 0 .1 0 .2-.1.1 0 .2 0 .2-.1.1 0 .2-.1.2-.1h.2s.1 0 .1.1c0 0 0 .1.1.1v.1c0 .1 0 .1-.1.2 0 .1-.1.1-.2.2-.1 0-.2.1-.2.1-.1 0-.2.1-.2.1-.1 0-.2 0-.2.1-.1.1-.2 0-.2 0-.2 0-.4 0-.7-.1-.2-.1-.3-.2-.5-.3-.2-.2-.2-.3-.3-.6v-1zm4.8.1c0-.2 0-.2-.1-.2-.1-.1-.2-.1-.2-.1h-.9c-.1 0-.1 0-.2-.1 0 0-.1-.1-.1-.2s0-.1.1-.2l.1-.1c.1 0 .1-.1.2-.1s.2 0 .2-.1c.1-.1.2 0 .2 0h.2c.2 0 .2 0 .4.1s.2.1.3.2.2.2.2.3c.1.1.1.2.1.5v1.1c0 .1 0 .1-.1.2 0 .1-.1.1-.1.1h-.2c-.1 0-.2 0-.2-.1-.1-.1-.1-.2-.1-.3 0 .1-.1.2-.2.2s-.1.1-.2.2c-.1 0-.2.1-.2.1h-.2c-.1 0-.2 0-.3-.1-.1 0-.2-.1-.2-.2-.1-.1-.1-.2-.2-.2 0-.1-.1-.2-.1-.2 0-.2 0-.2.1-.3l.2-.2c.1-.1.2-.1.4-.2s.3-.1.6-.1h.5zm0 .5h-.3c-.1 0-.2 0-.2.1-.1 0-.2.1-.2.1-.1.1-.1.1-.1.2v.2l.2.2h.4s.1-.1.2-.1c.1-.1.1-.1.1-.2v-.2l-.1-.3zm1.9.6c0 .2 0 .2-.1.3s-.2.1-.3.1c-.2 0-.2 0-.2-.1s-.1-.2-.1-.3V291c0-.1.1-.1.1-.1l.1-.1h.2c.1 0 .2 0 .2.1.1.1.1.2.1.3 0-.2.1-.2.2-.3s.2-.2.4-.2h.2c.1 0 .1 0 .1.1l.1.1v.1c0 .1 0 .2-.1.2-.1.1-.2.1-.2.1h-.2c-.1 0-.1.1-.2.1s-.1.1-.1.2v.2l-.2.9z"/><use xlink:href="#O" x="14.1"/><path d="M363.9 307.5h-58.2c-5.6 0-10.3-4.6-10.3-10.3v-75.4c0-5.6 4.6-10.3 10.3-10.3h58.2c5.6 0 10.3 4.6 10.3 10.3v75.4c-.1 5.8-4.6 10.3-10.3 10.3z"/></g><path d="M329.6 263.2c-5 .1-8.9-.7-7.7.7 0 0 1.4 1.3 7.9 1.4 8.9.1 14.5-.4 13.3-2.4-1.1-2.1-8.4.2-13.5.3z" class="B"/><path d="M334.4 263.5c-4.7-.3-11.8-.3-12 .2 0 0 2.7 1.6 9.6 1.2 7-.3 7.2-1.1 2.4-1.4z" class="B"/><path d="M326.6 243.9s-8.1 0-9.4 7.7c-1.2 7.7 4.5 12.9 10.4 13 5.9.2 13.2-1 13.9-9.6.7-8.4-4.8-12.1-14.9-11.1z" class="M"/><path fill="#cb7129" d="M330.4 243.7c1.2 1.2 3.7 4.3 2.8 8.2-1.2 5-3.7 10.1-8.4 9.4a15.07 15.07 0 0 1-6.4-2.3c1.9 3.4 5.5 5.5 9.2 5.6 5.9.2 13.2-1 13.9-9.6.6-7.4-3.5-11.1-11.1-11.3z"/><g opacity=".5"><g fill="#603813"><use xlink:href="#P" class="C"/><use xlink:href="#Q" class="C"/><use xlink:href="#R" class="C"/><use xlink:href="#S" class="C"/><path d="M335.1 250.4c-.1 0-.2.2-.2.3 0 .2.1.3.2.3s.2-.2.2-.3c0-.2 0-.3-.2-.3z" class="C"/><use xlink:href="#P" x="4" y="-1.8" class="C"/><use xlink:href="#P" x="2.6" y="-0.7" class="C"/><use xlink:href="#Q" x="1.3" y="-4" class="C"/><use xlink:href="#T" class="C"/><use xlink:href="#P" x="-4.9" y="2.2" class="C"/><use xlink:href="#Q" x="-6.6" y="1.5" class="C"/><use xlink:href="#T" y="10" class="C"/><use xlink:href="#S" x="-4.5" y="4.7" class="C"/><use xlink:href="#P" x="-3.3" y="5.1" class="C"/><use xlink:href="#U" class="C"/><use xlink:href="#R" x="-3.4" y="8.8" class="C"/><use xlink:href="#U" x="8.7" y="2.7" class="C"/><use xlink:href="#R" x="4.4" y="8.8" class="C"/><use xlink:href="#V" class="C"/><use xlink:href="#P" x="7" y="5.9" class="C"/><use xlink:href="#W" class="C"/><use xlink:href="#Q" y="6.6" class="C"/></g><g class="D"><use xlink:href="#R" x="-6.4" y="6.1" class="C"/><use xlink:href="#P" x="1.1" y="5.2" class="C"/><use xlink:href="#P" x="-0.9" y="3.7" class="C"/><use xlink:href="#T" x="-4.9" y="5.2" class="C"/><use xlink:href="#V" x="-5.4" y="1.7" class="C"/><use xlink:href="#P" x="7.9" y="4.1" class="C"/><use xlink:href="#Q" x="7" y="-1.5" class="C"/><use xlink:href="#P" y="9.6" class="C"/><use xlink:href="#U" x="15.4" y="1.7" class="C"/><use xlink:href="#U" x="18" y="-2.2" class="C"/><use xlink:href="#Q" x="9.2" y="-3.8" class="C"/><use xlink:href="#Q" x="4.5" y="-5.8" class="C"/><use xlink:href="#X" class="C"/></g><g fill="#603813"><use xlink:href="#X" x="4.4" y="6.9" class="C"/><use xlink:href="#Q" x="7.2" y="2.1" class="C"/><use xlink:href="#Q" x="11.1" y="0.2" class="C"/><use xlink:href="#T" x="14.2" y="0.5" class="C"/><use xlink:href="#X" x="8.8" y="-0.5" class="C"/><use xlink:href="#R" x="3.4" y="-6.6" class="C"/><use xlink:href="#Q" x="-0.7" y="-6.6" class="C"/><use xlink:href="#P" x="-8.7" y="5.1" class="C"/><use xlink:href="#P" x="-6.8" y="9.6" class="C"/><use xlink:href="#W" x="-3.4" y="3.6" class="C"/><use xlink:href="#Q" x="11.1" y="8.8" class="C"/><use xlink:href="#S" x="5.4" y="3.9" class="C"/><use xlink:href="#Q" x="-2.1" y="-0.5" class="C"/><use xlink:href="#X" x="-6.4" y="-1" class="C"/><use xlink:href="#Q" x="-8" y="-1.5" class="C"/><use xlink:href="#Q" x="11.6" y="6" class="C"/></g></g><path d="M327.1 243.8c.1 0 2 .7 3.9.7l3.5-.2c-2-.6-4.5-.7-7.4-.5z" class="B"/><path d="M326.6 243.9s-2.2 0-4.5 1.1c0 0 2.5.3 4.9-.2 2.4-.6 3.2-.5 3.2-.5l.7-.2.5-.1c-1.3-.3-3-.3-4.8-.1z" class="B"/><path opacity=".1" d="M322.9 263c-.3-.1-.7-.2-1-.2 1.7 1.2 3.7 1.8 5.7 1.9 5.9.2 13.2-1 13.9-9.6.2-1.7 0-3.3-.4-4.7-.6 3.6-3.8 15.4-18.2 12.6z"/><g class="D"><path d="M323.2 246.3s-4.5 2.4-4 5.2c.4 2.7 4.2-.6 6-3.2 1.7-2.7-.1-3.2-2-2z" class="C"/><path d="M322.5 247.8s-2.2 1.2-1.9 2.4c.2 1.3 2.1-.2 2.8-1.6.9-1.2.1-1.5-.9-.8z" class="C"/></g><path d="M329.5 243.7l.7.4.7-.3c.2-.1-1.2 0-1.4-.1z" class="B"/><path fill="#4b846a" d="M321.1 238.6s1.3 8.5 9.4 5.1c-.1 0-1.1-6.5-9.4-5.1z"/><g class="C D"><path d="M325.1 241.2h0l.2.1s0-.1.1-.1h0-.3zm-.2-1.7c-.1 0-.1 0 0 0-.1-.2-.1-.3-.2-.3h-.1c-.2 0-.6-.1-.7-.2v-.2s0-.1-.1-.1v-.1h-.1c0 .1 0 .1.1.2h0v.1c0 .1 0 .1.1.1.2.2.6.2.8.3h.1l.1.2c0-.1 0-.1 0 0s.1.3.2.3h0v-.1c-.2.1-.2 0-.2-.2z"/><path d="M328.5 242.7h-.2v-.1c-.1 0-.2-.1-.2-.2.1 0 .2-.1.2-.1.2 0 .2 0 .3.1l.1-.1c-.1-.2-.2-.2-.4-.1-.1 0-.2.1-.3.1-.2-.2-.4-.2-.7-.3h-.1c-.1 0-.2-.1-.4-.1.3-.2.7-.2 1.1-.1v-.1c-.4-.1-.9-.1-1.3.1-.1 0-.2 0-.3-.1-.2-.1-.3-.2-.5-.2-.1-.1-.2-.2-.3-.2h.3c.2 0 .2-.1.4-.1.2-.1.2-.2.4-.2h0v-.2c.1.2.2.2.3.2v-.1c-.1 0-.2-.2-.2-.2s-.1-.2 0-.2c0-.1.1-.1.2-.2.2-.1.3-.2.2-.4 0-.1 0-.1-.1-.2.3.1.5.2.7.3v.1h-.2c-.2 0-.3 0-.4.2h0c.2.1.2.2.4.2-.2.1-.2.2-.3.2-.1.2 0 .3.1.5v.1h.1v-.1c-.1-.2-.1-.2-.1-.4.1-.1.2-.2.3-.2s.1.1.2.1c.1.1.2.1.3.2s.2.1.2.2.1.1.1.2.1.1.1.2c.1.2.1.7-.1.7v.1c.2-.1.2-.5.2-.7l.2.2s.1 0 .1.1c.1 0 .1 0 .1.1s.1.2 0 .3c0 0 0 .1-.1.1-.1.1-.1.2-.1.2l.1-.1c0-.1 0-.1.1-.2 0 0 .1-.1.1-.2v-.4l-.2-.2h-.1l-.4-.4c0-.1-.1-.1-.1-.2h0v-.9l-.1-.1v.9s-.1-.1-.2-.1c-.1-.1-.2-.1-.3-.2h-.1c.1-.2.1-.2 0-.4.1 0 .2-.1.2-.2v-.1l-.1-.1v.1c0 .1-.1.1-.2.2 0 0 0-.1-.1-.1-.2-.2-.5-.3-.8-.3l-.3-.3v-.3s-.1 0-.1-.1v.3c.1.1.2.2.2.3h0-.1c-.3 0-.6-.2-.7-.5 0-.1-.1-.2-.1-.2v-.1h-.1v.1c0 .1 0 .2.1.2.2.2.5.5.8.6h.2c.1.1.1.1.1.2 0 .2 0 .2-.2.2-.1.1-.2.1-.2.2-.1.1-.1.2 0 .3h-.1v.2l-.4.2c-.2.1-.3.1-.6.1h-.5c0-.2.1-.4.3-.6.2-.1.3-.1.5-.1h.3v-.1h-.2c-.1 0-.2-.1-.2-.1-.2-.1-.3-.2-.5-.2-.3.1-.4.3-.6.6 0 .1-.1.2-.2.3 0 .1-.1.1-.1.1l-.1-.1c-.1-.1-.2-.1-.2-.1h-.2c-.1-.1-.2-.1-.3-.2-.1 0-.1 0-.2-.1h0c-.1 0-.2-.1-.2-.1h0c.2-.3.9-1 1.3-.7l.1-.1c-.5-.2-1.2.5-1.5.8h0c-.1-.1-.2-.2-.2-.1l.1.1s.1 0 .2.1c-.1.2-.2.2-.4.2h0-.3c-.1 0-.2.1-.2.1-.1 0-.1.1-.2.1 0 0 0 .1.1.1s.1 0 .2-.1c.1 0 .2-.1.2-.1h.3c.2 0 .3-.1.5-.2h0c.1.1.2.1.2.2h0c.1 0 .1.1.2.1s.2.1.2.1h-.1c-.4.1-.7.3-.7.7h-.1c-.1.1-.2.1-.3.1h-.3s0 .1.1.1h.2c.1 0 .2-.1.3-.1h0v.1h.1v-.2c.1 0 .2-.1.2-.2.2-.1.5-.2.8-.2h.8c0 .2-.1.5-.2.7-.2.2-.3.3-.4.5h-.2a.45.45 0 0 1-.5 0l-.1.1c.1.1.2.2.3.2s.2-.1.3-.1h0c-.1.1-.1.2-.2.2-.1.2-.1.2-.2.2h-.5l.1.1h.4c.2 0 .2 0 .3-.2h0c.2-.1.4-.1.6-.1h.1c.2 0 .3 0 .5-.1.2 0 .5-.1.7 0h-.3c-.4.1-.9.2-1.2.4-.1 0-.1.1-.2.1-.2.1-.3.2-.4.2l.1.1c.1-.2.2-.2.3-.2s.1-.1.2-.1c.3-.2.8-.2 1.2-.4h.1c.1 0 .2 0 .2-.1l.1-.1h.1c.2.1.3.2.4.2.2.1.2.2.4.2h.1c0 .1-.1.1-.2.2h0c-.2.1-.3.2-.5.2-.2.1-.5 0-.7 0-.3 0-.7-.1-1.1.1h-.1c-.1 0-.1.1-.2.1 0 0 .1 0 .1.1h.2c.3-.2.7-.1 1-.1.2 0 .5.1.7 0 .2 0 .4-.2.6-.2h0c.2-.1.2-.2.2-.2h0c.1-.1.2-.1.2-.2.3-.2.6-.3 1-.2.2.1.5.2.7.2.1 0 .1.1.2.1l.1-.1c-.1 0-.1-.1-.2-.1.3-.1.1-.2-.1-.2zm-.8-2.2h0c-.2-.1-.4-.2-.5-.2l.6-.1c0 .1 0 .1-.1.3zm-2.6.7h.3s0 .1-.1.1-.1-.1-.2-.1-.1 0 0 0zm-1.1-.3c.1 0 .2.1.2.1h.1c-.3 0-.3 0-.3-.1h0c-.1 0 0 0 0 0zm.4.3h-.3c-.3 0-.6.1-.8.2-.1 0-.2.1-.2.1.1-.3.2-.5.6-.6h.2s.1 0 .1.1c.1.1.2.2.3.2h.1c-.1 0-.1 0 0 0h.2zm.1-.1h0c.2-.2.2-.2.2-.4.1-.2.2-.5.5-.5.2 0 .3.1.4.2l.1.1c-.2 0-.3 0-.5.1-.2.2-.3.3-.3.7-.2-.2-.3-.2-.4-.2zm.1.9c.2-.2.2-.5.3-.7h.2c.1 0 .1 0 .2.1-.1.1-.1.2-.1.4v.2c-.1.2-.2.4-.5.5h-.5c.3-.3.3-.3.4-.5zm1.4.6c0 .1 0 .1-.1.2-.2-.1-.5 0-.7 0s-.3.1-.5.1h-.1c-.2 0-.3 0-.5.1.1-.1.1-.2.2-.2h.5a.65.65 0 0 0 .6-.6v-.2c0-.2 0-.2.1-.3.1.1.2.2.3.2.2.1.3.2.5.3.1 0 .2.1.2.1-.1-.1-.2 0-.5.3 0-.2 0-.1 0 0zm1.2.5h0c-.1 0-.1 0 0 0-.2.2-.4.1-.6-.1-.1-.1-.2-.2-.4-.2h0c0-.1 0-.1.1-.2 0-.1 0-.2.1-.2.1-.2.2-.2.4-.4h.2c.2 0 .2 0 .4.1h.1c.2.1.5.1.7.2-.6.3-.8.5-1 .8zm.2-.2c-.1 0-.1.1-.2.1l.7-.6.2.2c-.2.1-.4.2-.7.3z"/><path d="M328.7 243.6c-.1.1-.2.1-.2.2h-.1c-.1.1-.2.2-.3.1-.1 0-.2-.1-.2-.2s-.1-.1-.1-.2c-.1-.1-.2-.1-.3-.1h-.1c-.4 0-.7.2-.9.5v.2c0 .1-.2.2-.3.2s-.1.1-.1.1h.2c.2-.1.3-.2.3-.3v-.2c.2-.2.5-.5.8-.5h.1c.1 0 .2 0 .2.1 0 0 .1.1.1.2.1.1.1.2.2.2.2 0 .3-.1.4-.2h.1c.1 0 .2-.1.2-.2.2-.2.6-.4.7-.2l.1-.1c-.1 0-.6.2-.8.4zm-6.6-3.8c-.1.1-.1.2-.1.2-.1.2-.2.3-.3.3s-.1 0-.2-.1h0s0 .1.1.1h.3c.2 0 .2-.2.3-.4-.1.1-.1 0-.1-.1.2-.2.8-.7 1.2-.5l.1-.1c-.4-.2-1.1.3-1.3.6zm6.8 1.2c-.1 0-.1 0-.2-.1h-.1c.1-.1.2-.2.3-.2h0l-.1-.1c-.2.1-.3.2-.3.3v.1h.4c.2.2.5.7.6.9s0 .3-.1.5c-.1.1-.2.2-.2.4h.1c0-.2.1-.2.2-.3.1-.2.2-.3.1-.6-.2-.3-.5-.7-.7-.9z"/></g><g fill="#31634b"><path d="M324.8 239.5c0-.1 0-.1 0 0-.1-.2-.1-.3-.2-.3h-.1c-.2 0-.6-.1-.7-.2v-.2s0-.1-.1-.1v-.1h-.1c0 .1 0 .1.1.2h0v.1c0 .1 0 .1.1.1.2.2.6.2.8.3h.1c0 0 0 0 .1.2 0-.1 0-.1 0 0s.1.3.2.3h0v-.1c-.1 0-.1-.1-.2-.2z"/><path d="M328.4 242.6h-.2v-.1c-.1 0-.2-.1-.2-.2.1 0 .2-.1.2-.1.2 0 .2 0 .3.1l.1-.1c-.1-.2-.2-.2-.4-.1-.1 0-.2.1-.3.1-.2-.2-.4-.2-.7-.3h-.1c-.1 0-.2-.1-.4-.1.3-.2.7-.2 1.1-.1v-.1c-.4-.1-.9-.1-1.3.1-.1 0-.2 0-.3-.1-.2-.1-.3-.2-.5-.2-.1-.1-.2-.2-.3-.2h.3c.2 0 .2-.1.4-.1.2-.1.2-.2.4-.2h0v-.2c.1.2.2.2.3.2v-.1c-.1 0-.2-.2-.2-.2s-.1-.2 0-.2c0-.1.1-.1.2-.2.2-.1.3-.2.2-.4 0-.1 0-.1-.1-.2.3.1.5.2.7.3v.1h-.2c-.2 0-.3 0-.4.2h0c.2.1.2.2.4.2-.2.1-.2.2-.3.2-.1.2 0 .3.1.5v.1h.1v-.1c-.1-.2-.1-.2-.1-.4.1-.1.2-.2.3-.2s.1.1.2.1c.1.1.2.1.3.2s.2.1.2.2.1.1.1.2.1.1.1.2c.1.2.1.7-.1.7v.1c.2-.1.2-.5.2-.7l.2.2s.1 0 .1.1c.1 0 .1 0 .1.1s.1.2 0 .3c0 0 0 .1-.1.1-.1.1-.1.2-.1.2l.1-.1c0-.1 0-.1.1-.2 0 0 .1-.1.1-.2v-.4l-.2-.2h-.1l-.4-.4c0-.1-.1-.1-.1-.2h0v-.9l-.1-.1v.9s-.1-.1-.2-.1c-.1-.1-.2-.1-.3-.2h-.1c.1-.2.1-.2 0-.4.1 0 .2-.1.2-.2v-.1l-.1-.1v.1c0 .1-.1.1-.2.2 0 0 0-.1-.1-.1-.2-.2-.5-.3-.8-.3l-.3-.3v-.3s-.1 0-.1-.1v.3c.1.1.2.2.2.3h0-.1c-.3 0-.6-.2-.7-.5 0-.1-.1-.2-.1-.2v-.1h-.1v.1c0 .1 0 .2.1.2.2.2.5.5.8.6h.2c.1.1.1.1.1.2 0 .2 0 .2-.2.2-.1.1-.2.1-.2.2-.1.1-.1.2 0 .3h-.1v.2l-.4.2c-.2.1-.3.1-.6.1h0-.4c0-.2.1-.4.3-.6.2-.1.3-.1.5-.1h.3v-.2h-.2c-.1 0-.2-.1-.2-.1-.2-.1-.3-.2-.5-.2-.3.1-.4.3-.6.6 0 .1-.1.2-.2.3 0 .1-.1.1-.1.1l-.1-.1c-.1-.1-.2-.1-.2-.1h-.2c-.1-.1-.2-.1-.3-.2-.1 0-.1 0-.2-.1h0c-.1 0-.2-.1-.2-.1h0c.2-.3.9-1 1.3-.7l.1-.1c-.5-.2-1.2.5-1.5.8h0c-.1-.1-.2-.2-.2-.1l.1.1s.1 0 .2.1c-.1.2-.2.2-.4.2h0-.5l-.2.1s-.1.1-.2.1c0 0 0 .1.1.1s.1 0 .2-.1c.1 0 .2-.1.2-.1h.3c.2 0 .3-.1.5-.2h0c.1.1.2.1.2.2h0c.1 0 .1.1.2.1s.2.1.2.1h-.1c-.4.1-.7.3-.7.7h-.1c-.1.1-.2.1-.3.1h-.3s0 .1.1.1h.2s.2-.1.3-.1h0v.1h.1v-.2c.1 0 .2-.1.2-.2.2-.1.5-.2.8-.2h.8c0 .2-.1.5-.2.7-.2.2-.3.3-.4.5h-.2a.45.45 0 0 1-.5 0l-.1.1c.1.1.2.2.3.2s.2-.1.3-.1h0c-.1.1-.1.2-.2.2-.1.2-.1.2-.2.2h-.5l.1.1h.4c.2 0 .2 0 .3-.2h0c.2-.1.4-.1.6-.1h.1c.2 0 .3 0 .5-.1.2 0 .5-.1.7 0h-.3c-.4.1-.9.2-1.2.4-.1 0-.1.1-.2.1-.2.1-.3.2-.4.2l.1.1c.1-.2.2-.2.3-.2s.1-.1.2-.1c.3-.2.8-.2 1.2-.3h.1c.1 0 .2 0 .2-.1l.1-.1h.1c.2.1.3.2.4.2.2.1.2.2.4.2h.1c0 .1-.1.1-.2.2h0c-.2.1-.3.2-.5.2-.2.1-.5 0-.7 0-.3 0-.7-.1-1.1.1h.1c-.1 0-.1.1-.2.1 0 0 .1 0 .1.1h.2c.3-.2.7-.1 1-.1.2 0 .5.1.7 0 .2 0 .4-.2.6-.2h0c.2-.1.2-.2.2-.2h0c.1-.1.2-.1.2-.2.3-.2.6-.3 1-.2.2.1.5.2.7.2.1 0 .1.1.2.1l.1-.1c-.1 0-.1-.1-.2-.1.3-.1.1-.1-.2-.2zm-.7-2.2h0c-.2-.1-.4-.2-.5-.2h.5c.1.1.1.1 0 .2zm-2.7.7h.3s0 .1-.1.1c.1 0 0 0-.2-.1zm-1-.3c.1 0 .2.1.2.1h.1c-.3 0-.3 0-.3-.1h0c-.1 0 0 0 0 0zm.4.3h-.3c-.3 0-.6.1-.8.2-.1 0-.2.1-.2.1.1-.3.2-.5.6-.6h.2s.1 0 .1.1c.1.1.2.2.3.2h.1c-.1 0-.1 0 0 0h.2zm.1-.1h0c.2-.2.2-.2.2-.4.1-.2.2-.5.5-.5.2 0 .3.1.4.2l.1.1c-.2 0-.3 0-.5.1-.2.2-.3.3-.3.7-.2-.2-.3-.2-.4-.2zm.1.9c.2-.2.2-.5.3-.7h.2c.1 0 .1 0 .2.1-.1.1-.1.2-.1.4v.2c-.1.2-.2.4-.5.5h-.5c.2-.2.3-.3.4-.5zm1.4.6c0 .1 0 .1-.1.2-.2-.1-.5 0-.7 0s-.3.1-.5.1h-.1c-.2 0-.3 0-.5.1.1-.1.1-.2.2-.2h.5a.65.65 0 0 0 .6-.6v-.2c0-.2 0-.2.1-.3.1.1.2.2.3.2.2.1.3.2.5.3.1 0 .2.1.2.1-.1 0-.2 0-.5.3 0-.2 0-.1 0 0zm1.2.5h0c-.1.1-.1.1 0 0-.2.2-.4.1-.6-.1-.1-.1-.2-.2-.4-.2h0c0-.1 0-.1.1-.2 0-.1 0-.2.1-.2.1-.2.2-.2.4-.4h.2c.2 0 .2 0 .4.1h.1c.2.1.5.1.7.2-.6.3-.9.5-1 .8zm.2-.1c-.1 0-.1.1-.2.1.2-.2.3-.4.7-.6l.2.2c-.2 0-.4.1-.7.3z"/><path d="M328.7 243.5c-.1.1-.2.1-.2.2h-.1c-.1.1-.2.2-.3.2s-.2-.1-.2-.2-.1-.1-.1-.2c-.1-.1-.2-.1-.3-.1h-.1c-.4 0-.7.2-.9.5v.2c0 .1-.2.2-.3.2s-.1.1-.1.1h.2c.2-.1.3-.2.3-.3v-.2c.2-.2.5-.5.8-.5h.1c.1 0 .2 0 .2.1 0 0 .1.1.1.2.1.1.1.2.2.2.2 0 .3-.1.4-.2h.1c.1 0 .2-.1.2-.2.2-.2.6-.4.7-.2l.1-.1c-.1-.1-.6.1-.8.3zm-6.6-3.7c-.1.1-.1.2-.1.2-.1.2-.2.3-.3.3s-.1 0-.2-.1h0s0 .1.1.1h.3c.2 0 .2-.2.3-.4-.1 0-.1-.1-.1-.1.2-.2.8-.7 1.2-.5l.1-.1c-.4-.3-1.1.2-1.3.6zm6.8 1.1c-.1 0-.1 0-.2-.1h-.1c.1-.1.2-.2.3-.2h0l-.1-.1c-.2.1-.3.2-.3.3v.1h.4c.2.2.5.7.6.9s0 .3-.1.5c-.1.1-.2.2-.2.4h.1c0-.2.1-.2.2-.3.1-.2.2-.3.1-.6-.2-.2-.5-.7-.7-.9z"/><path d="M321.1 238.6c5.7 1.2 8.9 5.2 8.9 5.2l.2-.1-.2-.2c-4-4.7-8.9-4.9-8.9-4.9z"/></g><path d="M322.6 239s-1.4 5.3 7.4 4.8v-1.4s-1-4.4-7.4-3.4z" class="B"/><path d="M321.5 238.6h-.2v.1c.9 4.2 3.7 5.1 3.7 5.1-2.9-1.3-3.5-5.2-3.5-5.2z" class="C D"/><path fill="#445b4f" d="M328.3 237.8c-.6 0-.6.6-.6.6 2.3 1.2 2.2 5.6 2.2 5.6l.6.2.5-.2c-.5-4.8-2.7-6.2-2.7-6.2z"/><path fill="#d6de23" d="M327.6 238.3c.1 0 .1.1 0 0 .7 0 .6-.6.6-.6-.5.1-.6.6-.6.6z"/><path d="M329.8 242.6c.1.7.1 1.3.1 1.3l.6.2.5-.2-.3-2.1c-.4.5-.7.7-.9.8zm15.3 25.5c-3.1-.1-9.6-1-10.5-.5-.8.5-.2.7.2.9 0 0 2.2 1.3 6.4 1.3 4.2-.1 11.5 0 11.1-1.5-.1-1.5-4.1 0-7.2-.2z" class="B"/><path d="M342.1 268.3c-3-.7-7.1-.4-6.8.3 0 0 3.7 1.5 9.3.6s.5-.2-2.5-.9z" class="B"/><path d="M344.4 251.5s-6.6-2-11 3c-4.3 5-2.2 17 10.6 14.4 12.9-2.7 6.2-16.4.4-17.4z" class="M"/><path fill="#cb7129" d="M345.6 251.9c1.4 1.2 4.6 4.2 4.9 6.1.3 2.4.4 8.5-4.6 9.4-5.1.9-11.3-.5-12.6-1.2 1.9 2.4 5.4 3.8 10.8 2.7 11.9-2.6 6.9-14.6 1.5-17z"/><path fill="#f7f7cd" d="M344.2 252.4h0c-.1 0-1.2-.3-2.9-.3-2.1 0-4.9.5-7.1 3.1-1.9 2.2-2.4 6.1-1.1 8.9 1.2 2.7 3.9 4.2 7.5 4.2h0c1 0 2.2-.1 3.3-.3 4.4-.9 6.7-3.2 6.6-6.7-.1-4.3-3.5-8.4-6.3-8.9z"/><g class="M"><path d="M341.2 252.7s-1.7 0-2.2.7c-.4.7 1 3.3 1.5 4.2 0 0 .2.9.4.9h1.1l.5-1.3c.2-.6.9-3.5.9-3.7 0-.3-.7-.9-2.2-.8z"/><path d="M347.1 255s-1.2-1.2-2.1-.9c-.9.2-2.7 4.5-2.7 4.7.2.2.5.4.7.7 0 0 .9 0 1.4-.3.6-.3 3.3-1.9 3.6-2.1.3-.4.3-1.2-.9-2.1zm1.6 3.4c-.8-.4-3.7.9-4.7 1.4 0 0-.9.1-.9.2s-.1.7-.1.9c0 0 .8.5 1.5.6l4.2.8c.3 0 .9-.6.8-2 0 .1 0-1.5-.8-1.9zm-5 3.5s-.8-.5-1-.4c-.2.2-.2.7-.5.8 0 0 .1.7.5 1.2s2.1 3 2.3 3.2 1.2.2 2.2-.9c0 0 1.2-1.1 1-1.9-.4-.8-3.4-1.7-4.5-2zm-2.1.6c-.6 0-.5.1-1.2 0 0 0-.4.4-.6 1.1-.2.6-.9 3.5-.9 3.7 0 .3.7.8 2.2.7 0 0 1.7 0 2.2-.7.4-.7-1-3.3-1.5-4.2 0 0 0-.6-.2-.6zm-2.4-1.2s-.9.1-1.5.5c-.6.3-3.3 1.9-3.6 2.1s-.2 1.1 1 1.9c0 0 1.2 1.2 2.1.9.9-.2 1.9-3 2.2-4 0 0 .6-.6.4-.7 0-.1-.3-.5-.6-.7z"/><path d="M337.8 259.2l-4.2-.8c-.3 0-.9.6-.8 2 0 0 0 1.6.7 2 .8.4 3.7-.9 4.7-1.4 0 0 1.1 0 1.1-.2v-1c-.1.1-.9-.4-1.5-.6z"/><path d="M337.3 254.1c-.2-.2-1.2-.2-2.2.9 0 0-1.2 1.1-1 1.9s3.3 1.7 4.3 2c0 0 .8.5 1 .4l.7-.7s-.3-.7-.7-1.3c-.2-.4-1.8-2.9-2.1-3.2z"/></g><path d="M333.4 254.5c-1.6 1.8-2.2 4.6-2 7.1.2-.2.3-.4.3-.4-.2-9.8 9.4-10.1 12.1-9.9-1.4-.2-6.7-1-10.4 3.2z" class="C D"/><g fill="#f7f7cd"><path d="M339.3 258.7c0-.1-.1-.1-.1-.2s-.1-.2-.2-.2l-.3-.6c-.1-.2-.2-.2-.2-.4-.2-.2-.3-.5-.5-.7-.6-.8-1.2-1.7-1-2.7h-.1c-.2 1.1.4 1.9 1 2.7a3.04 3.04 0 0 1 .5.7c.1.2.2.2.2.4l.3.6c.1.1.1.2.1.2 0 .1 0 .1.1.2s.1.2.2.2c.1.1.2.2.2.3h.1c0-.2-.1-.2-.2-.4 0 .1-.1 0-.1-.1zm7.5-4.2c.1.7-.6 1.2-1.2 1.5l-2.1.8c.2-.2.4-.4.7-.6.2-.2.6-.4.7-.7.2-.2.2-.4.2-.7.1-.4.2-.7.5-.9l-.1-.1c-.3.2-.5.6-.6 1-.1.2-.1.5-.2.7l-.7.7c-.2.2-.5.3-.7.6 0 .1-.1.1-.1.2-.2.1-.2.2-.4.2l-.1.1c-.1.1-.2.1-.4.2-.1 0-.2.1-.3.1-.1.1-.3.2-.5.2 0-.1.1-.2.1-.2.1-.2.1-.4.1-.7v-.3c0-.2.1-.3.1-.5.1-.4.2-.8.1-1.2 0-.1 0-.2-.1-.3-.1-.6-.2-1.4.3-1.6l-.1-.1c-.6.2-.5 1.2-.4 1.7 0 .1 0 .2.1.3 0 .4 0 .8-.1 1.2 0 .2-.1.3-.1.5v.3c0 .2 0 .4-.1.7-.1.2-.2.2-.2.4-.1.1-.1.2-.2.2 0-.2-.1-.3-.2-.6l-.2-.4c-.1-.2-.2-.4-.2-.7h0c.1-.2.1-.6.1-.9v-.5c0-.5-.1-1.9.2-2.2h.1v-.1h-.2c-.3.2-.3 1.2-.2 2.2v.8c0-.2-.1-.3-.1-.4-.1-.2-.1-.6-.2-.8-.1-.1-.2-.2-.2-.3-.1-.2-.2-.3-.2-.5 0-.1-.1-.2-.1-.2-.1-.2-.2-.4-.2-.7h-.1c0 .2.1.5.2.7 0 .1.1.2.1.2.1.2.2.3.2.5.1.1.2.2.2.3.1.2.2.5.2.7 0 .1.1.2.1.3 0 .2 0 .2.1.4v.3c-.2.7-.2 1.3-.2 2v.3h.1v-.3c0-.7 0-1.2.2-1.8.1.2.2.4.2.6.1.1.2.2.2.3.1.3.2.5.2.8h.1v-.2h.1c.1-.1.1-.2.2-.2h0c.1-.2.4-.3.7-.3.1 0 .2-.1.2-.1.2 0 .3-.1.4-.2l.1-.1c.1-.1.2-.1.2-.1-.1.2-.2.2-.2.4s-.2.2-.2.4c-.1.1-.2.2-.2.3-.2.2-.3.4-.4.7l.1.1c.1-.2.2-.4.4-.7.1-.1.2-.2.2-.3.1-.2.2-.2.2-.4.2-.2.2-.4.4-.6h.1c.7-.2 1.4-.6 2.2-.9.4-.2 1.1-.8 1.1-1.5h0z"/><path d="M346.3 256.7c.5-.7 1-1.2 1.4-1.5l-.1-.1c-.5.4-1 1-1.6 1.7-.3.2-.7.3-1 .5-.2.1-.4.2-.7.3-.2.1-.6.2-.8.4-.1.1-.2.1-.3.2-.5.3-1.2.7-1.2 1.2h.1c0-.4.7-.8 1.2-1.1.1-.1.2-.2.3-.2.2-.2.6-.2.8-.4.2-.1.5-.2.7-.3.2-.2.5-.2.7-.4-.1.1-.2.2-.2.3-.3.4-.6.7-.8 1.2-.2.3-.5.5-.8.7-.1.1-.2.1-.4.2s-.4.1-.5.2l.1.1c.2-.1.3-.2.5-.2l.4-.2c.4-.2.7-.4.9-.7.2-.4.6-.8.8-1.2a1.38 1.38 0 0 1 .3-.4l.1-.1c.7-.3 1.4-.7 2.1-.9l-.1-.1c-.6.3-1.3.6-1.9.8zm-6.6 2.7c-.3-.2-.8-.2-1.2-.2h0l-.2-.2c-.1-.1-.2-.1-.2-.1-.1-.1-.2-.1-.2-.2-.2-.1-.2-.2-.3-.3s-.1-.2-.2-.2c-.1-.1-.1-.2-.2-.2l-.2-.2c.1.1.2.1.2.2.2.2.4.2.6.4.2.1.3.2.5.2.3.2.7.3.8.6h.1c-.1-.3-.6-.5-.9-.7-.2-.1-.3-.2-.5-.2-.2-.2-.4-.2-.6-.4-.2-.1-.3-.2-.5-.3-.1-.2-.2-.3-.2-.6v-.7c-.1-.2-.3-.5-.6-.7l-.5-.5c-.2-.2-.3-.3-.4-.5h0c0 .2.2.4.4.6l.5.5c.2.2.5.5.6.7v.6c0 .2 0 .3.1.4-.9-.6-1.7-1.2-2.3-2.1l-.1.1c.7.9 1.6 1.6 2.5 2.2l.1.1c.1.2.2.2.3.3l.2.2c.1.1.1.2.2.2.1.2.2.2.3.4.1.1.2.1.2.2.1 0 .2.1.2.1l.1.1h-.2c-.5 0-.9 0-1.4.1h-.7c-.4 0-.7.1-1.1.1-.5 0-.9-.1-1.3-.2-.2 0-.3-.1-.5-.1-.1 0-.5-.1-.7 0l.1.1c.2-.1.4 0 .6 0s.3.1.5.1c.4.1.9.2 1.4.2.4 0 .7 0 1.2-.1h.7c.4 0 .9-.1 1.3-.1-.2.1-.5.2-.8.5h-1c-.3 0-.7.1-1 .2l-1.7.2h-1.4v.1h1.4c.6 0 1.2-.1 1.7-.2.3-.1.7-.1 1-.2h.9s-.1 0-.1.1c-.3.2-.7.5-1.2.7-1.3.5-2.7 1-3.9 1v.1c1.2 0 2.6-.5 4-1 .5-.2.9-.3 1.2-.7l.2-.2c.3 0 .7-.1 1.1-.2.2-.1.5-.1.7-.2l1.5-.3v-.2c-.5.3-.7.4-1.1.4zm-1.3.3a2.39 2.39 0 0 1-.9.2c.3-.2.7-.4.9-.5.1 0 .1.1.2.1.1.1.2.1.2.1-.1 0-.2 0-.4.1zm.8-.2h0c-.2 0-.3-.1-.4-.2h0c.2 0 .6.1.7.2-.1-.1-.3 0-.3 0zm-1.4 1.9c.2-.2.4-.3.7-.4.2-.2.6-.3.8-.6l-.1-.1c-.2.2-.5.3-.7.5l-.1-.1c-.2.2-.6.4-.9.6 0 0-.1 0-.1.1.3-.2.7-.5 1-.8l-.1-.1c-.5.5-1.1.8-1.7 1.2-.4.2-.9.6-1.3.9l-.6.6c-.1.2-.2.2-.3.4-.1.1-.2.2-.3.2-.1.1-.2.1-.2.2-.2.2-.3.3-.4.5l.1.1c.2-.2.2-.3.4-.5.1-.1.2-.1.2-.2.1-.1.2-.2.3-.2.2-.2.2-.2.3-.4.2-.2.3-.4.6-.6.3-.3.7-.6 1.2-.8-.3.2-.5.6-.6.9 0 .1-.1.2-.1.3-.1.3-.2.6-.4.8l-.1.1c-.1.1-.2.1-.2.2s-.1.2-.1.2c0 .1 0 .1-.1.2s-.2.2-.2.3c-.1.1-.2.2-.2.3s-.1.1-.1.2c-.1.2-.2.4-.2.6h.1c0-.2.2-.3.2-.5 0-.1.1-.1.1-.2.1-.1.2-.2.2-.3.1-.1.2-.2.2-.3s.1-.2.1-.2c0-.1 0-.1.1-.2 0-.1.1-.1.2-.2.1 0 .1-.1.2-.1.2-.2.3-.6.4-.8 0-.1.1-.2.1-.3.2-.4.2-.7.6-.9.2-.2.6-.3.8-.5.1-.1.1-.2.2-.1-.6.3-1 .9-1.1 1.4-.1.2-.1.6-.1.8-.2.2-.2.4-.3.7v.7c-.1.1-.2.1-.2.2-.1.1-.2.2-.3.2-.3.3-.5.6-.6.7 0 .2 0 .2.1.2.1.1.2.1.2.1.2 0 .3 0 .5-.1h.2v-.1c-.1 0-.2 0-.2.1-.2.1-.6.1-.7 0 0 0-.1-.1 0-.2 0-.1.2-.3.5-.7.1-.1.2-.2.3-.2s.1-.1.2-.1c0 .1.1.2.1.2s.1.2.1.3v.9h.1v-1c0-.1-.1-.2-.1-.3s-.1-.2-.1-.3c.2-.2.2-.3.2-.5v-.9c.1-.1.2-.2.2-.4.1-.1.1-.2.1-.3s.1-.2.1-.3c.2-.4.7-.7 1.2-.8.2-.1.4-.2.6-.2l-.1-.1c-.2.1-.3.2-.5.2-.5.2-1 .4-1.2.9-.1.1-.1.2-.1.3s-.1.2-.1.3-.1.2-.2.2c0-.2 0-.4.1-.6.3-.3.7-.9 1.1-1.3zm-1.1 3.1c0 .2-.1.2-.2.4v-.6c0-.2.1-.3.2-.5v.7z"/><path d="M339.3 261.3c0 .1-.1.2-.1.2-.2.3-.3.6-.4.9v.2c-.2.5-.2.9-.3 1.4 0 .1 0 .2-.1.3-.1.2-.1.6-.1.8 0 .6-.1 1.2-.5 1.6l.1.1c.5-.3.5-1 .5-1.7 0-.2 0-.6.1-.8 0-.1 0-.2.1-.3l.3-1.4v-.2c.1-.3.2-.6.4-.9 0-.1.1-.2 0-.2.2-.1.2-.2.3-.3l-.1-.1a.76.76 0 0 1-.2.4zm1.1 5c0-.3-.1-.6-.1-.9 0-.2-.1-.5-.1-.7v-.9c0-.3-.1-.6-.1-.8-.1-.3-.1-.6-.1-.9h0c0 .3.1.6.1.9.1.2.1.6.1.8v.9c0 .2.1.5.1.7s0 .5.1.9c-.1.2-.1.5 0 .7 0 .3.1.7.1 1.2h.1c0-.4 0-.7-.1-1.2 0-.2-.1-.5-.1-.7z"/><path d="M342.5 267.7c0-.1-.1-.2-.1-.3s0-.1-.1-.2c-.1-.2-.2-.6-.3-.8s-.2-.5-.2-.7c0-.1-.1-.2-.1-.2v-.6a2.39 2.39 0 0 0-.2-.9c-.1-.2-.1-.3-.2-.6s-.2-1.4 0-1.5l-.1-.1c-.3.1-.1 1.6-.1 1.6.1.2.1.4.2.6.1.3.2.6.2.9v.2c-.1-.2-.2-.5-.3-.7-.3-.7-.7-1.4-.7-2.2h-.1c-.1.8.3 1.5.7 2.2.2.3.3.7.5 1v.4l-.1 2.2h.1c.1-.9.1-1.6.1-2.2v-.2c.1.2.2.4.2.6.1.2.2.6.3.8v.2c0 .2.1.3.3.5h0c.1.1.2.1 0 0h0z"/><path d="M344.4 264.3c-.7-.6-1.2-1.2-1.8-1.8-.1-.2-.2-.5-.1-.7h-.1v.5c-.1-.2-.2-.3-.3-.4l-.1.1c.2.2.3.5.5.7.2.4.4.7.7 1.2.1.2.2.3.2.4.2.4.6 1 .8 1.6l.6 1.2c.1.1.1.2.2.3.1.2.2.3.2.5l.1-.1c-.1-.2-.2-.3-.2-.5-.1-.1-.1-.2-.2-.3-.2-.3-.4-.7-.6-1.2-.2-.6-.6-1.2-.8-1.6-.1-.2-.2-.3-.2-.4-.2-.2-.3-.5-.5-.8l1.6 1.3c.2.3.5.6.8.9l1.2 1.2.1-.1-1.2-1.2c-.3-.3-.6-.6-.9-.8z"/><path d="M346.9 264.4c-.1 0-.2 0-.2-.1-.4-.1-.8-.2-1.2-.4-1.2-.8-2.4-1.9-3.1-2.7l-.1.1c.7.8 1.8 1.9 3.1 2.7.3.2.8.3 1.2.4h.3l1.4.6c.1.1.2.1.3.2l.1-.1c-.1-.1-.2-.1-.3-.2-.4-.1-.9-.4-1.5-.5z"/><path d="M347.9 263.6c-.4-.2-.9-.2-1.3-.3h-.1c-.5-.1-1-.1-1.4-.5-.3-.3-.7-.6-1.1-.7-.5-.3-.9-.6-1.2-1l-.1.1c.3.4.8.7 1.2 1.1.3.2.7.4 1 .7.4.4.9.5 1.5.5h.1c.4 0 .8.2 1.3.3h.1c.2.1.4.2.7.2v-.1c-.3-.1-.5-.1-.7-.3h0z"/><path d="M347.6 261.6c-.5-.1-1.1-.2-1.7-.2h-.4c-.2 0-.5-.1-.7-.1.3 0 .6 0 .9.1h.1c.3.1.7.1 1 .1h.3c.2 0 .6-.1.8-.2s.4-.1.6-.2c.1 0 .2-.1.3-.1.2-.1.6-.2.8-.2v-.1c-.2 0-.6.1-.8.2-.2 0-.2.1-.3.1-.2 0-.4.1-.6.2s-.6.2-.8.2c-.4.1-.9 0-1.3-.1h-.1c-.4-.1-.9-.1-1.3 0h-.1c-.1 0-.2-.1-.2-.1h-.1c-.2-.1-.5-.2-.7-.3.2-.1.5-.1.7-.1h.8c.2 0 .3.1.5.1.1 0 .2.1.3.1h1.1c.2 0 .3 0 .5-.2v-.1h.5c.1-.2.1-.4 0-.7.1 0 .1 0 .2-.1h.7c.3 0 .7.1 1-.1l-.1-.1c-.2.1-.6.1-.9 0-.2 0-.5-.1-.7 0h-.2a.47.47 0 0 1 .1-.6c.2-.2.4-.2.7-.2s.5 0 .7-.2l-.1-.1c-.2.2-.3.2-.6.2-.2 0-.6 0-.7.2-.2.2-.2.4-.1.7-.2.1-.3.3-.4.6 0 .1 0 .1-.1.2-.4.1-.9.1-1.3 0-.2 0-.2-.2-.3-.2-.2-.1-.2-.2-.4-.2-.1 0-.2 0-.3-.1.2-.1.4-.2.6-.2h.1c.4-.1.9-.2 1.2-.6l.4-.4c.3-.3.9-.7 1.4-.7v-.1c-.5.1-1.2.4-1.5.7-.1.1-.2.2-.2.3-.1.1-.1.2-.2.2-.2.3-.7.4-1.2.5h-.1l-.9.3h-.5c-.4.1-.8.1-1.2 0v.1c.4.1.8.1 1.2 0-.1 0-.1 0-.2.1-.1 0-.2.1-.2.1-.2.1-.4.2-.7.2v.1c.2 0 .5-.1.7-.2.1 0 .2-.1.2-.1.2-.1.4-.2.6-.2h.7c.2 0 .2.2.4.2.1.1.2.2.4.2.2.1.3.1.6.1.2 0 .5 0 .7-.1-.1.2-.2.2-.3.2h-1.1c-.1 0-.2-.1-.3-.1-.2-.1-.3-.1-.5-.1h-.8c-.3 0-.6 0-.8.2v-.1l-.1.1c.2.2.6.4.9.5h0-.2v.1h.5c.4.1.9.2 1.2.2h.4c.5 0 1.1.1 1.6.2.3.1.7.2 1.1.2.4.1.9.2 1.4.2v-.1c-.4-.1-.9-.2-1.3-.2-.6 0-.9-.1-1.3-.2zm-.1-1.2c.1-.2.2-.3.3-.5 0 .2.1.4 0 .5h-.3c-.1 0-.1 0 0 0z"/></g><path d="M319.9 225c0-.5.1-.9.2-1.3.2-.4.3-.7.6-1 .2-.2.6-.5.9-.7s.8-.2 1.3-.2.9.1 1.3.2c.4.2.7.4.9.7.2.2.4.6.6 1s.2.8.2 1.3-.1.9-.2 1.3c-.2.4-.3.7-.6 1-.2.2-.6.5-.9.7s-.8.2-1.3.2-.9-.1-1.3-.2c-.4-.2-.7-.3-.9-.7s-.4-.6-.6-1a4.44 4.44 0 0 1-.2-1.3zm1.7 0c0 .7.1 1.2.3 1.6.2.3.6.5 1.1.5s.8-.2 1.1-.5.3-.9.3-1.6c0-.3 0-.7-.1-.9s-.2-.5-.2-.7a.78.78 0 0 0-.4-.4c-.2-.1-.4-.2-.6-.2s-.4.1-.6.2a.78.78 0 0 0-.4.4c-.1.2-.2.4-.2.7-.3.3-.3.6-.3.9zm6.6 2.3c0 .2-.1.5-.2.6-.1.2-.2.2-.5.2-.2 0-.4-.1-.5-.2-.1-.2-.2-.3-.2-.6v-2.8c0-.1 0-.2.1-.2 0-.1.1-.2.2-.2s.2-.1.2-.1c.1 0 .2-.1.2-.1.2 0 .4.1.5.2.1.2.2.3.2.7.1-.2.2-.5.3-.7.2-.2.4-.2.7-.2.1 0 .2 0 .2.1.1 0 .1.1.2.1s.1.1.1.2v.2c0 .2-.1.3-.2.4-.2.1-.3.2-.5.2s-.2 0-.3.1c-.1 0-.2.1-.2.2l-.2.2c-.1.1-.1.2-.1.4v1.3zm4.6-2c0-.2-.1-.4-.2-.5s-.3-.2-.5-.2h-.3c-.1 0-.2 0-.3.1-.1 0-.2.1-.2.1l-.2.1h-.2c-.1 0-.2 0-.2-.1-.1-.1-.1-.2-.1-.2s0-.2.1-.2l.2-.2c.1-.1.2-.1.3-.2.1 0 .2-.1.4-.1s.2 0 .4-.1h.4c.2 0 .5 0 .7.1l.6.3c.2.2.2.3.4.6.1.2.2.5.2.8v2c0 .1-.1.2-.1.2-.1.1-.1.2-.2.2-.1.1-.2.1-.3.1-.2 0-.3-.1-.4-.2-.1-.2-.2-.3-.2-.6-.1.2-.2.2-.2.3-.1.1-.2.2-.3.2l-.4.2c-.2 0-.2.1-.4.1s-.4 0-.6-.1-.3-.2-.4-.2c-.1-.1-.2-.2-.2-.4-.1-.2-.1-.3-.1-.5s.1-.5.2-.7.2-.3.5-.4c.2-.1.4-.2.7-.2.3-.1.7-.1 1-.1h.4v-.2h-.5zm0 .8h-.6c-.2 0-.3.1-.5.1-.2.1-.2.1-.3.2s-.2.2-.2.4c0 .1 0 .2.1.2 0 .1.1.2.2.2.1.1.2.1.2.1.1 0 .2.1.2.1.2 0 .2 0 .3-.1s.2-.1.2-.2c.1-.1.2-.2.2-.3 0-.2.1-.2.1-.4l.1-.3zm2.3-1.4c0-.2.1-.5.2-.6.1-.2.2-.2.5-.2.2 0 .4.1.5.2.1.2.2.3.2.6.1-.2.1-.2.2-.3s.2-.2.3-.2c.2-.1.2-.2.4-.2.2-.1.3-.1.5-.1a.9.9 0 0 1 .5.1 1.38 1.38 0 0 1 .4.3c.2.2.2.3.3.5s.1.4.1.7v1.9c0 .2-.1.5-.2.6-.1.2-.2.2-.5.2-.2 0-.4-.1-.5-.2-.1-.2-.2-.3-.2-.6v-2c0-.2 0-.2-.1-.3 0-.1-.1-.2-.2-.2-.1-.1-.2-.1-.2-.2-.1 0-.2-.1-.2-.1-.1 0-.2 0-.3.1s-.2.1-.2.2-.2.2-.2.2c-.1.1-.1.2-.1.4v1.7c0 .2-.1.5-.2.6-.1.2-.2.2-.5.2-.2 0-.4-.1-.5-.2-.1-.2-.2-.3-.2-.6l.2-2.5zm8.2 2.6c-.1.2-.2.2-.2.3-.1.1-.2.2-.3.2l-.4.2c-.2.1-.3.1-.4.1-.2 0-.5-.1-.7-.2s-.4-.2-.6-.4-.2-.4-.3-.7a2.39 2.39 0 0 1-.2-.9c0-.3 0-.6.1-.8s.2-.5.3-.7a3.17 3.17 0 0 1 .6-.5c.2-.1.5-.2.7-.2.3 0 .6.1.8.2s.5.3.7.6v-.1c0-.2.1-.3.2-.5.1-.1.2-.2.5-.2.1 0 .2 0 .3.1.1 0 .2.1.2.2s.1.2.1.2v3.1a2.39 2.39 0 0 1-.2.9c-.1.2-.2.5-.4.7s-.4.3-.7.4-.6.2-1 .2h-.7c-.2 0-.4-.1-.6-.1-.2-.1-.2-.1-.3-.2s-.1-.2-.1-.2v-.2c0-.1.1-.1.1-.2 0 0 .1-.1.2-.1h1.2c.2 0 .3 0 .4-.1.1 0 .2-.1.3-.2s.2-.2.2-.3c.1-.2.1-.3.1-.5l.1-.1zm0-1.3c0-.2 0-.4-.1-.6s-.1-.3-.2-.4l-.2-.2c-.1-.1-.2-.1-.4-.1s-.3 0-.4.1-.2.2-.2.3l-.2.4c-.1.2 0 .3 0 .5 0 .4.1.7.2 1s.3.3.7.3c.2 0 .2 0 .3-.1l.2-.2c.1-.1.2-.2.2-.4.1-.2.1-.4.1-.6zm6.5-.2c0 .1 0 .2-.1.2-.1.1-.2.1-.3.1h-2.7c0 .3.1.6.3.8s.5.2.8.2h.3c.1 0 .2 0 .3-.1s.2-.1.3-.1.2-.1.3-.1h.1c.1 0 .2 0 .2.1.1.1.1.2.1.2v.2c-.1.2-.2.2-.2.3-.2.1-.2.2-.4.2-.2.1-.3.1-.5.1h-.6a2.39 2.39 0 0 1-.9-.2c-.2-.1-.5-.2-.7-.4s-.3-.4-.5-.7-.2-.6-.2-1c0-.3.1-.6.2-.8s.2-.5.5-.7c.2-.2.4-.3.7-.5a2.39 2.39 0 0 1 .9-.2 2.39 2.39 0 0 1 .9.2c.2.1.5.2.7.4s.3.4.4.7c.3.5.1.8.1 1.1zm-1.2-.3c0-.2 0-.2-.1-.4s-.1-.2-.2-.3-.2-.2-.3-.2c-.1-.1-.2-.1-.4-.1s-.2 0-.4.1c-.1.1-.2.2-.3.2-.1.1-.2.2-.2.3 0 .2-.1.2-.1.4h2z" class="L"/><path fill="#c33" d="M351.6 297.3H318c-1.6 0-2.9-1.2-2.9-2.9v-5.2c0-1.6 1.3-2.9 2.9-2.9h33.6c1.6 0 2.9 1.2 2.9 2.9v5.2c0 1.6-1.3 2.9-2.9 2.9z" class="K"/><g class="D"><path d="M324.7 292.3h0v.6c0 .1-.1.1-.1.1l-.1.1h-.4c-.1 0-.1-.1-.1-.1s-.1-.1-.1-.2-.1-.2-.1-.2l-.1-.3h-1.2l-.1.3c0 .1-.1.2-.1.2 0 .1-.1.1-.1.2l-.1.1h-.4c-.1 0-.1 0-.1-.1s-.1-.1-.1-.1v-.6l.6-1.7c.1-.2.1-.3.2-.4s.1-.2.2-.3l.2-.2c.1-.1.2-.1.3-.1s.2 0 .2.1c.1 0 .2.1.2.2.1.1.1.2.2.3s.1.2.2.5l.9 1.6zm-1.5-2l-.5 1.5h1l-.5-1.5zm3.7-.2c0-.2 0-.2.1-.3s.2-.1.2-.1c.2 0 .2 0 .3.1s.1.2.1.3v2.4c0 .2 0 .2-.1.3s-.2.1-.3.1c-.2 0-.2 0-.2-.1s-.1-.2-.1-.3c-.1.2-.2.3-.3.3-.2.1-.3.1-.5.1s-.2 0-.4-.1l-.2-.2c-.1-.1-.2-.2-.2-.4-.1-.2-.1-.3-.1-.5s0-.3.1-.5.1-.2.2-.3.2-.2.3-.2c.1-.1.2-.1.4-.1a.9.9 0 0 1 .5.1c.2.1.2.2.3.3l-.1-.9zm-.5 1c-.1 0-.2 0-.2.1-.1 0-.1.1-.2.2s-.1.2-.1.2v.4c0 .1 0 .2.1.2 0 .1.1.2.2.2.1.1.2.1.2.1.1 0 .2 0 .2-.1l.2-.2c0-.1.1-.2.1-.2v-.6c0-.1-.1-.2-.1-.2 0-.1-.1-.1-.2-.2-.1.1-.1.1-.2.1zm3.4-1c0-.2 0-.2.1-.3s.2-.1.2-.1c.2 0 .2 0 .3.1s.1.2.1.3v2.4c0 .2 0 .2-.1.3s-.2.1-.3.1-.2 0-.2-.1-.1-.2-.1-.3c-.1.2-.2.3-.3.3-.2.1-.3.1-.5.1s-.2 0-.4-.1l-.2-.2c-.1-.1-.2-.2-.2-.4-.1-.2-.1-.3-.1-.5s0-.3.1-.5.1-.2.2-.3.2-.2.3-.2c.1-.1.2-.1.4-.1a.9.9 0 0 1 .5.1c.2.1.2.2.3.3l-.1-.9zm-.5 1c-.1 0-.2 0-.2.1-.1 0-.1.1-.2.2s-.1.2-.1.2v.4c0 .1 0 .2.1.2 0 .1.1.2.2.2.1.1.2.1.2.1.1 0 .2 0 .2-.1s.1-.1.2-.2c0-.1.1-.2.1-.2v-.6c0-.1-.1-.2-.1-.2 0-.1-.1-.1-.2-.2-.1.1-.1.1-.2.1zm3.4-.5l.1-.5v-.2c0-.1 0-.1.1-.2l.1-.1h.2c.1 0 .2 0 .2.1.1.1.1.2.1.3v.4h.2c.1 0 .2 0 .2.1.1 0 .1.1.1.2s0 .2-.1.2-.1.1-.2.1h-.2v1.2l.1.1h.5s.1 0 .1.1v.1c0 .1 0 .1-.1.2 0 0-.1.1-.2.1h-.4c-.1 0-.2 0-.3-.1-.1 0-.2-.1-.2-.2s-.1-.2-.2-.2c0-.1-.1-.2-.1-.4v-1h.1c-.1 0-.2 0-.2-.1-.1 0-.1-.1-.1-.2s0-.2.1-.2.1-.1.2-.1h.1v.3zm1.5 1.2c0-.2 0-.3.1-.5s.2-.2.2-.4c.1-.1.2-.2.4-.2.2-.1.3-.1.6-.1.2 0 .4 0 .6.1s.3.2.4.2c.1.1.2.2.2.4a.9.9 0 0 1 .1.5c0 .2 0 .3-.1.5s-.2.2-.2.4c-.1.1-.2.2-.4.2-.2.1-.3.1-.6.1-.2 0-.4 0-.6-.1s-.3-.2-.4-.2c-.1-.1-.2-.2-.2-.4s-.1-.3-.1-.5zm.8 0v.2c0 .1.1.2.1.2 0 .1.1.1.2.2.1 0 .2.1.2.1.1 0 .2 0 .2-.1.1 0 .1-.1.2-.2s.1-.2.1-.2v-.5c0-.1-.1-.2-.1-.2 0-.1-.1-.2-.2-.2s-.2-.1-.2-.1-.2 0-.2.1l-.2.2c0 .1-.1.2-.1.2v.3zm3.7-.5c0-.2 0-.5.1-.7l.3-.6c.2-.2.3-.2.5-.3s.4-.1.7-.1h.5c.2 0 .2.1.3.1s.2.1.2.2.1.1.1.2v.1l-.1.1s-.1 0-.1.1h-.2c-.1 0-.1 0-.2-.1h-.6c-.1 0-.2 0-.3.1-.1 0-.2.1-.2.2-.1.1-.2.2-.2.3-.1.2-.1.3-.1.6a.9.9 0 0 0 .1.5c0 .2.1.2.2.3l.2.2c.1.1.2.1.3.1h.2c.1 0 .1 0 .2-.1.1 0 .2 0 .2-.1.1 0 .2-.1.2-.1h.2s.1 0 .1.1c0 0 0 .1.1.1v.1c0 .1 0 .1-.1.2 0 .1-.1.1-.2.2-.1 0-.2.1-.2.1-.1 0-.2.1-.2.1s-.2 0-.2.1c-.1.1-.2 0-.2 0-.2 0-.4 0-.7-.1-.2-.1-.3-.2-.5-.3s-.2-.3-.3-.6c-.1-.5-.1-.7-.1-1zm4.8.1c0-.2 0-.2-.1-.2-.1-.1-.2-.1-.2-.1h-.9c-.1 0-.1 0-.2-.1s-.1-.1-.1-.2 0-.1.1-.2l.1-.1c.1 0 .1-.1.2-.1s.2 0 .2-.1.2 0 .2 0h.2c.2 0 .2 0 .4.1s.2.1.3.2.2.2.2.3c.1.1.1.2.1.5v1.1c0 .1 0 .1-.1.2 0 .1-.1.1-.1.1h-.2c-.1 0-.2 0-.2-.1-.1-.1-.1-.2-.1-.3 0 .1-.1.2-.2.2s-.1.1-.2.2c-.1 0-.2.1-.2.1h-.2c-.1 0-.2 0-.3-.1-.1 0-.2-.1-.2-.2s-.1-.2-.2-.2c0-.1-.1-.2-.1-.2 0-.2 0-.2.1-.3l.2-.2c.1-.1.2-.1.4-.2s.3-.1.6-.1h.5zm0 .5h-.3c-.1 0-.2 0-.2.1-.1 0-.2.1-.2.1-.1.1-.1.1-.1.2v.2l.2.2h.4s.1-.1.2-.1c.1-.1.1-.1.1-.2v-.2l-.1-.3zm1.9.6c0 .2 0 .2-.1.3s-.2.1-.3.1-.2 0-.2-.1c-.1-.1-.1-.2-.1-.3v-1.7c0-.1.1-.1.1-.1l.1-.1h.2c.1 0 .2 0 .2.1.1.1.1.2.1.3 0-.2.1-.2.2-.3s.2-.2.4-.2h.2s.1 0 .1.1l.1.1v.1c0 .1 0 .2-.1.2-.1.1-.2.1-.2.1h-.2c-.1 0-.1.1-.2.1s-.1.1-.1.2v.2l-.2.9z"/><path d="M346.8 290.6l.1-.5v-.2c0-.1 0-.1.1-.2l.1-.1h.2c.1 0 .2 0 .2.1.1.1.1.2.1.3v.4h.2c.1 0 .2 0 .2.1.1 0 .1.1.1.2s0 .2-.1.2-.1.1-.2.1h-.2v1.2l.1.1h.5s.1 0 .1.1v.1c0 .1 0 .1-.1.2 0 0-.1.1-.2.1h-.4s-.2 0-.3-.1c-.1 0-.2-.1-.2-.2-.1-.1-.1-.2-.2-.2 0-.1-.1-.2-.1-.4v-1h-.1c-.1 0-.2 0-.2-.1-.1 0-.1-.1-.1-.2s0-.2.1-.2.1-.1.2-.1h.3v.3zm108 16.9h-58.3c-5.6 0-10.2-4.6-10.2-10.2v-75.5c0-5.6 4.6-10.2 10.2-10.2h58.3c5.6 0 10.2 4.6 10.2 10.2v75.5c-.1 5.7-4.6 10.2-10.2 10.2z"/></g><path d="M427.1 271.7c-4.2-.3-14.5.6-16.2.4-1.7-.1-4.7.7-1.7 1.4 0 0 3.9.4 7.1.4s6.2-.5 9.9-.4c3.6.1 5-1.5.9-1.8z" class="B"/><path d="M418.3 272.1l-6.1.6.1.1s1 .3 4.2.4c3.2 0 7.6.3 7.4-.2-.2-.7-4.1-1.1-5.6-.9z" class="B"/><path fill="#8bc53f" d="M427.5 239.8c-.6-.7-.1-2-.1-2-.3-.1-1.6-.1-1.6-.1-.5 5.1-1.4 6.4-1.4 6.4s2.1 1.4 2.1 0 .7-3.8.7-3.8c.2 0 1.2.7 1.2.7.2-.2.2-.3.2-.3s-.5-.2-1.1-.9z"/><path fill="#71a133" d="M427.1 239.8s-.1.2-.2.2c0 0-.2-.1-.2-.7s.1-1.5.1-1.5h-.1s-.5 4.3-1.2 5.7l.5.2 1-3.5c0-.1.1-.1.2-.1h.1l1 .6.1-.1c-.3.1-1.2-.4-1.3-.8z"/><path fill="#c7f283" d="M425.9 237.8c-.2 3.7-.8 5.2-.8 5.2h.1c.9-2 .8-5.1.7-5.2h0z"/><path fill="#71a133" d="M425.9 237.8s1.2.1 1.2 0c.1 0-1.1 0-1.2 0z"/><path d="M427.5 240.3c0 .1.1.1 0 0 0 .1 0 .1 0 0zm-.3-.2h0c-.1 0-.1.2-.1.2h-.7c-.1 0-.7-.2-.7-.2h-.2s0 .1.1.1c0 0 .8.2 1.1.2h.5s.2 0 .2.1c-.1-.1-.2-.1-.2-.2v-.2z" fill="#628c2c"/><g fill="#448009"><use xlink:href="#Y"/><use xlink:href="#Y"/></g><path fill="#315c06" d="M424.6 243.2c.2.2.5.4.8.6 0 0 4.2.3 2.6 7-1.7 6.6.1 15.8-3.6 18.3-3.7 2.6-5.6 4.2-9.1 3.4.2.2.4.2.5.3.3.2.9.2.9.2 6.6.7 11.5-3.2 11.8-7.8.3-4.7 0-8.2.7-12.1.7-3.8.6-6.4-1-8.4-.7-.9-2.1-1.5-3.6-1.5z" class="K"/><path d="M424.6 243.2s2.5.9 1.2 5.8-3.7 13.9-6.9 12.7-6.7-1.8-7.8 3.2c-.1.4-.2.8-.2 1.2.6 4 4.7 6.4 5.1 6.6.3.2.9.2.9.2 6.6.7 11.5-3.2 11.8-7.8.3-4.7 0-8.2.7-12.1.7-3.8.6-6.4-1-8.4-.9-.8-2.3-1.4-3.8-1.4z" class="B"/><g class="D"><path d="M420.2 249.1c-.8 3.1-5.1 9.1-3.6 9.6s4.8-6.4 5.6-9.1 3-3.3 3-3.3c-2.1-3.6-4.2-.2-5 2.8z" class="B"/><path d="M424.1 245.6s-1.5-1-2.4.7.1 2.1.8 1.3 2.5-1.8 1.6-2z" class="B"/></g><use xlink:href="#Z" class="B"/><use xlink:href="#a" class="B"/><use xlink:href="#b" class="B"/><use xlink:href="#a" x="-3.4" y="0.4" class="B"/><use xlink:href="#a" x="-0.8" y="2.5" class="B"/><use xlink:href="#c" class="B"/><use xlink:href="#a" x="-5.5" y="1.1" class="B"/><use xlink:href="#a" x="-5.7" y="-1.2" class="B"/><use xlink:href="#b" x="-5.9" y="2.3" class="B"/><use xlink:href="#a" x="-4.2" y="4.1" class="B"/><use xlink:href="#a" x="-1" y="4.2" class="B"/><use xlink:href="#d" class="B"/><use xlink:href="#e" class="B"/><use xlink:href="#a" x="-1.4" y="5.6" class="B"/><use xlink:href="#f" class="B"/><use xlink:href="#Z" x="5.4" y="0.5" class="B"/><use xlink:href="#g" class="B"/><use xlink:href="#c" x="2" y="-4.8" class="B"/><path d="M417.8 254.5c-.4-.1-.6-.3-.6-.2s.2.4.5.5.7-.2.7-.2c.1 0-.2.1-.6-.1z" class="B"/><use xlink:href="#g" x="-3.4" y="-4" class="B"/><path d="M423.6 254.6c-.4-.1-.6-.3-.6-.2s.2.4.5.5.7-.2.7-.2c0-.1-.3.1-.6-.1z" class="B"/><use xlink:href="#g" x="2.4" y="4.6" class="B"/><use xlink:href="#a" x="2.8" y="6.9" class="B"/><use xlink:href="#a" x="-0.6" y="9.7" class="B"/><use xlink:href="#Z" x="-3.9" y="9.6" class="B"/><use xlink:href="#a" x="-5.5" y="6.7" class="B"/><use xlink:href="#Z" x="0.5" y="8.5" class="B"/><use xlink:href="#h" class="B"/><use xlink:href="#b" x="-7.4" y="7" class="B"/><use xlink:href="#h" y="1.6" class="B"/><use xlink:href="#i" class="B"/><use xlink:href="#g" x="-10.3" y="4.3" class="B"/><use xlink:href="#a" x="-7.9" y="1.1" class="B"/><use xlink:href="#b" x="-2" y="8" class="B"/><use xlink:href="#j" class="B"/><use xlink:href="#a" x="-3.6" y="10.9" class="B"/><use xlink:href="#i" x="2.9" y="4.3" class="B"/><use xlink:href="#f" x="-10.8" y="7.9" class="B"/><path d="M414.3 269.8c-.4-.1-.6-.3-.6-.2s.2.4.5.5.7-.2.7-.2-.2.1-.6-.1z" class="B"/><use xlink:href="#Z" x="2.5" y="13.8" class="B"/><use xlink:href="#a" x="2.3" y="9.9" class="B"/><use xlink:href="#a" x="0.7" y="7.3" class="B"/><use xlink:href="#k" class="B"/><use xlink:href="#a" x="5.1" y="-2.3" class="B"/><use xlink:href="#e" x="1.6" y="-10.7" class="B"/><use xlink:href="#a" x="0.8" y="-5.5" class="B"/><use xlink:href="#a" x="-0.9" y="-8.5" class="B"/><use xlink:href="#Z" x="4" y="-7.4" class="B"/><use xlink:href="#a" x="4.5" y="-8.9" class="B"/><use xlink:href="#a" x="5" y="-7.3" class="B"/><use xlink:href="#l" class="B"/><use xlink:href="#Z" x="8.4" y="-5.1" class="B"/><use xlink:href="#i" x="16.7" y="-14.6" class="B"/><use xlink:href="#a" x="6" y="-11.2" class="B"/><use xlink:href="#l" x="-2" y="-6.4" class="B"/><use xlink:href="#i" x="7.8" y="-12.7" class="B"/><use xlink:href="#d" x="-5.6" y="3.4" class="B"/><use xlink:href="#i" x="12.3" y="5.6" class="B"/><use xlink:href="#j" x="3.9" y="-1.5" class="B"/><use xlink:href="#a" x="-2.9" y="14.3" class="B"/><use xlink:href="#g" x="-3.4" y="13.6" class="B"/><use xlink:href="#k" x="1.8" y="7.6" class="B"/><use xlink:href="#g" x="3.9" y="6.6" class="B"/><use xlink:href="#a" x="5.8" y="2.9" class="B"/><use xlink:href="#d" x="4.1" y="-1.1" class="B"/><use xlink:href="#l" x="0.7" y="3.5" class="B"/><path d="M421.5 253.6c-.2-.1-.3-.2-.3-.1s.1.2.2.2.3-.1.3-.1c.1 0 0 0-.2 0z" class="B"/><use xlink:href="#m" class="B"/><path d="M415.9 262.2c-.2-.1-.3-.2-.3-.1s.1.2.2.2.3-.1.3-.1c.2.1 0 .1-.2 0zm8.8 4.9c-.2-.1-.3-.2-.3-.1s.1.2.2.2.3-.1.3-.1c.1 0-.1 0-.2 0z" class="B"/><use xlink:href="#n" class="B"/><path d="M425.7 256.5c-.2-.1-.3-.2-.3-.1s.1.2.2.2c.2 0 .3-.1.3-.1.1 0-.1.1-.2 0zm1.2-2c-.2-.1-.3-.2-.3-.1s.1.2.2.2.3-.1.3-.1c.1.1 0 .1-.2 0z" class="B"/><use xlink:href="#o" class="B"/><use xlink:href="#n" x="-0.6" y="-14.4" class="B"/><use xlink:href="#o" x="-0.4" y="-3.1" class="B"/><use xlink:href="#o" x="-0.8" y="-5.3" class="B"/><path d="M424.2 245.4c-.2-.1-.3-.2-.3-.1s.1.2.2.2.3-.1.3-.1c.2 0 .1.1-.2 0zm-6.3 19.9c-.2-.1-.3-.2-.3-.1s.1.2.2.2.3-.1.3-.1c.2 0 .1 0-.2 0zm-1.3 3.3c-.2-.1-.3-.2-.3-.1s.1.2.2.2.3-.1.3-.1c.1 0 0 .1-.2 0z" class="B"/><use xlink:href="#m" x="-0.9" y="11.4" class="B"/><path fill="#4c8016" d="M431.6 240.9c-1.9-1.3-3.3-.1-3.3-.1-1.7 6 6.6 6.1 6.6 6.1-2.7-1.3-1.4-4.7-3.3-6z"/><path fill="#5a981a" d="M431.6 240.9c-1.9-1.3-3.3-.1-3.3-.1s1.9.8 3 3.1c1.1 2.2 3.5 3 3.7 3-2.8-1.3-1.5-4.7-3.4-6z"/><path d="M433 245.6c-.4-.1-.8-.3-.6-.5.2-.1.7.2.7.2s.2-.4-.5-.6c-.6-.2-1.2-.5-1.2-.7.2-.2 1-.1 1.2.1s.1-.9-.6-1-1.2.2-1.2-.2c-.2-.4.7-.6 1-.4.2.2.4-.5-.2-.7-.5-.2-.8-.2-1.2-.2-.4.1-.6-.7-.1-.7l.9.2s-.7-.7-1.3-.5c-.7.3-.5.3-.8.2s-.3.2-.3.2-.2 1.1-.1 1.7.2 1.2.6 1.4c0 0-.1-1.3.2-1.7.3-.2.6-.2.4.2-.1.4-.5 1.8.1 2.3s.8.6.8.6-.7-.9-.3-1.2c.2-.3.5-.4.5-.1s-.1 1.3.6 1.7l.8.3c-.2-.1-.7-.3-.7-.8 0-.4.3-.3.3-.2 0 .2.4.8.7.9s-.3-.5-.2-.5.6-.1.8.2c.3.4.2-.1-.3-.2z" class="B"/><g fill="#83c341"><path d="M430.6 242.7s-.7-1.6-2.2-1.9v.2c0 0 1.2.2 2.2 1.7.9 1.6 1.9 3.4 4.1 4.2-.7-.2-2.4-1.1-4.1-4.2z"/><path d="M434.5 246.8c.1 0 .2.1.2.1-.1 0-.1 0-.2-.1z"/></g><path d="M439.5 275.5c-3.8.1-16.9-1.2-13.5 1.3 0 0 2.3 1.3 5.7 1.2 3.4-.2 10.1.3 11.1-.2s.5-2.4-3.3-2.3z" class="B"/><path d="M437 275.8c-4.4-.3-9.6 0-9.6.3v.2s2.6.8 5 .7 8.1.5 8.6.2c.2-.1.4-1.1-4-1.4z" class="B"/><path fill="#bfcf4a" d="M436.8 255.9c-.7-3.6-1.8-5.7-4.1-6.9-2.2-1.1-6.7.2-6.6 3.9.2 3.7-1 7.5-1 7.5-1.2 5-2.8 8-1.1 11.8s7.1 4.5 7.6 4.6c.4.1.9-.2.9-.2 6.4-1.9 9.5-7 8-11.1s-2.9-6.1-3.7-9.6z"/><path fill="#f7f0a0" d="M436.5 256.4c-.7-3.3-1.7-5.4-3.8-6.4-2-1-6.2.2-6.1 3.7.1 3.4-1 6.9-1 6.9-1.1 4.7-2.6 7.4-1 11s6.6 4.2 7 4.2c.3.1.8-.1.8-.1 6-1.7 8.8-6.5 7.5-10.4-1.4-3.9-2.8-5.6-3.4-8.9z"/><path d="M434.8 256.9c-.5-2.5-1.1-2.8-2.6-3.6-1.4-.7-4.5.2-4.4 2.7s-.7 4.7-.7 4.7c-.8 3.4-1.9 5.5-.7 8.1 1.2 2.7 4.8 3.1 5.1 3.2.2.1.6-.1.6-.1 4.3-1.3 6.4-4.7 5.4-7.6l-2.7-7.4z" class="D"/><path d="M429.6 257.9s-2.7 1.9-2.2 6.8c0 0 .4 4.6 5.1 3.9s3.7-5 3.7-5.7c-.2-.8-1.3-6.9-6.6-5z" class="B"/><path fill="#d96b36" d="M430.8 257.3c-2.3.3-3.6 4.7-3.5 5.6.4 2.7 1.4 5.9 5.1 5.3s3.7-3.8 3.3-6.6c-.2-1.6-2.6-4.6-4.9-4.3z"/><path fill="#ba5c2e" d="M432.7 266.4c-3.7.6-4.7-2.3-5.1-5v-.3c-.2.8-.3 1.5-.3 1.8.4 2.7 1.4 5.9 5.1 5.3 2.7-.4 3.4-2.1 3.5-4.1-.4 1.2-1.4 2.1-3.2 2.3z"/><g class="C"><defs><path id="AN" d="M435.7 261.7c.4 2.7.4 6.1-3.3 6.6-3.7.6-4.7-2.6-5.1-5.3-.2-1 1.2-5.3 3.5-5.6 2.3-.4 4.7 2.6 4.9 4.3z"/></defs><clipPath id="AO"><use xlink:href="#AN"/></clipPath><g clip-path="url(#AO)" fill="#ba5c2e"><path d="M430.6 266.6h0c-.2-.2-.3-.2-.3-.4s.1-.2.2-.2.2-.1.2-.2c.1-.1.1-.1.1-.2s-.2-.2-.2-.3c-.2-.1-.2-.2-.3-.4 0-.2.1-.2.2-.3.2-.1.3-.2.2-.5s-.3-.5-.6-.7c-.2-.2-.5-.4-.6-.7-.1-.2 0-.3.1-.6s.2-.4.1-.7c-.2-.2-.4-.3-.7-.4-.1 0-.1-.1-.2-.1s-.1-.1-.2-.1c-.2-.1-.5-.2-.6-.3s-.1-.2-.1-.4c0-.1 0-.2-.1-.2h-.1c0 .1 0 .2.1.2 0 .2.1.3.1.4.1.2.3.3.6.4.1 0 .1.1.2.1s.1.1.2.1c.2.1.5.2.7.4s.1.5-.1.7c-.1.2-.2.3-.2.6.1.3.3.5.6.7.2.2.5.3.6.7.1.2-.1.3-.2.4-.2.1-.2.2-.2.3s.2.3.3.4l.2.2c0 .1 0 .1-.1.2s-.2.1-.2.2c-.2.1-.2.1-.3.3 0 .2.1.3.2.4h0c.3-.1.3 0 .4 0 .2.2.5.4.4.7 0 .1 0 .1-.1.2s-.2.1-.3.1c-.2 0-.4 0-.4.2s.2.6.4.7v-.1c-.2 0-.3-.4-.3-.6s.2-.2.4-.2c.1 0 .2 0 .3-.1l.2-.2c-.1-.3-.5-.5-.6-.7z"/><path d="M436.2 262.4s0 .1 0 0c-.2.2-.3.3-.7.3-.2 0-.5-.1-.7-.2l-.4-.2c-.3-.1-.7 0-1.1.1h-.2c-.2.1-.5.2-.7.2-.3.2-.6.3-.9.3-.2 0-.2-.1-.4-.2l-.4-.4h-.4c-.1 0-.2-.1-.2-.1s-.1 0-.1-.1c-.1-.1-.2 0-.3 0s-.2.1-.3 0c-.2 0-.3-.1-.4-.2-.2-.2-.4-.2-.7-.2-.1 0-.1 0-.2.1-.2.1-.3.2-.5.1-.1 0-.2-.1-.2-.2-.1-.1-.1-.2 0-.3h0c-.1.1-.1.2 0 .3s.1.2.2.2c.2.1.3 0 .5-.1.1 0 .1-.1.2-.1.2-.1.4.1.7.2.2.1.2.2.4.2h.3c.1 0 .2-.1.3 0 0 0 .1 0 .1.1.1 0 .2.1.2.1h.4l.2.2c.1.1.1.2.2.2.2.1.3.2.4.2.3 0 .7-.2 1-.3.2-.1.4-.2.7-.2h.2c.3-.1.7-.2 1.1-.1.2 0 .2.1.4.2s.5.2.7.2h.2c.1.2.2 0 .4-.3 0 .1 0 .1 0 0l.2-.2v-.1c0 .2-.1.3-.2.3z"/><path d="M435.5 261.2h-.4c-.3 0-.9.1-1 .5-.1.2 0 .5.1.7 0 .1 0 .2.1.2 0 .2.1.3.1.5.1.2.1.5.2.7 0 .2-.2.3-.5.3h-.3c-.7.1-1.5.2-2 .7-.3.3-.3.8-.2 1.3.1.4.1.7 0 1.1-.1.2-.2.3-.4.5l-.1.1s-.1 0-.1.1c-.2.2-.6.4-.6.7h.1c0-.2.3-.5.6-.7 0 0 .1 0 .1-.1l.1-.1c.2-.2.3-.2.4-.5.2-.3.1-.7 0-1.1-.1-.5-.2-1 .2-1.3.5-.4 1.3-.6 2-.7h.3c.2 0 .6-.1.6-.4 0-.2-.1-.5-.2-.7 0-.2-.1-.3-.1-.5 0-.1 0-.2-.1-.2-.1-.2-.1-.5-.1-.7.1-.3.7-.4 1-.4h.2c-.1.1-.1.1 0 0 .2 0 .6-.1.7 0h0c-.1-.2-.5-.1-.7 0z"/><path d="M436 266.8c.1.2-.2.3-.2.3-.2.1-.7.2-.9-.1l-.2-.2c-.1-.2-.2-.2-.4-.3-.2-.2-.6-.1-.8.2 0 0 0 .1-.1.1-.1.1-.2.2-.2.1-.2-.1-.2-.2-.2-.4v-.1c0-.2 0-.5-.2-.6-.1-.1-.2-.1-.2-.1s-.2.1-.2.2v.2c0 .2 0 .2-.2.2s-.2 0-.2-.1v-.4c0-.3 0-.7-.2-.8-.1 0-.2 0-.2.1 0 0-.1 0-.1.1-.2.1-.2.1-.3 0-.2-.1-.2-.2-.4-.2-.2-.2-.5-.4-.9-.2h0c0 .2.1.2.2.4.1.1.2.2.2.4s-.2.2-.5.2h-.2c0 .2.2.3.2.4l.2.2c.2.2.3.3.3.6-.3.1-.6-.1-.8-.2s-.4-.2-.6-.2-.4.1-.5.2c-.1.2-.1.4 0 .6h0c-.1-.2-.1-.4 0-.6s.2-.2.4-.2.4.1.6.2a2.39 2.39 0 0 0 .9.2h0c.1-.2-.2-.5-.3-.7l-.2-.2c-.1-.1-.2-.2-.2-.3h.2c.2 0 .5-.1.5-.3s-.1-.2-.2-.4c-.1-.1-.2-.2-.2-.3.4-.1.6.1.8.2.1.1.2.2.4.2.2.1.2.1.4 0 0 0 .1 0 .1-.1.1 0 .1-.1.2-.1.2.1.2.4.2.7v.4c0 .1 0 .2.2.2s.2-.2.2-.3v-.2c0-.1.1-.1.2-.1h.2c.2.1.2.4.2.6h0v.1c0 .2 0 .3.2.4s.2 0 .3-.1c0 0 0-.1.1-.1.2-.2.5-.3.7-.2s.2.2.3.3l.2.2c.2.2.4.2.7.2.1 0 .2-.1.2-.1.2.1.3-.1.3-.2h0z"/><path d="M435.3 264.8c-.7-.1-.9.5-1.1 1.1v.1c0 .1 0 .2-.1.2 0 0-.1 0-.2-.1-.2-.1-.3-.5-.2-.7 0-.1.2-.2.2-.2.1-.1.2-.1.2-.2.1-.2-.2-.6-.4-.7-.1 0-.2-.1-.2-.1-.3-.2-.7-.3-.6-.7 0-.1.1-.2.2-.2l.2-.2c.2-.3-.2-.6-.4-.7l-.1-.1c-.5-.3-.9-.6-1.2-.7-.4-.2-.7-.3-1.2-.2s-.9.5-1.2.7l-.1.1c-.1 0-.1.1-.2.1l-.4.4c-.2.1-.4-.2-.7-.7-.2-.2-.2-.6-.2-.9.1-.2.2-.3.5-.4.2-.1.5-.1.7-.1s.5-.1.7-.1.3-.1.3-.2c.1-.2.1-.3-.1-.6-.1-.1-.2-.2-.2-.3-.1-.2-.2-.2-.2-.4-.1-.1-.1-.2-.2-.3l-.1-.1c-.1-.2-.3-.4-.2-.5l.1-.1v-.1c-.1 0-.1.1-.2.1-.1.2.2.4.2.6 0 .1.1.1.1.1.1.1.1.2.2.3.1.2.2.2.2.4.1.1.2.2.2.3.1.2.1.4.1.6-.1.1-.2.2-.3.2-.2.1-.5.1-.7.1s-.5.1-.7.1c-.2.1-.4.2-.5.4-.1.3 0 .7.2.9.2.3.5.7.7.7.1-.1.2-.2.2-.3.1-.1.1-.2.2-.2s.1-.1.2-.1.1-.1.1-.1c.3-.2.7-.6 1.2-.7.4-.1.8.1 1.2.2.4.2.7.4 1.2.7l.1.1c.2.2.6.4.4.7 0 .1-.1.2-.2.2l-.2.2c-.1.4.3.6.7.7.1 0 .2.1.2.1.2.1.5.4.4.6 0 .1-.2.2-.2.2-.2.1-.2.1-.3.2-.1.2.2.6.2.7.1.1.1.1.2.1h0c.1 0 .1-.1.1-.2v.2c.4-.7.5-1.2 1.2-1.2.4.1.7.5.8.9h.1c-.1-.4-.4-.8-.9-.9z"/><path d="M434.9 258.9c0 .2 0 .9-.2.9h0c-.1 0-.2-.1-.3-.2-.1 0-.1-.1-.1-.1-.6-.2-1-.3-1.3-.3h0c-.2 0-.6 0-.7.2 0 .2.1.3.2.4h0l.1.1c.2.3.6.7.5 1.2 0 .2-.1.2-.2.3-.1 0-.2.1-.2.1-.2.1-.3.1-.4.2-.1.2 0 .3.1.5h0c.1.1.1.2.2.3.2.2.2.6.3.8h0v.2h-.2c-.2 0-.2-.1-.2-.2-.1-.1-.2-.1-.2-.2h-.7c-.1-.2-.2-.3-.2-.5-.2-.2-.3-.5-.2-.7 0-.2.2-.2.3-.3h.1c.1 0 .1-.1.2-.1.2-.1.5-.2.6-.3 0-.1 0-.2-.1-.2-.1-.1-.1-.1-.2-.1s-.1-.1-.1-.2v-.6c-.1-.2-.2-.3-.2-.4-.2-.1-.5 0-.7.1s-.2.1-.4.1c-.3.1-.4.1-.6-.2-.1-.2-.2-.5-.2-.7.1-.2.2-.2.5-.2s.4 0 .5-.2h0c-.2-.2-.2-.4-.2-.7v-.1c.2-.1.2.1.3.2.2.3.4.7.9.5.1-.1.2-.1.2-.2 0-.2-.2-.4-.3-.6-.2-.2-.2-.4-.2-.7s.3-.4.7-.4v-.1c-.3 0-.6.2-.7.4s0 .5.2.7c.1.1.3.3.3.6 0 .1-.1.1-.2.2-.5.2-.7-.2-.9-.5-.1-.2-.2-.3-.4-.2h0v.1c0 .2 0 .5.2.7-.1.1-.3.1-.5.1s-.5 0-.6.2.1.6.2.7c.2.2.3.2.7.2.2 0 .2-.1.4-.1.2-.1.5-.2.7-.1.1.1.2.2.2.3v.6c0 .1.1.2.2.2l.1.1c.1.1.1.2.1.2-.1.2-.3.2-.5.3-.1 0-.2.1-.2.1h-.1c-.2.1-.2.2-.3.3 0 .2.1.4.2.7.1.2.2.3.2.4-.1 0-.2 0-.4-.1-.1 0-.2-.1-.3-.1-.3-.1-.7-.2-1.1-.2-.2.1-.2.2-.3.2 0 .1-.1.2-.1.2-.1.1-.2.1-.4.1h-.2c-.4 0-.7.1-.8.2-.2.2-.1.2-.1.4.1.2.5.8.7.7h0c.1 0 .2-.2.2-.2 0-.1.1-.1.1-.1.2-.2.2-.3.4-.3.2-.1.4-.1.6-.1.1 0 .2.1.3.2s.2.2.3.2c.2 0 .7-.4.9-.6s.2-.4.2-.6h.4c.1 0 .2-.1.3 0 .1 0 .2.1.2.2.1.1.2.2.3.2h.2v-.2c0-.3-.2-.6-.3-.9-.1-.1-.1-.2-.2-.3h0c-.1-.2-.2-.3-.1-.4s.2-.2.4-.2c.1 0 .2-.1.2-.1.2-.1.2-.2.2-.3 0-.5-.2-.9-.6-1.2l-.1-.1c-.1-.1-.2-.2-.2-.4.1-.2.4-.2.6-.2h0c.3 0 .7.1 1.3.3 0 0 .1 0 .1.1.2.1.2.2.3.2h0c.4.6.4-.2.3-.4h0zm-3.6 5.3c-.2.2-.7.6-.9.6-.1 0-.2-.1-.3-.2s-.2-.2-.3-.2c-.2 0-.4 0-.6.1s-.3.2-.5.4c0 0-.1.1-.1.2-.1.1-.1.2-.2.2h0c-.2 0-.6-.6-.7-.7-.1-.2-.1-.3 0-.4s.2-.1.4-.2h.6c.2 0 .3.1.4-.1.1-.1.1-.2.2-.2.1-.1.1-.2.2-.2.4-.1.7 0 1 .2.1 0 .2.1.3.1.2.1.2.1.4.1.3-.1.3.1.1.3z"/><path d="M434.5 260c-.1 0-.2-.1-.2-.1-.8-.4-1.2-.9-1.1-1.4.1-.2.2-.3.5-.4.1 0 .2 0 .3.1h0c-.1-.1-.2-.1-.4-.1-.2.1-.4.2-.5.4-.2.5.2 1 1.1 1.4.2.1.3.1.3.1.2.2.5.2.7.5.1.2.1.6-.1.7s-.5.1-.7 0c-.3-.1-.7-.2-.9.1-.2.2-.2.5-.2.7h0c0 .4.2.8.3 1.2 0 .1.1.2.1.2.1.2.2.4.1.7-.1.2-.3.4-.5.6-.1.1-.2.2-.3.2-.4.4-.2 1 0 1.5.1.2.2.4.2.6h0c0 .1.1.3 0 .4-.2.2-.9.2-1.1.1-.7-.1-1.2-.5-1.5-1.2-.2-.6-.5-.6-1-.7h-.1c-.2 0-.5-.1-.7-.2-.1-.2-.1-.4-.1-.7v-.3c-.1-.4-.3-.3-.6-.3-.2 0-.3.1-.5 0s-.2-.2-.4-.4l-.2-.2c-.1-.1-.1-.1-.1-.2 0 0 0-.1.1-.1.2-.2.7-.1.9-.1.2.1.5.1.7.2l.1.1c.1.1.1.1.2.1.3.1.7-.2 1.1-.5.1-.1.2-.2.3-.2.5-.3 1-.6 1.4-.5.2 0 .4.2.6.3l.1.1c.2.2.4.3.5.6.3.6.1 1.1-.2 1.7-.1.2-.2.4-.2.6-.2.5-.2 1-.2 1.5h.1c-.1-.5 0-1 .2-1.5.1-.2.2-.4.2-.6.2-.5.5-1.1.2-1.7-.2-.2-.3-.4-.5-.6l-.1-.1c-.2-.2-.4-.3-.6-.3-.5-.1-1 .2-1.5.5-.1.1-.2.2-.3.2-.3.2-.7.6-1.1.5-.1 0-.2-.1-.2-.1l-.1-.1c-.2-.1-.4-.2-.7-.2-.2-.1-.7-.1-.9.1-.1.1-.1.1-.1.2s.1.2.1.2h0c.1.1.1.2.2.2.2.2.2.4.4.5a.9.9 0 0 0 .5.1c.2 0 .5-.1.6.2v.3c0 .2 0 .5.1.7.2.2.5.2.7.2h.1c.5.1.8.2 1 .7.2.7.7 1.1 1.5 1.2h.8c.2 0 .2-.1.3-.1.1-.1 0-.3 0-.4h0c-.1-.2-.2-.4-.2-.6-.2-.5-.4-1 0-1.4.1-.1.2-.2.3-.2.2-.2.5-.3.5-.6.1-.2 0-.5-.1-.7 0-.1-.1-.2-.1-.2-.2-.4-.2-.7-.3-1.2h0c0-.2 0-.5.2-.7s.5-.2.8-.1c.2.1.6.1.7 0 .2-.1.2-.5.1-.7-.1-.5-.3-.7-.6-.8z"/><path d="M436 264.1c-.3-.1-.7.2-.8.5-.1.2-.2.5-.2.7 0 .4-.1.7-.5 1-.1.1-.2.1-.3.1-.3.2-.7.2-.9.6-.1.1-.1.2-.1.4s0 .2-.1.3c-.1.2-.4.2-.7.2h-.2v.1h.5c.2 0 .3-.1.5-.2.1-.1.1-.2.1-.4s0-.3.1-.4c.2-.3.5-.4.8-.6.1 0 .2-.1.3-.1.4-.2.5-.6.5-1 0-.2 0-.5.2-.7.3-.3.5-.5.8-.5.3.1.9.4.9.7h.1c0-.3-.6-.6-1-.7zm-.2-2.7c-.1.1-.2.1-.2.2-.3.3-.6.5-.8.7-.3.2-.6.7-.7 1.2v.1c-.1.2-.2.5-.3.7-.2.2-.3.2-.6.2-.1 0-.1 0-.2.1-.2.1-.3.1-.5.1s-.3.1-.5.1c-.2.1-.2.2-.4.2l-.3.3c-.2.2-.4.2-.4.5v.2c0 .1 0 .2-.2.2-.2.2-.3.2-.6.2-.2 0-.3.1-.4.2-.7.3-.5 1.2-.4 1.7v.1h.1v-.1c-.1-.6-.2-1.4.4-1.7l.4-.2c.2-.1.4-.1.6-.2s.2-.2.2-.3v-.2c.1-.2.2-.3.4-.5l.3-.3c.1-.1.2-.2.3-.2.2-.1.3-.1.5-.1s.3-.1.5-.1c.1 0 .1 0 .2-.1.2-.1.4-.2.6-.2.2-.2.2-.5.3-.7v-.1c.2-.5.4-.8.7-1.1.2-.2.5-.4.8-.7l.2-.2c.2-.2.5-.4.6-.7h-.1c-.1.3-.3.5-.5.7zm-2.1-3.9c-.2 0-.3 0-.5.1-.3.1-1.1.5-1.1.9 0 .2.1.4.2.6s.2.3.2.5h-.2c-.2.1-.5.1-.7.1-.3 0-.7-.2-1-.3-.2-.1-.2-.2-.2-.4 0-.1 0-.2-.1-.2-.1-.2-.4-.7-.7-.7-.2-.1-.2 0-.4 0h-.1c-.2 0-.2.1-.3.2l-.2.2c.1-.1.2-.1.2-.2.1-.1.2-.2.3-.2h.5c.2.1.6.4.7.7 0 .1 0 .2.1.2 0 .2 0 .3.2.4.2.2.7.3 1 .3h.4c.1 0 .2-.1.3-.1h.2c0-.2-.1-.3-.2-.6-.1-.2-.2-.4-.2-.6.1-.4.7-.8 1.1-.9h.7v-.1c-.1.1-.1.1-.2.1zm2.7 2.4c-.4.1-.7.2-1 .5-.2.2-.4.3-.7.4-.3.2-.7.1-1 0-.2 0-.2-.1-.4-.1-.3-.1-.7.1-1 .3l-.2.2c-.2.2-.5.7-.8.6-.2-.1-.2-.5-.2-.7v-.2c-.2-.9-.7-1.2-1.6-1.6-.2-.1-.6-.2-.8 0-.3.2-.7.5-.8.8h.1c.2-.4.5-.7.8-.8.2-.1.5-.1.7 0 .8.4 1.4.7 1.6 1.6v.2c0 .3.1.7.3.8h.2c.2 0 .5-.3.7-.6l.2-.2a1.93 1.93 0 0 1 1-.3c.2 0 .2.1.4.1.3.1.7.2 1 0 .2-.1.4-.2.7-.4 0-.2.4-.5.8-.6 0 .1 0 .1 0 0h0z"/></g></g><g class="D"><path d="M431.7 258.4c-1-.4-2 .7-1.5 4.3.6 3.7 4.9 2.6 4.7.1s-3.2-4.4-3.2-4.4z" class="B"/><path d="M432.1 260c-.5-.2-1 .3-.7 2.2.2 1.8 2.5 1.3 2.3 0-.1-1.3-1.6-2.2-1.6-2.2z" class="B"/><path d="M432.2 260.6c-.3-.2-.7.2-.5 1.4s1.6.8 1.5 0c0-.8-1-1.4-1-1.4z"/></g><path d="M413.7 227c0 .1 0 .1.1.2 0 .1.1.1.1.2s0 .1.1.2v.2c0 .1 0 .2-.1.2-.1.1-.1.2-.2.2s-.2.1-.2.2-.2.1-.2.1c-.1 0-.2 0-.2-.1-.1 0-.2-.1-.2-.2-.1-.1-.1-.2-.2-.2-.1-.1-.1-.2-.2-.4l-.2-.5h-2.4l-.2.5c-.1.2-.1.3-.2.4s-.1.2-.2.2c-.1.1-.2.1-.2.2-.1 0-.2.1-.2.1-.1 0-.2 0-.2-.1-.1 0-.2-.1-.2-.2l-.2-.2c-.1-.1-.1-.2-.1-.2v-.2c0-.1 0-.1.1-.2 0-.1 0-.1.1-.2 0-.1.1-.1.1-.2l1.2-3.1c.1-.2.2-.6.3-.7l.3-.6c.2-.2.2-.2.4-.3s.3-.1.6-.1c.2 0 .4 0 .5.1.2.1.2.2.4.3.2.2.2.3.3.6.1.2.2.5.3.8l.9 3zm-2.8-3.8l-.9 2.8h1.9l-1-2.8zm6.4 4.1c-.1.2-.2.3-.2.4-.1.1-.2.2-.2.3-.1.1-.2.2-.3.2s-.2.1-.4.1-.3 0-.4-.1-.2-.2-.3-.2c-.1-.1-.2-.2-.2-.4-.1-.2-.2-.3-.2-.6l-.7-1.8c0-.1-.1-.2-.1-.2l-.1-.2s0-.2.1-.2c0-.1.1-.2.2-.2.1-.1.1-.1.2-.1s.2-.1.2-.1.2 0 .2.1.2.2.2.2c.1.1.2.2.2.3.1.1.1.2.1.3l.7 2.2.7-2.3c0-.1.1-.2.1-.3.1-.1.1-.2.2-.2l.2-.2c.1 0 .2-.1.2-.1h.2c.1 0 .2.1.2.1l.2.2c.1.1.1.2.1.2s0 .2-.1.2c0 .1-.1.2-.1.2-.2.4-.2.7-.4 1.1-.2.3-.4.7-.5 1.1zm1.4-1.2c0-.3.1-.6.2-.8s.2-.5.4-.7.4-.3.7-.5.7-.2 1-.2c.4 0 .7.1 1 .2.2.1.5.2.7.5.2.2.3.4.4.7a2.39 2.39 0 0 1 .2.9c0 .3-.1.6-.2.8s-.2.5-.4.7-.4.3-.7.5c-.3.1-.7.2-1 .2-.4 0-.7-.1-1-.2s-.6-.2-.7-.5c-.2-.2-.3-.4-.4-.7a2.39 2.39 0 0 1-.2-.9zm1.4 0a.9.9 0 0 0 .1.5c0 .2.1.3.2.4.1.2.2.2.3.3s.2.1.4.1.3 0 .4-.1.2-.2.3-.2c.1-.1.2-.2.2-.4s.1-.3.1-.6c0-.2 0-.3-.1-.5 0-.2-.1-.3-.2-.4l-.3-.3c-.2-.1-.2-.1-.4-.1s-.3 0-.4.1l-.3.3c-.1.2-.2.2-.2.4-.1.1-.1.3-.1.5zm3.9-.1c0-.3.1-.6.2-.9.1-.2.2-.5.5-.7.2-.2.4-.3.7-.4a2.39 2.39 0 0 1 .9-.2c.2 0 .3 0 .5.1.2 0 .3.1.5.2s.2.2.3.2c.1.1.2.2.2.3s0 .2-.1.3-.2.1-.3.1h-.2c-.1 0-.2 0-.2-.1-.1 0-.2 0-.2-.1s-.2 0-.2 0c-.2 0-.2 0-.4.1s-.2.1-.3.2c-.1.2-.2.2-.2.3-.1.2-.1.3-.1.5s0 .3.1.4l.2.4c.1.2.2.2.3.2s.2.1.5.1h.2s.2 0 .2-.1c.1 0 .2 0 .2-.1h.2s.2 0 .3.1.1.2.1.2c0 .1-.1.2-.2.3s-.2.2-.3.2c-.2.1-.3.1-.5.2-.2 0-.4.1-.6.1s-.6-.1-.8-.2-.5-.2-.7-.4-.3-.4-.5-.7c-.2.2-.3-.1-.3-.6zm7.1-.5c0-.2-.1-.4-.2-.5-.2-.1-.3-.2-.5-.2h-.3c-.1 0-.2 0-.3.1-.1 0-.2.1-.2.1-.1 0-.2.1-.2.1h-.2c-.1 0-.2 0-.2-.1-.1-.1-.1-.2-.1-.2s0-.2.1-.2l.2-.2c.1-.1.2-.1.3-.2.1 0 .2-.1.4-.1s.2 0 .4-.1h.4c.2 0 .5 0 .7.1l.6.3c.2.2.2.3.4.6s.2.5.2.8v2c0 .1-.1.2-.1.2-.1.1-.1.2-.2.2-.1.1-.2.1-.3.1a.76.76 0 0 1-.4-.2c-.1-.1-.2-.3-.2-.6-.1.2-.2.2-.2.3-.1.1-.2.2-.3.2l-.4.2c-.2 0-.2.1-.4.1s-.4 0-.6-.1-.3-.2-.4-.2c-.1-.1-.2-.2-.2-.4-.1-.2-.1-.3-.1-.5s.1-.5.2-.7.2-.3.5-.4c.2-.1.4-.2.7-.2.3-.1.7-.1 1-.1h.4v-.2h-.5zm0 .7h-.6c-.2 0-.3.1-.5.1-.2.1-.2.1-.3.2-.1.2-.2.2-.2.4 0 .1 0 .2.1.2 0 .1.1.2.2.2s.2.1.2.1c.1 0 .2.1.2.1.2 0 .2 0 .3-.1s.2-.1.2-.2c.1-.1.2-.2.2-.3.1-.2.1-.2.1-.4l.1-.3zm5.2-3.3c0-.2.1-.5.2-.6.1-.2.2-.2.5-.2s.4.1.5.2c.1.2.2.3.2.6v4.5c0 .2-.1.5-.2.6-.1.2-.2.2-.5.2s-.4-.1-.5-.2c-.1-.2-.2-.3-.2-.6-.2.3-.4.5-.7.7-.2.2-.6.2-.9.2-.2 0-.5-.1-.7-.2s-.4-.2-.5-.5c-.2-.2-.2-.4-.3-.7-.1-.2-.1-.6-.1-.8 0-.3 0-.6.1-.9.1-.2.2-.5.3-.7.2-.2.3-.3.5-.4s.4-.2.7-.2.6.1.8.2c.2.2.5.3.7.6l.1-1.8zm-.9 1.8c-.2 0-.3 0-.4.1l-.2.2-.2.4c0 .2-.1.3-.1.5v.5c0 .2.1.3.2.4.1.2.2.2.2.3s.2.2.4.2.3 0 .4-.1.2-.2.3-.2c.1-.1.2-.2.2-.4s.1-.4.1-.7c0-.2 0-.4-.1-.6 0-.2-.1-.3-.2-.4l-.2-.2h-.4zm3 1.4c0-.3.1-.6.2-.8s.2-.5.4-.7.4-.3.7-.5.7-.2 1-.2c.4 0 .7.1 1 .2.2.1.5.2.7.5.2.2.3.4.4.7s.2.6.2.9-.1.6-.2.8-.2.5-.4.7-.4.3-.7.5c-.3.1-.7.2-1 .2-.4 0-.7-.1-1-.2s-.6-.2-.7-.5c-.2-.2-.3-.4-.4-.7a2.39 2.39 0 0 1-.2-.9zm1.5 0a.9.9 0 0 0 .1.5c0 .2.1.3.2.4.1.2.2.2.3.3s.2.1.4.1.3 0 .4-.1.2-.2.3-.2c.1-.1.2-.2.2-.4s.1-.3.1-.6c0-.2 0-.3-.1-.5 0-.2-.1-.3-.2-.4l-.3-.3c-.2-.1-.2-.1-.4-.1s-.3 0-.4.1l-.3.3c-.1.2-.2.2-.2.4-.1.1-.1.3-.1.5z" class="L"/><path fill="#c33" d="M442.4 297.4h-33.6c-1.6 0-2.9-1.3-2.9-2.9v-5.2c0-1.6 1.2-2.9 2.9-2.9h33.6c1.6 0 2.9 1.3 2.9 2.9v5.2c0 1.7-1.3 2.9-2.9 2.9z" class="K"/><g class="D"><path d="M415.5 292.4h0v.6c0 .1-.1.1-.1.1l-.1.1h-.4c-.1 0-.1-.1-.1-.1s-.1-.1-.1-.2-.1-.2-.1-.2l-.1-.3h-1.3l-.1.3c0 .1-.1.2-.1.2s-.1.1-.1.2l-.1.1h-.4c-.1 0-.1 0-.1-.1l-.1-.1v-.6l.6-1.7c.1-.2.1-.3.2-.4s.1-.2.2-.3l.2-.2s.2-.1.3-.1.2 0 .2.1c.1 0 .2.1.2.2.1.1.1.2.2.3s.1.2.2.5l1 1.6zm-1.5-2l-.5 1.5h1l-.5-1.5zm3.7-.2c0-.2 0-.2.1-.3s.2-.1.2-.1c.2 0 .2 0 .3.1s.1.2.1.3v2.4c0 .2 0 .2-.1.3s-.2.1-.3.1-.2 0-.2-.1c-.1-.1-.1-.2-.1-.3-.1.2-.2.3-.3.3a.9.9 0 0 1-.5.1c-.2 0-.2 0-.4-.1l-.2-.2c-.1-.1-.2-.2-.2-.4-.1-.2-.1-.3-.1-.5s0-.3.1-.5.1-.2.2-.3.2-.2.3-.2c.2-.1.2-.1.4-.1a.9.9 0 0 1 .5.1c.2.1.2.2.3.3l-.1-.9zm-.5 1c-.1 0-.2 0-.2.1-.1 0-.1.1-.2.2 0 .1-.1.2-.1.2v.4s0 .2.1.2c.1.1.1.2.2.2s.2.1.2.1.2 0 .2-.1c.1 0 .1-.1.2-.2 0-.1.1-.2.1-.2v-.6c0-.1-.1-.2-.1-.2 0-.1-.1-.1-.2-.2-.1.1-.1.1-.2.1zm3.4-1c0-.2 0-.2.1-.3s.2-.1.2-.1c.2 0 .2 0 .3.1s.1.2.1.3v2.4c0 .2 0 .2-.1.3s-.2.1-.3.1-.2 0-.2-.1c-.1-.1-.1-.2-.1-.3-.1.2-.2.3-.3.3-.2.1-.3.1-.5.1s-.2 0-.4-.1l-.2-.2c-.1-.1-.2-.2-.2-.4-.1-.2-.1-.3-.1-.5s0-.3.1-.5.1-.2.2-.3.2-.2.3-.2c.2-.1.2-.1.4-.1a.9.9 0 0 1 .5.1c.2.1.2.2.3.3l-.1-.9zm-.5 1c-.1 0-.2 0-.2.1-.1 0-.1.1-.2.2 0 .1-.1.2-.1.2v.4s0 .2.1.2c.1.1.1.2.2.2s.2.1.2.1.2 0 .2-.1c.1 0 .1-.1.2-.2 0-.1.1-.2.1-.2v-.6c0-.1-.1-.2-.1-.2 0-.1-.1-.1-.2-.2 0 .1-.1.1-.2.1z"/><use xlink:href="#O" x="181.6"/><path d="M425 291.9c0-.2 0-.3.1-.5s.2-.2.2-.4c.1-.1.2-.2.4-.2.2-.1.3-.1.6-.1.2 0 .4 0 .6.1s.3.2.4.2c.1.1.2.2.2.4s.1.3.1.5 0 .3-.1.5-.2.2-.2.4c-.1.1-.2.2-.4.2-.2.1-.3.1-.6.1s-.4 0-.6-.1-.3-.2-.4-.2c-.1-.1-.2-.2-.2-.4 0-.1-.1-.3-.1-.5zm.8 0v.2l.1.2c0 .1.1.1.2.2.1 0 .2.1.2.1s.2 0 .2-.1c.1 0 .1-.1.2-.2s.1-.2.1-.2v-.5c0-.1-.1-.2-.1-.2 0-.1-.1-.2-.2-.2s-.2-.1-.2-.1-.2 0-.2.1c-.1 0-.1.1-.2.2 0 .1-.1.2-.1.2v.3zm3.7-.5c0-.2 0-.5.1-.7l.3-.6c.2-.2.3-.2.5-.3s.4-.1.7-.1h.5c.2 0 .2.1.3.1s.2.1.2.2c.1.1.1.1.1.2v.1l-.1.1s-.1 0-.1.1h0-.2c-.1 0-.1 0-.2-.1h-.6c-.1 0-.2 0-.3.1-.1 0-.2.1-.2.2s-.2.2-.2.3c-.1.2-.1.3-.1.6a.9.9 0 0 0 .1.5c0 .2.1.2.2.3l.2.2s.2.1.3.1h.2c.1 0 .1 0 .2-.1.1 0 .2 0 .2-.1.1 0 .2-.1.2-.1h.2s.1 0 .1.1c0 0 0 .1.1.1v.1c0 .1 0 .1-.1.2 0 .1-.1.1-.2.2-.1 0-.2.1-.2.1l-.2.1s-.2 0-.2.1c-.1.1-.2 0-.2 0-.2 0-.4 0-.7-.1-.2-.1-.3-.2-.5-.3-.2-.2-.2-.3-.3-.6-.3-.5-.1-.7-.1-1z"/><path d="M434.3 291.6c0-.2 0-.2-.1-.2-.1-.1-.2-.1-.2-.1h-.9c-.1 0-.1 0-.2-.1s-.1-.1-.1-.2 0-.1.1-.2l.1-.1c.1 0 .1-.1.2-.1s.2 0 .2-.1c.1-.1.2 0 .2 0h.2c.2 0 .2 0 .4.1s.2.1.3.2.2.2.2.3c.1.1.1.2.1.5v1.1c0 .1 0 .1-.1.2 0 .1-.1.1-.1.1h-.2c-.1 0-.2 0-.2-.1-.1-.1-.1-.2-.1-.3 0 .1-.1.2-.2.2s-.1.1-.2.2c-.1 0-.2.1-.2.1h-.2s-.2 0-.3-.1c-.1 0-.2-.1-.2-.2-.1-.1-.1-.2-.2-.2 0-.1-.1-.2-.1-.2 0-.2 0-.2.1-.3l.2-.2c.1-.1.2-.1.4-.2s.3-.1.6-.1h.5zm0 .4h-.3c-.1 0-.2 0-.2.1-.1 0-.2.1-.2.1-.1.1-.1.1-.1.2v.2l.2.2h.4s.1-.1.2-.1c.1-.1.1-.1.1-.2v-.2l-.1-.3zm1.9.7c0 .2 0 .2-.1.3s-.2.1-.3.1-.2 0-.2-.1c-.1-.1-.1-.2-.1-.3V291c0-.1.1-.1.1-.1l.1-.1h.2c.1 0 .2 0 .2.1.1.1.1.2.1.3 0-.2.1-.2.2-.3s.2-.2.4-.2h.2s.1 0 .1.1l.1.1v.1c0 .1 0 .2-.1.2-.1.1-.2.1-.2.1h-.2c-.1 0-.1.1-.2.1s-.1.1-.1.2v.2l-.2.9z"/><use xlink:href="#O" x="195.7"/></g><g fill="#36344b"><path d="M290.1 197.1c0 .8-.7 1.3-2.1 1.3h-2.7v-5h2.6c1.3 0 1.9.5 1.9 1.3 0 .5-.2.8-.7 1.1.7.3 1 .7 1 1.3zm-3.3-2.6v1h1c.5 0 .7-.2.7-.5s-.2-.5-.7-.5h-1zm1.9 2.4c0-.3-.2-.5-.7-.5h-1.2v1h1.2c.5 0 .7-.1.7-.5z"/><use xlink:href="#p"/><path d="M296 198l.5-1c.4.2 1.1.5 1.7.5s.8-.2.8-.4c0-.7-2.8-.2-2.8-2.1 0-.9.7-1.6 2.2-1.6.7 0 1.3.2 1.8.4l-.4 1.1c-.5-.2-.9-.4-1.4-.4-.6 0-.8.2-.8.4 0 .7 2.8.2 2.8 2 0 .8-.7 1.6-2.2 1.6-.9 0-1.7-.2-2.2-.5z"/><use xlink:href="#q"/><path d="M308.2 198l.5-1c.4.2 1.1.5 1.7.5s.8-.2.8-.4c0-.7-2.8-.2-2.8-2.1 0-.9.7-1.6 2.2-1.6.7 0 1.3.2 1.8.4l-.4 1.1c-.5-.2-.9-.4-1.4-.4-.6 0-.8.2-.8.4 0 .7 2.8.2 2.8 2 0 .8-.7 1.6-2.2 1.6-1 0-1.8-.2-2.2-.5z"/><use xlink:href="#p" x="22.2"/><path d="M318.6 193.5h1.4v3.8h2.3v1.1h-3.7v-4.9zm4.6 0h1.4v3.8h2.3v1.1h-3.7v-4.9zm4.7 0h1.4v5h-1.4v-5zm7.4 0v5h-1.1l-2.2-2.7v2.7h-1.4v-5h1.2l2.2 2.7v-2.7h1.3zm4.8 2.4h1.2v2.1c-.6.4-1.3.7-2.1.7-1.6 0-2.7-1.1-2.7-2.6s1.2-2.6 2.7-2.6c.9 0 1.7.3 2.2.9l-.9.8c-.3-.4-.7-.6-1.2-.6-.8 0-1.4.6-1.4 1.4s.6 1.4 1.4 1.4c.2 0 .5-.1.7-.2l.1-1.3zm9.3-.6c0 1.2-.8 1.8-2.2 1.8h-.8v1.3H345v-5h2.2c1.4.1 2.2.7 2.2 1.9zm-1.4 0c0-.5-.2-.7-.8-.7h-.7v1.4h.7c.5.1.8-.2.8-.7zm4.6 1.8h-.7v1.3h-1.4v-5h2.2c1.3 0 2.2.7 2.2 1.8 0 .7-.3 1.2-1 1.6l1.1 1.6h-1.5l-.9-1.3zm0-2.5h-.7v1.4h.7c.6 0 .8-.2.8-.7.1-.4-.2-.7-.8-.7zm3.2 1.4c0-1.5 1.2-2.6 2.7-2.6 1.6 0 2.7 1.1 2.7 2.6s-1.2 2.6-2.7 2.6c-1.6-.1-2.7-1.1-2.7-2.6zm4.1 0c0-.8-.6-1.4-1.3-1.4s-1.3.6-1.3 1.4.6 1.4 1.3 1.4 1.3-.6 1.3-1.4zm2.5-2.5h2.3c1.7 0 2.7 1 2.7 2.5s-1.2 2.5-2.7 2.5h-2.3v-5zm2.3 3.8c.8 0 1.4-.5 1.4-1.3s-.6-1.3-1.4-1.3h-.9v2.7l.9-.1zm3.9-1.1v-2.7h1.4v2.7c0 .8.3 1.2.9 1.2s.9-.3.9-1.2v-2.7h1.4v2.7c0 1.5-.8 2.3-2.3 2.3s-2.3-.8-2.3-2.3zm5.6-.2c0-1.5 1.2-2.6 2.7-2.6.9 0 1.7.3 2.2.9l-.9.8c-.3-.4-.7-.6-1.2-.6-.8 0-1.4.6-1.4 1.4s.6 1.4 1.4 1.4c.5 0 .8-.2 1.2-.6l.9.8c-.5.6-1.2.9-2.2.9-1.5.1-2.7-.9-2.7-2.4z"/><use xlink:href="#q" x="78.8"/><path d="M384.5 198l.5-1c.4.2 1.1.5 1.7.5s.8-.2.8-.4c0-.7-2.8-.2-2.8-2.1 0-.9.7-1.6 2.2-1.6.7 0 1.3.2 1.8.4l-.4 1.1c-.5-.2-.9-.4-1.4-.4-.6 0-.8.2-.8.4 0 .7 2.8.2 2.8 2 0 .8-.7 1.6-2.2 1.6-.8 0-1.7-.2-2.2-.5z"/></g><path d="M470.2 266.3c-.3 0-.7-.2-1-.4-.6-.6-.6-1.4 0-2l4.2-4.2-4.2-4.2c-.6-.6-.6-1.4 0-2s1.4-.6 2 0l5.2 5.2a1.53 1.53 0 0 1 .4 1c0 .4-.2.7-.4 1l-5.2 5.2c-.3.3-.7.4-1 .4z" class="H"/><path fill="#964dc1" d="M199.5 253c.3 0 .7.2 1 .4.6.6.6 1.4 0 2l-4.2 4.2 4.2 4.2c.6.6.6 1.4 0 2s-1.4.6-2 0l-5.2-5.2a1.53 1.53 0 0 1-.4-1c0-.4.2-.7.4-1l5.2-5.2c.3-.4.6-.4 1-.4z"/><g opacity=".9"><linearGradient id="AP" gradientUnits="userSpaceOnUse" x1="49.279" y1="349.872" x2="80.283" y2="335.536"><stop offset="0" stop-color="#634676"/><stop offset="1" stop-color="#a46497"/></linearGradient><path fill="url(#AP)" d="M79.6 337.6l-28.3-.3c-.1 0-.3 0-.5.1l-1.7-5.7c-.1-.1-.1-.2-.2-.3a1.44 1.44 0 0 0-1.1-.9l-5.5-1.2c-.8-.2-1.6.4-1.9 1.3-.1.9.4 1.8 1.3 1.9l4.6 1 7.8 27.2c.2.8.9 1.3 1.7 1.3l23.1-2c.9-.1 1.5-.9 1.4-1.8s-.8-1.6-1.7-1.5L57 358.6l-1.1-3.8 22.9-2c1.2-.1 2.2-1.1 2.3-2.2l1-10.1c.1-1.6-1-2.9-2.5-2.9zm-17.8 10.5c0 .3-.2.7-.6.7l-2.4.2c-.4 0-.7-.2-.8-.6l-.4-4.3c0-.3.2-.7.6-.7l2.4-.2c.4 0 .7.2.8.6l.4 4.3zm6.4-.5c0 .3-.2.7-.6.7l-2.4.2c-.4 0-.7-.2-.8-.6l-.4-4.3c0-.3.2-.7.6-.7l2.4-.2c.4 0 .7.2.8.6l.4 4.3zm6.4-.6c0 .3-.2.7-.6.7l-2.4.2c-.4 0-.7-.2-.8-.6l-.4-4.3c0-.3.2-.7.6-.7l2.4-.2c.4 0 .7.2.8.6l.4 4.3z"/><linearGradient id="AQ" gradientUnits="userSpaceOnUse" x1="34.021" y1="41.017" x2="40.272" y2="41.017" gradientTransform="matrix(0.9961 -8.888505e-02 -8.888505e-02 -0.9961 27.5664 410.5602)"><stop offset="0" stop-color="#634676"/><stop offset="1" stop-color="#a46497"/></linearGradient><path fill="url(#AQ)" d="M57.8 366.4c0-1.9 1.3-3.4 3.1-3.4 1.7 0 3.1 1.5 3.2 3.3 0 1.9-1.3 3.4-3.1 3.4-1.7.1-3.2-1.4-3.2-3.3z"/><linearGradient id="AR" gradientUnits="userSpaceOnUse" x1="48.951" y1="40.978" x2="55.202" y2="40.978" gradientTransform="matrix(0.9961 -8.888505e-02 -8.888505e-02 -0.9961 27.5664 410.5602)"><stop offset="0" stop-color="#634676"/><stop offset="1" stop-color="#a46497"/></linearGradient><path fill="url(#AR)" d="M75.5 361.8c1.7-.2 3.2 1.2 3.4 3.1.1 1.8-1.1 3.4-2.8 3.6s-3.2-1.2-3.4-3.1 1-3.5 2.8-3.6z"/><linearGradient id="AS" gradientUnits="userSpaceOnUse" x1="33.616" y1="77.578" x2="56.295" y2="77.578" gradientTransform="matrix(0.9961 -8.888505e-02 -8.888505e-02 -0.9961 27.5664 410.5602)"><stop offset="0" stop-color="#634676"/><stop offset="1" stop-color="#a46497"/></linearGradient><path fill="url(#AS)" d="M55.5 335.7h1.4l4.6.1v-1.9c0-2.5 1.9-4.6 4.3-4.6s4.3 2.1 4.3 4.7v1.9l4.6.1h1.5c.6 0 1-.5 1-1v-1.7c0-.6-.4-1.1-1-1h-1.5c-.2-1.3-.7-2.5-1.3-3.5l1-1.1c.4-.4.3-1.1 0-1.5l-1.2-1.1c-.4-.4-1-.4-1.4 0l-1 1.1c-.9-.7-2.1-1.2-3.3-1.5v-1.5c0-.6-.4-1.1-1-1h-1.6c-.6 0-1 .5-1 1v1.5c-1.2.2-2.3.7-3.3 1.4l-1-1.1c-.4-.4-1-.4-1.4 0l-1.1 1.1c-.4.4-.3 1.1 0 1.5l1 1.1c-.6 1.1-1.1 2.2-1.3 3.5h-1.5c-.6 0-1 .5-1 1v1.7c.2.3.6.7 1.2.8z"/></g><g fill="#bb4da8"><path d="M721.1 375.9l-15.6-.1-.9-3.1c0-.1-.1-.1-.1-.2-.1-.3-.3-.4-.6-.5l-3-.6c-.5-.1-.9.2-1 .7s.2 1 .7 1.1l2.5.5 4.2 14.8c.1.5.5.7.9.7l12.5-1.1c.5 0 .8-.5.8-1s-.4-.9-.9-.8l-11.8 1-.6-2 12.4-1.1c.7-.1 1.2-.6 1.2-1.2l.5-5.5c.3-.9-.3-1.6-1.2-1.6zm-9.6 5.7c0 .2-.1.4-.4.4l-1.3.1c-.2 0-.4-.1-.4-.3l-.2-2.3c0-.2.1-.4.4-.4l1.3-.1c.2 0 .4.1.4.3l.2 2.3zm3.4-.3c0 .2-.1.4-.4.4l-1.3.1c-.2 0-.4-.1-.4-.3l-.2-2.3c0-.2.1-.4.4-.4l1.3-.1c.2 0 .4.1.4.3l.2 2.3zm3.5-.3c0 .2-.1.4-.4.4l-1.3.1c-.2 0-.4-.1-.4-.3l-.2-2.3c0-.2.1-.4.4-.4l1.3-.1c.2 0 .4.1.4.3l.2 2.3zm-9.1 10.6c0-1 .7-1.8 1.7-1.8.9 0 1.7.8 1.7 1.8s-.7 1.8-1.7 1.8c-.9 0-1.7-.8-1.7-1.8z"/><path d="M718.9 389c.9-.1 1.8.7 1.8 1.7.1 1-.6 1.9-1.5 2s-1.8-.7-1.8-1.7c-.1-1 .5-1.9 1.5-2zM708 374.8h3.3v-1c0-1.4 1.1-2.5 2.3-2.5 1.3 0 2.3 1.1 2.4 2.5v1h3.3c.3 0 .5-.2.5-.6v-.9c0-.3-.2-.6-.5-.6h-.8c-.1-.7-.4-1.3-.7-1.9l.6-.6a.61.61 0 0 0 0-.8l-.6-.6a.61.61 0 0 0-.8 0l-.6.6c-.5-.4-1.1-.7-1.8-.8v-.8c0-.3-.2-.6-.5-.6h-.9c-.3 0-.5.2-.5.6v.8c-.6.1-1.2.4-1.8.8l-.6-.6a.61.61 0 0 0-.8 0l-.6.6a.61.61 0 0 0 0 .8l.6.6c-.3.6-.6 1.2-.7 1.9h-.8c-.3 0-.5.2-.5.6v.9c0 .4.2.6.5.6z"/></g><g fill="#060e64"><path d="M729.3 366.5c0 .3-.1.6-.3.8s-.5.4-.7.4H559a1.11 1.11 0 0 1-1.1-1.1c0-.3.1-.6.3-.8s.5-.4.7-.4h169.3a1.11 1.11 0 0 1 1.1 1.1z"/><path d="M718.8 365.4H708a1.69 1.69 0 0 1 .3-1c.3-.4.6-.5 1.1-.6.4-.1.9-.1 1.3-.1 1-.1 2.1-.4 2.9-.9.5-.3.9-.6 1.4-.8l2.9.1c.4.4.6 1 .8 1.6.1.6.1 1.2.1 1.7z"/></g><path fill="#f3bbc6" d="M718.8 359l-.8 3.2-3-.1.1-3.4z"/><path d="M709 225.5l-20.4 26.9h6.8v91.8h27.1v-91.8h6.8zM561.3 346.9h27.1v18.4h-27.1zm33.5 0v18.5h27.1v-36.8h-27.1zm33.6-18.3v36.8h27v-55.2h-27zm33.5-18.4v55.2h27v-73.5h-27z" fill="#ff654f"/><linearGradient id="AT" gradientUnits="userSpaceOnUse" x1="562.2" y1="282.3" x2="680.5" y2="282.3"><stop offset="0" stop-color="#634676"/><stop offset="1" stop-color="#a46497"/></linearGradient><path fill="url(#AT)" d="M563.6 332.8l-1.4-6.8c72.9-14.4 102.6-70.7 111.9-94.2l6.4 2.6c-5.6 13.9-16 34.4-34.3 53.7-10.2 10.6-21.6 19.6-34.2 26.8-14.6 8.5-30.9 14.5-48.4 17.9z"/><linearGradient id="AU" gradientUnits="userSpaceOnUse" x1="666.6" y1="229.35" x2="686.029" y2="229.35"><stop offset="0" stop-color="#634676"/><stop offset="1" stop-color="#a46497"/></linearGradient><path fill="url(#AU)" d="M666.6 232.7l15.5-13.4 3.9 20.1z"/><linearGradient id="AV" gradientUnits="userSpaceOnUse" x1="691.85" y1="332.906" x2="708.675" y2="313.378"><stop offset="0" stop-color="#fbf33f"/><stop offset="1" stop-color="#d73c65"/></linearGradient><circle fill="url(#AV)" cx="709" cy="313" r="12.5"/><linearGradient id="AW" gradientUnits="userSpaceOnUse" x1="718.177" y1="299.137" x2="668.426" y2="374.296"><stop offset="0" stop-color="#fbf33f"/><stop offset="1" stop-color="#d73c65"/></linearGradient><circle fill="url(#AW)" cx="709" cy="313" r="12.1"/><g class="D"><path d="M699 308.2c-.1 0-.1 0 0 0-.2-.1-.3-.2-.2-.4 2-3.9 5.9-6.3 10.2-6.3.7 0 1.4.1 2.1.2.1 0 .3.1.2.4 0 .1-.1.3-.4.2-.6-.1-1.3-.1-2-.1-4.1 0-7.9 2.3-9.8 6 .2 0 0 0-.1 0z"/><circle transform="matrix(.9697 -.2445 .2445 .9697 -55.072 182.9361)" opacity=".78" cx="709.4" cy="313.3" r="10.2"/></g><linearGradient id="AX" gradientUnits="userSpaceOnUse" x1="716.753" y1="301.328" x2="690.262" y2="345.802"><stop offset="0" stop-color="#fbf33f"/><stop offset="1" stop-color="#d73c65"/></linearGradient><path fill="url(#AX)" d="M708.3 320.9v-1.1c-1.1-.1-2.3-.4-3.1-.7-.3-.1-.4-.4-.4-.8l.3-1.1c.1-.4.5-.6.9-.4.8.4 1.8.6 2.9.6s2-.4 2-1.1-.6-1.1-2.2-1.6c-2.2-.6-3.8-1.6-3.8-3.6 0-1.8 1.3-3.1 3.6-3.5v-1c0-.4.3-.6.6-.6h.6c.4 0 .6.3.6.6v1c1.1.1 1.9.2 2.5.4.3.1.5.4.4.8l-.3 1c-.1.4-.5.6-.9.4a7.46 7.46 0 0 0-2.4-.4c-1.4 0-1.7.6-1.7 1.1 0 .6.8 1 2.6 1.6 2.5.7 3.5 1.8 3.5 3.6 0 1.7-1.3 3.2-3.7 3.6v1.3c0 .4-.3.6-.6.6h-.7c-.4-.1-.7-.4-.7-.7z"/><linearGradient id="AY" gradientUnits="userSpaceOnUse" x1="709.915" y1="337.527" x2="707.609" y2="348.517"><stop offset="0" stop-color="#fbf33f"/><stop offset="1" stop-color="#d73c65"/></linearGradient><path fill="url(#AY)" d="M719.6 344h-21.1c-.9 0-1.7-.8-1.7-1.7V341c0-.9.8-1.7 1.7-1.7h21.1c.9 0 1.7.8 1.7 1.7v1.3c0 .9-.8 1.7-1.7 1.7z"/><linearGradient id="AZ" gradientUnits="userSpaceOnUse" x1="709.922" y1="332.194" x2="707.616" y2="343.184"><stop offset="0" stop-color="#fbf33f"/><stop offset="1" stop-color="#d73c65"/></linearGradient><use xlink:href="#r" fill="url(#AZ)"/><linearGradient id="Aa" gradientUnits="userSpaceOnUse" x1="709.811" y1="326.86" x2="707.505" y2="337.85"><stop offset="0" stop-color="#fbf33f"/><stop offset="1" stop-color="#d73c65"/></linearGradient><path fill="url(#Aa)" d="M719.5 333.3h-21.1c-.9 0-1.7-.8-1.7-1.7v-1.3c0-.9.8-1.7 1.7-1.7h21.1c.9 0 1.7.8 1.7 1.7v1.3c0 1-.8 1.7-1.7 1.7z"/><linearGradient id="Ab" gradientUnits="userSpaceOnUse" x1="709.93" y1="342.865" x2="707.624" y2="353.855"><stop offset="0" stop-color="#fbf33f"/><stop offset="1" stop-color="#d73c65"/></linearGradient><use xlink:href="#s" fill="url(#Ab)"/><linearGradient id="Ac" gradientUnits="userSpaceOnUse" x1="709.917" y1="332.218" x2="707.611" y2="343.208"><stop offset="0" stop-color="#fbf33f"/><stop offset="1" stop-color="#d73c65"/></linearGradient><use xlink:href="#r" x="0.1" y="16" fill="url(#Ac)"/><linearGradient id="Ad" gradientUnits="userSpaceOnUse" x1="710.01" y1="353.551" x2="707.704" y2="364.541"><stop offset="0" stop-color="#fbf33f"/><stop offset="1" stop-color="#d73c65"/></linearGradient><path fill="url(#Ad)" d="M719.7 360h-21.1c-.9 0-1.7-.8-1.7-1.7V357c0-.9.8-1.7 1.7-1.7h21.1c.9 0 1.7.8 1.7 1.7v1.3c0 .9-.8 1.7-1.7 1.7z"/><linearGradient id="Ae" gradientUnits="userSpaceOnUse" x1="709.925" y1="342.889" x2="707.62" y2="353.879"><stop offset="0" stop-color="#fbf33f"/><stop offset="1" stop-color="#d73c65"/></linearGradient><use xlink:href="#s" x="0.1" y="16" fill="url(#Ae)"/><linearGradient id="Af" gradientUnits="userSpaceOnUse" x1="657.118" y1="348.12" x2="675.029" y2="327.331"><stop offset="0" stop-color="#fbf33f"/><stop offset="1" stop-color="#d73c65"/></linearGradient><circle fill="url(#Af)" cx="675.4" cy="326.9" r="13.4"/><linearGradient id="Ag" gradientUnits="userSpaceOnUse" x1="685.146" y1="312.176" x2="632.185" y2="392.186"><stop offset="0" stop-color="#fbf33f"/><stop offset="1" stop-color="#d73c65"/></linearGradient><circle fill="url(#Ag)" cx="675.4" cy="326.9" r="12.9"/><g class="D"><path d="M664.8 321.9c-.1 0-.1 0 0 0-.2-.1-.3-.3-.2-.4 2.1-4.1 6.3-6.7 10.9-6.7.7 0 1.5.1 2.2.2.1 0 .3.2.2.4 0 .1-.2.3-.4.2-.7-.1-1.4-.2-2.1-.2-4.4 0-8.4 2.4-10.4 6.4 0 0-.1.1-.2.1z"/><circle transform="matrix(.9951 -.098544 .098544 .9951 -28.9539 68.1758)" opacity=".78" cx="675.7" cy="327.2" r="11"/></g><linearGradient id="Ah" gradientUnits="userSpaceOnUse" x1="683.549" y1="314.462" x2="655.348" y2="361.806"><stop offset="0" stop-color="#fbf33f"/><stop offset="1" stop-color="#d73c65"/></linearGradient><path fill="url(#Ah)" d="M674.6 335.3v-1.2c-1.2-.1-2.5-.4-3.3-.7-.3-.1-.5-.5-.4-.8l.3-1.1c.1-.4.6-.6.9-.4.9.4 1.9.6 3.1.6s2.1-.4 2.1-1.2-.7-1.2-2.3-1.6c-2.3-.6-4.1-1.7-4.1-3.8 0-1.9 1.4-3.3 3.8-3.7v-1.2a.68.68 0 0 1 .7-.7h.7a.68.68 0 0 1 .7.7v1.1c1.1.1 2 .2 2.6.5.4.1.5.5.4.9l-.3 1c-.1.4-.5.6-.9.5-.6-.2-1.5-.5-2.6-.5-1.4 0-1.9.6-1.9 1.1 0 .6.9 1.1 2.7 1.6 2.6.8 3.7 1.9 3.7 3.8 0 1.8-1.4 3.4-3.9 3.8v1.4a.68.68 0 0 1-.7.7h-.7c-.2-.1-.6-.3-.6-.8z"/><linearGradient id="Ai" gradientUnits="userSpaceOnUse" x1="676.315" y1="341.538" x2="673.861" y2="353.237"><stop offset="0" stop-color="#fbf33f"/><stop offset="1" stop-color="#d73c65"/></linearGradient><path fill="url(#Ai)" d="M686.7 348.4h-22.6a1.79 1.79 0 0 1-1.8-1.8v-1.4a1.79 1.79 0 0 1 1.8-1.8h22.6a1.79 1.79 0 0 1 1.8 1.8v1.4a1.79 1.79 0 0 1-1.8 1.8z"/><linearGradient id="Aj" gradientUnits="userSpaceOnUse" x1="676.348" y1="347.168" x2="673.893" y2="358.867"><stop offset="0" stop-color="#fbf33f"/><stop offset="1" stop-color="#d73c65"/></linearGradient><path fill="url(#Aj)" d="M686.7 354.1h-22.6a1.79 1.79 0 0 1-1.8-1.8V351a1.79 1.79 0 0 1 1.8-1.8h22.6a1.79 1.79 0 0 1 1.8 1.8v1.4c0 .9-.8 1.7-1.8 1.7z"/><linearGradient id="Ak" gradientUnits="userSpaceOnUse" x1="676.341" y1="352.789" x2="673.887" y2="364.488"><stop offset="0" stop-color="#fbf33f"/><stop offset="1" stop-color="#d73c65"/></linearGradient><path fill="url(#Ak)" d="M686.7 359.7h-22.6a1.79 1.79 0 0 1-1.8-1.8v-1.4a1.79 1.79 0 0 1 1.8-1.8h22.6a1.79 1.79 0 0 1 1.8 1.8v1.4c.1 1-.8 1.8-1.8 1.8z"/><linearGradient id="Al" gradientUnits="userSpaceOnUse" x1="676.435" y1="358.431" x2="673.98" y2="370.13"><stop offset="0" stop-color="#fbf33f"/><stop offset="1" stop-color="#d73c65"/></linearGradient><path fill="url(#Al)" d="M686.8 365.4h-22.6a1.79 1.79 0 0 1-1.8-1.8v-1.4a1.79 1.79 0 0 1 1.8-1.8h22.6a1.79 1.79 0 0 1 1.8 1.8v1.4c0 .9-.8 1.8-1.8 1.8z"/><circle fill="#ff4d95" cx="617" cy="165.5" r="19.4"/><path d="M611.6 170.5c0-.4.1-.9.6-1.3.3-.3.7-.6 1.3-.6.3 0 .7.1 1.1.4.7.4 1.4.7 2.3.7.6 0 1-.1 1.4-.4.3-.3.6-.6.6-1s-.1-.9-.4-1.3c-.3-.3-.9-.6-1.7-1-1.6-.6-2.6-1.3-3.3-2.1-.7-.9-1-1.9-1-3 0-1 .3-1.9.9-2.6s1.3-1.3 2.3-1.6v-.9c0-.4.1-.7.4-1s.6-.4 1-.4.7.1 1 .4.4.6.4 1v.7c.7.1 1.4.4 2.1.7.6.3.9.9.9 1.6 0 .4-.1.9-.4 1.1s-.7.4-1.1.4c-.3 0-.6-.1-1-.3-.4-.3-.9-.3-1.1-.3-.9 0-1.3.3-1.3 1 0 .3.1.7.4.9.3.3 1 .6 1.9 1 2.7 1.1 4 2.9 4 5.4 0 1.3-.3 2.3-1 3.1-.7.9-1.7 1.4-3 1.7v.9c0 .4-.1.7-.4 1s-.6.4-1 .4-.7-.1-1-.4-.4-.6-.4-1v-.7c-1.3-.1-2.4-.7-3.4-1.4-1-.1-1.1-.5-1.1-1.1z" class="D"/><circle fill="#ff448b" cx="272.2" cy="222.7" r="5.5"/><path d="M271.5 220.6a1.08 1.08 0 0 1 .3.7c0 .3-.1.6-.3.7-.2.2-.5.3-.8.3s-.6-.1-.8-.3a1.08 1.08 0 0 1-.3-.7c0-.3.1-.6.3-.7.2-.2.5-.3.8-.3.3-.1.5 0 .8.3zm-.6 1c.1-.1.1-.2.1-.2s0-.2-.1-.2c-.1-.1-.2-.1-.2-.1s-.2 0-.2.1c-.1.1-.1.2-.1.2s0 .2.1.2c.1.1.2.1.2.1 0-.1.2-.1.2-.1zm-.4 2.9l2.9-4.1c.1-.1.2-.1.2-.1s.2 0 .2.1c.1 0 .1.2.1.2v.2l-2.9 4.1c-.1.1-.2.1-.2.1-.1 0-.2 0-.2-.1-.1-.1-.1-.2-.1-.2v-.2zm2.5.1a1.08 1.08 0 0 1-.3-.7c0-.3.1-.6.3-.7.2-.2.5-.3.8-.3s.6.1.8.3a1.08 1.08 0 0 1 .3.7c0 .3-.1.6-.3.7-.2.2-.5.3-.8.3-.4.1-.5-.1-.8-.3zm.5-1c-.1.1-.1.2-.1.2 0 .1 0 .2.1.2.1.1.2.1.2.1.1 0 .2 0 .2-.1.1-.1.1-.2.1-.2 0-.1 0-.2-.1-.2-.1-.1-.2-.1-.2-.1s-.1 0-.2.1z" class="D"/><path fill="#ff735d" d="M138.3 417.9l-2.1 15.3-8.3-.9 2-15.4z"/><g class="H"><path d="M132.2 432.2c-.1 0 .4-3.4 1-7.5l1.2-7.5c.1 0-.4 3.4-1 7.5l-1.2 7.5z"/><path d="M136.4 432.2l-8.3-1-.2 1.1 8.3.9zm-7.8-4.8l.3-.3c.2-.2.5-.4.8-.7.4-.3.9-.5 1.5-.7s1.3-.3 2-.2c1.4.2 2.5 1.1 3 1.9.3.4.4.7.5 1 .1.2.1.4.1.4s-.2-.6-.7-1.3-1.6-1.5-2.9-1.7c-1.4-.2-2.6.3-3.3.8-.9.4-1.3.8-1.3.8z"/></g><path d="M137.5 424.1l-.2 1.3-8.4-.7.2-1.4z" class="C"/><path fill="#ff735d" d="M164.9 418.9l-1 15.5-8.3-.4.9-15.5z"/><g class="H"><path d="M159.8 433.6c-.1 0 .1-3.4.4-7.6l.7-7.5c.1 0-.1 3.4-.4 7.6l-.7 7.5z"/><path d="M164 433.3l-8.4-.4v1.1l8.3.4zm-8.1-4.2s.1-.1.2-.3c.2-.2.4-.5.8-.7.4-.3.8-.6 1.4-.8s1.3-.4 2-.3c1.4.1 2.6.9 3.2 1.6.3.4.5.7.6.9s.1.4.1.4-.2-.5-.8-1.2a4.55 4.55 0 0 0-3-1.5c-1.4-.1-2.5.5-3.3 1s-1.2.9-1.2.9z"/></g><path d="M164.6 425.1l-.2 1.4-8.4-.1.1-1.4z" class="C"/><path d="M133.6 346.7c-.2 0-1 10.2-.8 13.6s.4 29.5.4 29.5-1.8 1.2-1.8 2.8-3.2 30.5-3.2 30.5l9.5 1.6s8.7-31.5 8.9-35.8c.2-4.4 6.3-34.3 6.3-34.3l2 32.7-.1 37.9s7.1 1 10.5.2c0 0 2.9-25.2 2.9-33.5v-13.5l5-23.6c1.6-7.9 0-15.5 0-15.5l-28.5-3.7-11.1 11.1z" class="H"/><path d="M140.9 392c0 .1-1.6-.6-3.6-.4s-3.5 1.1-3.5 1c0 0 .3-.3.9-.6s1.5-.6 2.6-.7c1-.1 2 0 2.6.2.7.3 1.1.5 1 .5zm.6-2.4c0 .1-1.2.1-2.7 0l-2.7-.2c0-.1 1.2-.1 2.7 0 1.5 0 2.7.1 2.7.2zm19.5 5.9s-.1-.1-.3-.2l-.7-.7c-.5-.6-1.2-1.6-1.6-2.8-.5-1.2-.6-2.4-.7-3.2v-1c0-.2 0-.4.1-.4 0 0 0 .5.1 1.3a16.31 16.31 0 0 0 .7 3.1c.5 1.2 1 2.2 1.5 2.8.6.7 1 1.1.9 1.1zm-7.6-42.2s-.1.1-.2.4l-.4.4c-.2.1-.3.3-.6.4-.9.6-2.1 1.2-3.7 1.6-1.5.4-3 .5-4 .3-.1 0-.2 0-.4-.1-.1 0-.2-.1-.3-.1-.2-.1-.4-.1-.5-.2-.3-.1-.4-.2-.4-.2s.6.3 1.6.4 2.4 0 3.9-.4 2.8-1 3.6-1.5c.2-.1.4-.3.6-.4.1-.1.3-.2.4-.3.2-.1.3-.3.4-.3z" class="N"/><path fill="#ffbf9d" d="M187.9 274.1s-.1-2 .9-3.9 3.8-5.1 3.8-5.1 4-3.1 4.4-2.9.5.7 0 1.2l-2.7 2.9s.9.3.9 1c0 .6-.2.9-.2.9s.8.4 1 .9.2.9.2.9.5.1.5.7c.1.6-.1 1.2-.1 1.2s-1.5 1.7-2.1 1.9l-1.4.4-.5.7v2l-4.7-2.8z"/><g class="N"><path d="M127.1 289.3s-14.4 25.4-14.4 29.4c-.1 7.1 20 12.8 20 12.8l2.8-8.1-10.2-7.1 7.5-16.2-5.7-10.8z"/><path d="M127.1 289.3s2.5-2.2 6.5-2.7c3.9-.5 10.9-.6 10.9-.6s19-4.1 20.4-3.3 3.3 5.9 3.7 8.3-1.6 24.9-1.6 24.9 8.5 26.3 7.9 27.1c-.3.4-10.5 4-20.9 4.8l-.6-7.7-1.2 7.2c-9.6.7-20.5 1.1-20.5 1.1l7.3-26.7c-.4-.7-12.9-29.8-11.9-32.4z"/><path d="M164.9 282.8s7 3.9 7.8 3.8 1.6-1.5 2.7-.4l6.1-1.1 6.1-11.2s3.6 1.3 6.1 3.7c0 0-3.4 11.6-5.5 13.3s-10.2 7.8-21.5 7.9l-1.4-9.3-.4-6.7z"/></g><path d="M172.1 296.4s.3-.5.7-1.4c.2-.4.4-1 .6-1.6s.3-1.3.3-2v-2l-.3-1.6-.5-1.5s.1.1.2.4a4.33 4.33 0 0 1 .4 1.1c.2.5.3 1 .4 1.6s.1 1.3.1 2.1c-.1.7-.2 1.4-.4 2l-.6 1.6c-.2.4-.4.8-.6 1s-.2.3-.3.3zm11.9-8.9c0 .1-.8-.3-1.5-1s-1.2-1.3-1.2-1.4c.1 0 .6.6 1.3 1.2l1.4 1.2z" class="H"/><path fill="#ffbf9d" d="M132.8 331s.3 1 1.9-.1c0 0 2.3-.5 3.5-1.6s1.4-1.8 2.2-1.9l3.3-.4s.7-1.4-.1-1.6c-.7-.2-4.1.1-4.1.1l-1 .1-.2-1.3.2-1.2s-2 .8-2 1.3c0 0-1.4-.4-1.6.5l-2.1 6.1z"/><path d="M134 309.5s-.1-.2-.3-.5-.4-.8-.6-1.4l-1.8-4.6a40.43 40.43 0 0 1-1.5-4.7c-.2-.6-.3-1.1-.4-1.5-.1-.3-.1-.5-.1-.5s.1.2.2.5c.1.4.3.9.5 1.4l1.6 4.7 1.8 4.6c.2.6.4 1 .6 1.4-.1.5 0 .6 0 .6zm23.4 13.2l-.3.6c-.2.4-.6.9-1 1.5-.9 1.2-2.4 2.8-4.2 4.3s-3.7 2.6-5.1 3.3l-1.7.7c-.4.2-.6.2-.6.2l2.2-1.1c1.4-.7 3.2-1.8 5-3.3s3.2-3.1 4.2-4.2l1.1-1.4c.2-.4.4-.6.4-.6zm-31.5-6.4c0 .1-1.1.3-2.4.8l-2.3 1s.9-.7 2.2-1.2c1.3-.6 2.5-.7 2.5-.6z" class="H"/><path d="M131.3 303.1c-1.6-.6-2.9-2.5-3.3-4.2-.3-1.7.3-3.4.6-5 .7 3 1.7 6.4 2.7 9.2m14.6 31.8c2.6.9 5.5.6 7.9-.8 2.3-1.4 4.1-3.8 4.5-6.5-3.8 2.6-8.2 5.4-12.4 7.3z" class="C"/><path d="M168.3 288s.1.2.1.5c.1.3.1.8.2 1.4.2 1.2.3 2.8.2 4.6 0 1.8-.2 3.4-.4 4.5l-.3 1.4c-.1.3-.1.5-.1.5l.3-1.9c.2-1.1.3-2.7.4-4.5l-.2-4.5c-.2-1.2-.3-2-.2-2z" class="H"/><path d="M160.3 280l-22.1 34.1c5.4 2.7 12.2 4.1 17.3.8 1.4 1.7 4.4 1.1 5.8-.7s1.5-4.2 1.6-6.4c0-9.3-1.3-18.6-2.6-27.8z" class="C"/><path d="M151.4 255.8c-2.4-.4-4.8.6-6.6 2.3-1.8 1.6-3 3.8-3.9 6-1.8 4.3-2.9 8.9-4 13.5-1.6 6.7-3.1 13.5-3.6 20.4-.4 6.9 1.6 11 4.6 17.2l10.5-1.5v-2l1.4 2 4.1-.6 1.2-10.7 1.9 10.2 3.4-.3c3.4-13.4-.4-22.3 1.5-36 .5-3.3 1.2-6.5 1.2-9.8s-.9-6.7-3.1-9.1c-2.3-2.4-6.2-3.4-9-1.6" class="H"/><path d="M154 313.1v-.2c0-.1-.1-.3-.1-.5-.1-.4-.2-1-.3-1.8-.3-1.5-.6-3.7-.9-6.5-.3-2.7-.6-6-.5-9.7 0-1.8.2-3.8.4-5.7l1.2-6c1.2-4.1 2.8-7.8 3.6-11.3.4-1.8.6-3.5.6-5.1s-.2-3.1-.7-4.4c-.4-1.3-1-2.4-1.7-3.3-.6-.9-1.3-1.5-1.9-2s-1.1-.7-1.5-.9c-.2-.1-.3-.1-.4-.2-.1 0-.1-.1-.1-.1s.1 0 .1.1a.76.76 0 0 1 .4.2c.4.2.9.4 1.5.9s1.3 1.1 2 2 1.3 2 1.7 3.3.7 2.8.7 4.5c0 1.6-.2 3.4-.6 5.2-.8 3.6-2.4 7.3-3.6 11.3-.5 2-1 4-1.2 6-.3 2-.4 3.9-.4 5.7-.1 3.6.2 6.9.5 9.7.3 2.7.6 5 .9 6.5.1.8.2 1.3.3 1.8a.9.9 0 0 0 .1.5h-.1zm-14.9-7v-.5c0-.3-.1-.8-.2-1.4 0-.3-.1-.7-.1-1 0-.4 0-.8-.1-1.3l-.1-3.1v-3.7l.2-4.2c.2-3 .6-6.3 1.3-9.7l2.4-9.4 1.4-4 .7-1.8c.2-.6.5-1.1.7-1.6.4-1.1.9-2 1.3-2.8l.5-1.1c.2-.3.3-.7.5-.9l.7-1.3c.1-.1.1-.2.2-.3 0-.1.1-.1.1-.1v.1c0 .1-.1.2-.2.3-.2.3-.4.8-.6 1.3-.1.3-.3.6-.5.9l-.5 1.1c-.4.8-.8 1.7-1.2 2.8-.2.5-.4 1.1-.7 1.6l-.7 1.8c-.5 1.2-.9 2.6-1.4 4-.9 2.9-1.7 6-2.4 9.4l-1.3 9.6-.2 4.2v3.7l.1 3c0 .4 0 .9.1 1.3 0 .4.1.7.1 1 0 .6.1 1.1.1 1.5v.4c-.1.2-.1.2-.2.2zm5.9 8.2v-.1c0-.1-.1-.2-.1-.4-.1-.4-.3-.8-.4-1.5-.1-.3-.2-.7-.3-1.1l-.3-1.3-.7-3.1-.3-1.8-.3-2-.3-2.1c-.1-.7-.1-1.5-.2-2.3-.2-3.1-.2-6.6.1-10.2s.9-7 1.5-10.1c.2-.8.4-1.5.5-2.2l.6-2.1 1.1-3.7c.3-1.1.7-2.1 1-3s.6-1.6.9-2.3c.2-.6.4-1.1.6-1.4.1-.2.1-.3.2-.4 0-.1.1-.1.1-.1v.1c0 .1-.1.2-.1.4-.1.3-.3.8-.5 1.4l-.8 2.3c-.3.9-.7 1.9-1 3s-.7 2.4-1.1 3.7c-.2.7-.4 1.4-.5 2.1-.2.7-.3 1.5-.5 2.2-.6 3.1-1.2 6.5-1.5 10.1a69.95 69.95 0 0 0-.1 10.2c.1.8.1 1.5.2 2.3 0 .7.2 1.5.3 2.1l.3 2 .3 1.8c.2 1.2.5 2.2.7 3.1.1.5.2.9.3 1.3s.2.7.3 1.1c.2.6.3 1.1.4 1.5 0 .2.1.3.1.4-.5 0-.5.1-.5.1zm14.8-6.5l-.1-.1c0-.1-.1-.2-.2-.4l-.3-.6c-.1-.3-.2-.6-.4-.9-.5-1.4-1.3-3.4-1.8-6a33.38 33.38 0 0 1-.5-9.2 26.48 26.48 0 0 1 .9-5.4c.4-1.8 1-3.7 1.6-5.6l1.6-5.6c.4-1.8.7-3.6.7-5.4a15.71 15.71 0 0 0-.5-4.9 13.93 13.93 0 0 0-1.7-3.9c-1.4-2.2-3.3-3.4-4.6-4-.7-.3-1.2-.4-1.6-.5-.2 0-.3-.1-.4-.1h-.1.1c.1 0 .3 0 .4.1.4.1.9.2 1.6.5 1.4.6 3.2 1.8 4.7 4 .7 1.1 1.4 2.4 1.8 3.9a15.71 15.71 0 0 1 .5 4.9c0 1.7-.3 3.6-.7 5.4-.4 1.9-1 3.7-1.6 5.7l-1.6 5.6c-.4 1.8-.7 3.6-.9 5.4a33.38 33.38 0 0 0 .5 9.2c.5 2.6 1.2 4.6 1.7 6 .1.3.3.6.4.9s.2.5.3.7.1.3.2.4v-.1z" class="N"/><g class="O"><path d="M826.6 406.3c-3.6 0-7.8-8-13.6-18.9v-.1c-5.7-10.9-7.7-17.4-6.4-20.6.4-1 1.1-1.6 2.1-2 2.5-.8 6.3.8 10.3 4.3 4.1 3.8 7.6 9 9.6 14.5 3.4 9.4 2.8 17.4.8 20.8-.6 1.1-1.4 1.7-2.3 1.9-.3.1-.4.1-.5.1zm-16.6-41c-.4 0-.8.1-1.2.2-.8.3-1.3.8-1.7 1.5-1.2 2.9.9 9.4 6.4 19.9v.1c5.3 9.9 9.8 18.5 12.9 18.5h.3c.6-.1 1.2-.6 1.7-1.5 2.6-4.5 1.5-13.5-.9-20.1h0c-1.9-5.4-5.3-10.5-9.4-14.2-2.8-2.8-5.9-4.4-8.1-4.4z"/><path d="M831.9 390.4h-.2c-.5-.1-1-.5-1.4-1.1-1.1-1.9-1.5-6.4.4-11.7 2.4-6.8 8.3-11.5 11.2-10.6.6.2 1 .6 1.3 1.2.8 1.8-.4 5.4-3.6 11.6v.1c-3.2 6-5.6 10.5-7.7 10.5zm9.2-22.8c-2.6 0-7.5 4.1-9.7 10.2h0c-1.3 3.6-1.9 8.6-.5 11 .3.4.5.7.8.8 1.6.3 4.3-4.8 7.2-10.2h0c1.1-2.1 4.5-8.6 3.5-10.9-.2-.4-.4-.6-.8-.7-.1-.1-.3-.2-.5-.2z"/><ellipse cx="826.1" cy="382.6" rx="6.9" ry="22.9"/></g><path d="M826.1 401.2c-.2 0-.4-.2-.4-.4v-36.4c0-.2.2-.4.4-.4s.4.2.4.4v36.4c0 .2-.2.4-.4.4z" class="P"/><path d="M844.3 391.9c-7.2 7.9-11.6 14.5-14.4 13.7-2.7-.7-4.2-9 1-18.5 5.2-9.6 16.8-14.8 21.3-12.3 4.6 2.5-.9 9.3-7.9 17.1z" class="O"/><path d="M831 402.5h-.1c-.2-.1-.3-.3-.2-.5 3.4-9.4 9.5-17.9 17.9-24.8.2-.1.4-.1.5.1s.1.4-.1.5c-8.2 6.8-14.3 15.2-17.6 24.5-.1.1-.2.2-.4.2z" class="P"/><path d="M820 390.9c4.7 7.8 4.6 15 2.3 15.9s-6.7-4.5-12.4-11.4c-5.6-6.9-9.5-13.2-6.3-15s11.8 2.7 16.4 10.5z" class="O"/><path d="M821.1 404.3a.76.76 0 0 1-.4-.2c-3.5-7.6-8.4-14.7-14.8-20.9-.2-.2-.2-.4 0-.5.2-.2.4-.2.5 0 6.4 6.3 11.4 13.4 14.9 21.1.1.2 0 .4-.2.5.1 0 .1 0 0 0z" class="P"/><path fill="#c3aeb4" d="M834 429.6h-16.1c-1.8 0-3.3-1.2-3.6-3l-4.5-22.5c-.2-1.1.6-2.2 1.8-2.2h28.7c1.2 0 2 1.1 1.8 2.2l-4.5 22.5c-.4 1.7-1.9 3-3.6 3z"/></svg>