<svg xmlns="http://www.w3.org/2000/svg" height="300" width="300" fill="#b33a9a" viewBox="0 0 32 32"  xmlns:v="https://vecta.io/nano"><path d="M31 0H1a1 1 0 0 0-1 1v30a1 1 0 0 0 1 1h30a1 1 0 0 0 1-1V1a1 1 0 0 0-1-1zm-1 30H2V2h28zM6 14h1v12h2V14h1a1 1 0 0 0 1-1V9a1 1 0 0 0-1-1H9V6H7v2H6a1 1 0 0 0-1 1v4a1 1 0 0 0 1 1zm1-4h2v2H7zm7 9h1v7h2v-7h1a1 1 0 0 0 1-1v-4a1 1 0 0 0-1-1h-1V6h-2v7h-1a1 1 0 0 0-1 1v4a1 1 0 0 0 1 1zm1-4h2v2h-2zm7-1h1v12h2V14h1a1 1 0 0 0 1-1V9a1 1 0 0 0-1-1h-1V6h-2v2h-1a1 1 0 0 0-1 1v4a1 1 0 0 0 1 1zm1-4h2v2h-2z"/></svg>