<svg xmlns="http://www.w3.org/2000/svg" height="300" width="300" fill="#b33a9a" viewBox="0 0 100 100"  xmlns:v="https://vecta.io/nano"><path d="M97.5 70.4c-1 1.1-2.3 1.9-3.7 2.5L34.5 97.5h56.7c3.5 0 6.3-2.9 6.3-6.3V70.4zM92 68.6c3.2-1.3 4.8-5 3.4-8.3l-7.7-18.7c-.1-.2-.1-.3-.2-.4-.5 1.4-1.4 2.6-2.5 3.7L39.7 90.2 92 68.6zm-10.4-27c2.5-2.5 2.5-6.5 0-9L67 18.1c0 1.5-.3 2.9-.9 4.4L41.6 81.7l40-40.1zM40.1 72.9l21.7-52.3c1.3-3.2-.2-6.9-3.4-8.3L39.7 4.6c-.2-.1-.3-.1-.5-.1.6 1.3.9 2.8.9 4.3v64.1zM35.4 8.8c0-3.5-2.8-6.3-6.3-6.3H8.8c-3.5 0-6.3 2.8-6.3 6.3v82.3c0 3.5 2.8 6.3 6.3 6.3H29c3.5 0 6.3-2.8 6.3-6.3V8.8zm-16.5 78c-3.2 0-5.8-2.6-5.8-5.8s2.6-5.8 5.8-5.8 5.8 2.6 5.8 5.8-2.6 5.8-5.8 5.8z"/></svg>