<svg xmlns="http://www.w3.org/2000/svg" height="300" width="300" fill="#b33a9a" viewBox="0 0 100 100"  xmlns:v="https://vecta.io/nano"><path d="M77.244 51.316c-.431-.602-1.126-.959-1.866-.959H30.581l-3.768-8.737c-.363-.841-1.19-1.386-2.106-1.386H14.8c-1.268 0-2.294 1.027-2.294 2.294s1.026 2.293 2.294 2.293h8.398L35.905 74.29c.363.841 1.191 1.386 2.106 1.386H68.3c.981 0 1.854-.624 2.171-1.553l7.078-20.731a2.29 2.29 0 0 0-.305-2.076zm-7.315 10.197h-4.517l1.567-6.569h5.192l-2.242 6.569zm-14.337 9.575v-4.987H59.6l-1.191 4.987h-2.817zm-8.489 0l-1.192-4.987h5.095v4.987h-3.903zm-2.288-9.575l-1.568-6.569h7.758v6.569h-6.19zm10.777 0v-6.569h6.671l-1.567 6.569h-5.104zM38.53 54.944l1.568 6.569h-4.707l-2.832-6.569h5.971zm-1.16 11.157h3.823l1.192 4.987H39.52l-2.15-4.987zm29.29 4.987h-3.535l1.191-4.987h4.046l-1.702 4.987zM42.601 77.72c-3.73 0-6.765 3.035-6.765 6.765s3.034 6.765 6.765 6.765 6.764-3.035 6.764-6.765-3.035-6.765-6.764-6.765zm0 8.942a2.18 2.18 0 0 1-2.178-2.177c0-1.2.978-2.178 2.178-2.178a2.18 2.18 0 0 1 2.176 2.178 2.18 2.18 0 0 1-2.176 2.177zm21.783-8.942c-3.729 0-6.765 3.035-6.765 6.765s3.035 6.765 6.765 6.765 6.766-3.035 6.766-6.765-3.036-6.765-6.766-6.765zm0 8.942a2.18 2.18 0 0 1-2.177-2.177 2.18 2.18 0 0 1 2.177-2.178 2.18 2.18 0 0 1 2.178 2.178 2.18 2.18 0 0 1-2.178 2.177zm4.715-50.376c-.68-.749-1.841-.806-2.592-.125l-2.877 2.613c-.563-7.272-3.138-11.459-6.308-14.126-.57.252-1.132.483-1.666.705l-2.258.965c3.293 2.076 5.926 5.409 6.539 12.284l-2.575-2.305c-.756-.677-1.917-.612-2.591.144s-.612 1.916.144 2.591l5.763 5.158c.028.025.06.042.088.065.044.034.087.068.135.099s.106.064.161.092c.047.024.093.048.142.069.062.025.125.044.189.063.046.014.092.029.141.039a1.87 1.87 0 0 0 .237.029c.031.002.061.01.092.011h.041c.121 0 .234-.012.345-.034.047-.009.091-.025.135-.037.066-.018.132-.035.196-.06.049-.02.094-.045.14-.069.057-.028.113-.055.167-.088.048-.031.09-.067.135-.102.038-.029.079-.053.115-.086l5.839-5.303c.749-.681.804-1.842.123-2.592zM48.945 20.245c-4.773-1.808-7.263-2.947-7.263-7.16 0-1.014-.822-1.835-1.836-1.835s-1.835.821-1.835 1.835c0 5.747 3.508 8.062 7.275 9.661 1.225-1.012 2.503-1.809 3.762-2.462l-.103-.039zm13.068-8.995c-1.013 0-1.835.821-1.835 1.835 0 4.258-2.149 5.333-6.621 7.178l-2.187.932c-1.368.618-2.779 1.351-4.123 2.33-3.535 2.576-6.604 6.856-7.194 15.237l-2.864-2.601a1.79 1.79 0 0 0-.29-.214c-.034-.021-.071-.034-.106-.053-.069-.035-.138-.071-.209-.097-.045-.017-.092-.025-.137-.038-.065-.018-.13-.037-.196-.048-.049-.008-.099-.009-.149-.013-.062-.005-.124-.011-.188-.009-.07.002-.141.012-.21.021-.051.007-.101.011-.15.022-.071.016-.14.042-.208.066-.047.016-.095.028-.14.048a1.74 1.74 0 0 0-.21.119c-.038.023-.077.041-.113.066a1.94 1.94 0 0 0-.285.254c-.682.75-.626 1.911.124 2.592l5.839 5.303c.036.033.077.057.115.086.045.035.087.071.135.102.054.034.11.06.167.088.046.023.091.049.14.069.064.025.13.042.196.06.044.012.088.028.135.037.111.021.224.033.336.034h.05c.031 0 .061-.009.092-.011a1.87 1.87 0 0 0 .237-.029c.049-.01.095-.025.141-.039.064-.019.127-.038.189-.063a1.86 1.86 0 0 0 .142-.069c.055-.028.109-.058.161-.092a1.46 1.46 0 0 0 .135-.099c.028-.023.06-.041.088-.065l5.763-5.158c.756-.676.819-1.836.144-2.591a1.83 1.83 0 0 0-.286-.258c-.033-.025-.072-.042-.108-.065-.069-.044-.14-.088-.214-.122-.045-.02-.092-.033-.136-.049-.07-.025-.141-.052-.213-.068-.05-.012-.101-.016-.15-.023-.07-.01-.141-.02-.212-.021-.062-.002-.125.002-.188.007-.05.003-.098.005-.146.013a1.98 1.98 0 0 0-.199.047c-.044.012-.089.021-.132.036-.074.027-.144.062-.215.098-.033.017-.068.03-.101.049-.103.06-.2.13-.291.212l-2.597 2.324c.644-8.203 3.905-11.385 7.701-13.379 1.144-.601 2.334-1.098 3.519-1.586l.659-.273c3.991-1.664 8.233-3.756 8.233-10.297a1.84 1.84 0 0 0-1.838-1.835z"/><path d="M46.939 35.938c.043-.015.088-.023.132-.036l-.132.036zm-11.594-.14l.208-.066c-.072.016-.14.041-.208.066zm1.447.096l.106.053c-.034-.021-.071-.034-.106-.053zm9.832.191c.032-.02.067-.032.101-.049-.034.017-.069.029-.101.049zm.647-.231c.049-.008.097-.01.146-.013l-.146.013zm-10.825-.095l.137.038c-.045-.017-.092-.025-.137-.038zm-.345-.061l.149.013c-.049-.008-.099-.009-.149-.013zm12.537.485c.103.075.199.16.286.258-.088-.099-.184-.184-.286-.258zm-13.643-.218l.21-.119c-.073.033-.141.076-.21.119zm12.972-.087c.072.016.143.042.213.068l-.213-.068zm.348.117c.074.034.145.078.214.122l-.214-.122zm-13.718.291a1.88 1.88 0 0 1 .285-.254c-.101.073-.197.157-.285.254zm1.106-.576l.21-.021c-.07.001-.141.012-.21.021zm11.901.124c.071.001.142.011.212.021l-.212-.021z"/></svg>