<?xml version="1.0" encoding="utf-8"?>
<!-- Generator: Adobe Illustrator 24.3.0, SVG Export Plug-In . SVG Version: 6.00 Build 0)  -->
<svg version="1.1" xmlns="http://www.w3.org/2000/svg" xmlns:xlink="http://www.w3.org/1999/xlink" x="0px" y="0px"
	 viewBox="0 0 300 300" style="enable-background:new 0 0 300 300;" xml:space="preserve">
<style type="text/css">
	.st0{fill:#b33a9a;}
</style>
<g id="Layer_2">
</g>
<g id="Layer_1">
	<g>
		<path d="M15819.3,7200.3v-6c0-8.4-15-12-29.1-12c-14.1,0-29.1,3.9-29.1,12v6c0,5.4,2.1,10.8,6,14.7l15,14.7c0.9,0.9,1.2,1.8,1.2,3
			v19.2c0,1.2,0.6,2.1,1.8,2.4l8.7,2.7c1.5,0.3,3-0.6,3-2.4V7233c0-1.2,0.6-2.1,1.2-3l15.3-15
			C15817.2,7211.1,15819.3,7205.7,15819.3,7200.3z M15790.2,7200c-14.4,0-22.2-3.9-22.5-5.4l0,0c0.3-1.5,8.1-5.4,22.5-5.4
			c14.4,0,21.9,3.9,22.5,5.4C15812.1,7196.1,15804.6,7200,15790.2,7200z"/>
		<path d="M15805.2,7230.9c-1.8,0-3,1.2-3,3c0,1.8,1.2,3,3,3h12.9c1.8,0,3-1.2,3-3c0-1.8-1.2-3-3-3H15805.2z"/>
		<path d="M15818.1,7241.1h-12.9c-1.8,0-3,1.2-3,3c0,1.8,1.2,3,3,3h12.9c1.8,0,3-1.2,3-3
			C15821.1,7242.3,15819.9,7241.1,15818.1,7241.1z"/>
		<path d="M15818.1,7251h-12.9c-1.8,0-3,1.2-3,3s1.2,3,3,3h12.9c1.8,0,3-1.2,3-3C15821.1,7252.5,15819.9,7251,15818.1,7251z"/>
	</g>
	<g>
		<path class="st0" d="M227.4,227.7c0,0.6-0.6,1.2-1.2,1.2H32.1c-0.6,0-1.5-0.6-1.5-1.2V100.5h172.2l44.7-44.7
			c-3.3-4.8-8.7-8.1-15-8.1h-207c-9.9,0-18,8.1-18,18v168.6c0,9.9,8.1,18,18,18h207.3c9.9,0,18-8.1,18-18v-75.6l-23.4,23.4
			L227.4,227.7L227.4,227.7z M84.3,66.3c4.2,0,7.8,3.3,7.8,7.8c0,4.2-3.6,7.8-7.8,7.8s-7.8-3.3-7.8-7.8S80.1,66.3,84.3,66.3z
			 M60.9,66.3c4.2,0,7.8,3.3,7.8,7.8c0,4.2-3.6,7.8-7.8,7.8s-7.8-3.3-7.8-7.8C53.1,69.6,56.4,66.3,60.9,66.3z M37.2,66.3
			c4.2,0,7.8,3.3,7.8,7.8c0,4.2-3.6,7.8-7.8,7.8s-7.8-3.3-7.8-7.8C29.4,69.6,33,66.3,37.2,66.3z"/>
		<path class="st0" d="M133.2,173.4c1.5,0,2.7-1.2,2.7-2.7V159c0-1.5-1.2-2.7-2.7-2.7h-6c-0.6-2.7-1.8-5.1-3-7.2l4.2-4.2
			c1.2-0.9,1.2-2.7,0-3.9l-8.4-8.1c-0.9-1.2-2.7-1.2-3.9,0l-4.2,4.2c-2.4-1.2-4.8-2.4-7.2-3v-6c0-1.5-1.2-2.7-2.7-2.7H90.3
			c-1.5,0-2.7,1.2-2.7,2.7v6c-2.7,0.6-5.1,1.8-7.2,3l-4.2-4.2c-0.9-1.2-2.7-1.2-3.9,0l-8.1,8.1c-1.2,0.9-1.2,2.7,0,3.9l4.2,4.2
			c-1.2,2.4-2.4,4.8-3,7.2h-6c-1.5,0-2.7,1.2-2.7,2.7v11.7c0,1.5,1.2,2.7,2.7,2.7h6c0.6,2.7,1.8,5.1,3,7.2l-4.2,4.2
			c-1.2,0.9-1.2,2.7,0,3.9l8.1,8.1c0.9,1.2,2.7,1.2,3.9,0l4.2-4.2c2.4,1.2,4.8,2.4,7.2,3v6c0,1.5,1.2,2.7,2.7,2.7H102
			c1.5,0,2.7-1.2,2.7-2.7v-6c2.7-0.6,5.1-1.8,7.2-3l4.2,4.2c0.9,1.2,2.7,1.2,3.9,0l8.1-8.1c1.2-0.9,1.2-2.7,0-3.9l-4.2-4.2
			c1.2-2.4,2.4-4.8,3-7.2L133.2,173.4L133.2,173.4z M96.3,180c-8.4,0-15-6.6-15-15s6.6-15,15-15s15,6.6,15,15
			C111.3,173.1,104.7,180,96.3,180z"/>
		
			<rect x="182.12" y="112.91" transform="matrix(0.7071 -0.7071 0.7071 0.7071 -27.2764 197.4653)" class="st0" width="85.2" height="37.5"/>
		<path class="st0" d="M156.9,192.6c-0.9,3.9,2.7,7.8,6.6,6.6l24-5.4c0.9-0.3,2.1-0.9,2.7-1.5l6.3-6.3l-26.4-26.4l-6.3,6.3
			c-0.6,0.9-1.2,1.8-1.5,2.7L156.9,192.6z"/>
		<path class="st0" d="M291,84.3l-18.6-18.6c-2.1-2.1-5.7-2.1-8.1,0l-11.4,11.4l26.4,26.4l11.4-11.4C293.1,90,293.1,86.4,291,84.3z"
			/>
	</g>
</g>
</svg>
