<svg xmlns="http://www.w3.org/2000/svg" height="300" width="300" fill="#b33a9a" viewBox="0 0 512 512"  xmlns:v="https://vecta.io/nano"><path d="M88.3 194H427v-25.3c0-16.5-13.1-29.7-29.7-29.7H272.2c-16.1 0-31.2-8.8-39.4-22.6l-10.4-17.7c-5.4-9-15.2-14.7-25.7-14.7h-81.9c-8.3 0-16 3.5-21.7 9.5a30.17 30.17 0 0 0-8.3 22.3l3.5 78.2zM247 395.8l18-14.5V341h-18zm-2.5-70.8h23l34.6-68h-92.2zm200.6-115H66.9c-3.5 0-6.7 1.4-9.1 4.1s-3.3 6-2.8 9.5L79.9 402c2.1 14.7 14.8 26 29.7 26h293.3c14.9 0 27.7-11.3 29.7-26.1L457 223.5c.5-3.5-.5-6.8-2.8-9.5-2.4-2.6-5.6-4-9.1-4zm-122.6 42.6L281 334.9V385c0 2.4-1.3 4.6-3.1 6.1l-33.4 28c-1.5 1.2-3.4 1.9-5.2 1.9-1.1 0-2.4-.2-3.5-.7-2.8-1.3-4.9-4.1-4.9-7.3v-78.1l-41.5-82.3c-1.3-2.5-.9-5.4.5-7.8 1.5-2.4 4-3.8 6.8-3.8h118.2c2.8 0 5.5 1.4 6.9 3.8 1.7 2.4 1.9 5.3.7 7.8z"/></svg>