<svg xmlns="http://www.w3.org/2000/svg" height="300" width="300" fill="#b33a9a" viewBox="0 0 100 100"  xmlns:v="https://vecta.io/nano"><path d="M89.8 49c0 .1 1.5-1.3 1.5-1.2h8.7L84.9 65.3 69.6 47.8h8.7c0-.1 1.9 1.3 1.9 1.2 0-16.7-12.9-30.2-28.8-30.2-7.2 0-13.8 2.8-18.8 7.4l-6.4-7.6c6.8-6.2 15.6-9.9 25.2-9.9 21.2 0 38.4 18.1 38.4 40.3zm-79.6 2c0-.1-1.5 1.3-1.5 1.2H0l15.1-17.5 15.3 17.5h-8.7c0 .1-1.9-1.3-1.9-1.2 0 16.7 12.9 30.2 28.8 30.2 7.2 0 13.8-2.8 18.8-7.4l6.4 7.6c-6.8 6.2-15.6 9.9-25.2 9.9-21.2 0-38.4-18.1-38.4-40.3z"/></svg>