<svg xmlns="http://www.w3.org/2000/svg" height="300" width="300" fill="#b33a9a" viewBox="0 0 68 64"  xmlns:v="https://vecta.io/nano"><path fill-rule="evenodd" d="M2 16a2 2 0 0 0-2 2v44a2 2 0 0 0 2 2h64a2 2 0 0 0 2-2V18a2 2 0 0 0-2-2H2zm30.195 44H6.828l12.683-12.683L32.195 60zm30.976 0H37.852l-8.102-8.102 12.66-12.66L63.172 60zM64 55.172V20H4v37.172l14.098-14.098a2 2 0 0 1 2.828 0l5.996 5.996 14.074-14.074a2 2 0 0 1 2.828 0L64 55.172zM63 7.828l-1.586 1.586a2 2 0 1 1-2.828-2.828L60.172 5l-1.586-1.586A2 2 0 1 1 61.414.586L63 2.172 64.586.586a2 2 0 1 1 2.828 2.828L65.828 5l1.586 1.586a2 2 0 1 1-2.828 2.828L63 7.828zM19.5 39a7.5 7.5 0 1 0 0-15 7.5 7.5 0 1 0 0 15zm0-4a3.5 3.5 0 1 1 0-7 3.5 3.5 0 1 1 0 7z"/></svg>