<svg xmlns="http://www.w3.org/2000/svg" height="300" width="300" fill="#b33a9a" viewBox="0 0 100 100"  xmlns:v="https://vecta.io/nano"><path d="M38.1 45.6c-5 0-9 4.1-9 9 0 1.2 1 2.1 2.1 2.1 1.2 0 2.1-1 2.1-2.1 0-2.6 2.1-4.7 4.7-4.7h9.8v8.8c0 1.2 1 2.1 2.1 2.1s2.1-1 2.1-2.1v-8.8h9.8c2.6 0 4.7 2.1 4.7 4.7 0 1.2 1 2.1 2.1 2.1 1.2 0 2.1-1 2.1-2.1 0-5-4.1-9-9-9h-9.8v-4.9c9.5-1.1 17-9.2 17-19 0-10.6-8.6-19.1-19.1-19.1s-19.1 8.6-19.1 19.1c0 9.8 7.4 17.9 17 19v4.9h-9.6zm-2.9-24c0-8.2 6.7-14.8 14.8-14.8s14.8 6.7 14.8 14.8c0 8.2-6.7 14.8-14.8 14.8s-14.8-6.6-14.8-14.8z"/><circle cx="31.2" cy="68.1" r="7.4"/><path d="M40.1 80.5c-1.5-1.8-3.7-3-6.2-3h-5.5c-4 0-7.3 3-7.8 7l-.8 6.4c-.1.8.4 1.6 1.2 1.8 3.2.7 6.6 1 10.1 1 1.4 0 2.9-.1 4.2-.2l.7-5.7c.5-2.9 2-5.5 4.1-7.3z"/><circle cx="68.8" cy="68.1" r="7.4"/><path d="M79.4 84.5c-.5-4-3.8-7-7.8-7H66c-2.5 0-4.7 1.1-6.1 3 2.2 1.8 3.7 4.3 4 7.3l.7 5.7c1.4.1 2.8.2 4.2.2 3.5 0 6.9-.3 10.1-1 .8-.2 1.4-1 1.2-1.8l-.7-6.4zm-26.6-3.2h-5.5c-4 0-7.4 3-7.8 7l-.8 6.4a1.63 1.63 0 0 0 1.3 1.8c3.2.7 6.6 1 10.1 1s6.9-.4 10.1-1c.8-.2 1.4-1 1.3-1.8l-.8-6.4c-.6-4-3.9-7-7.9-7z"/><circle cx="50" cy="71.8" r="7.4"/><path d="M57.8 15.7c-.9-.8-2.2-.8-3 .1L48 23.1l-3.1-3.4a2.09 2.09 0 0 0-3-.1 2.09 2.09 0 0 0-.1 3l4.7 5.1c.4.4 1 .7 1.6.7s1.2-.2 1.6-.7l8.4-9c.6-.8.5-2.2-.3-3z"/></svg>