<svg xmlns="http://www.w3.org/2000/svg" width="300" height="300"  xmlns:v="https://vecta.io/nano"><path fill="#b33a9a" d="M273.9 101.4c-.03-.051-.08-.101-.15-.15-13.032-13.089-29.332-19.639-48.9-19.65-20.702-.119-40.052 9.481-58.05 28.8-.105.172-.205.322-.3.45l-16.35 22.35C125.765 98.502 100.715 81.302 75 81.6c-19.558.036-35.858 6.586-48.9 19.65-6.645 6.617-11.295 13.867-13.95 21.75-2.5 7.755-3.75 16.805-3.75 27.15-.007 20.745 5.793 37.595 17.4 50.55.126.073.226.123.3.15 6.621 6.553 13.871 11.153 21.75 13.8 7.861 2.598 16.911 3.898 27.15 3.9 7.626.003 14.626-.647 21-1.95.255-.004.505-.054.75-.15 6.325-2.5 12.625-5.7 18.9-9.6.198-.043.348-.143.45-.3 10.325-7.828 21.625-20.878 33.9-39.15 12.369 18.3 23.669 30.85 33.9 37.65l-.3-.3c6.497 5.259 12.997 9.159 19.5 11.7.245.096.495.146.75.15 6.374 1.303 13.374 1.953 21 1.95 19.509.006 35.759-5.844 48.75-17.55a.77.77 0 0 0 .3-.3c11.811-12.99 17.711-29.24 17.7-48.75.011-20.746-5.889-37.596-17.7-50.55m-5.85 30l.15.3c2.3 5.625 3.45 11.775 3.45 18.45.011 14.488-4.439 26.238-13.35 35.25a1.67 1.67 0 0 1-.45.3c-7.505 9.666-17.755 13.966-30.75 12.9a2.97 2.97 0 0 0-.3 0c-12.494.003-23.894-3.397-34.2-10.2-8.933-7.996-18.933-20.746-30-38.25l13.05-19.65c15.95-19.108 32.35-28.758 49.2-28.95 13.4-.005 24.5 4.445 33.3 13.35h.15c4.395 4.447 7.645 9.947 9.75 16.5m-213-26.55l-.3.15c5.625-2.3 11.775-3.45 18.45-3.45 12.382.006 23.632 3.956 33.75 11.85l.15.15c8.956 6.792 19.556 18.942 31.8 36.45l-14.55 19.35C109.582 188.697 93.132 198.447 75 198.6c-13.309.016-24.459-4.384-33.45-13.2v-.15c-8.791-8.952-13.191-20.652-13.2-35.1.002-6.828 1.102-13.728 3.3-20.7l-.15.3c2.352-5.426 5.702-10.376 10.05-14.85h0c4.506-4.491 9.006-7.841 13.5-10.05z"/></svg>