<?xml version="1.0" encoding="utf-8"?>
<!-- Generator: Adobe Illustrator 24.3.0, SVG Export Plug-In . SVG Version: 6.00 Build 0)  -->
<svg version="1.1"
	 id="Layer_1" xmlns:cc="http://creativecommons.org/ns#" xmlns:dc="http://purl.org/dc/elements/1.1/" xmlns:inkscape="http://www.inkscape.org/namespaces/inkscape" xmlns:rdf="http://www.w3.org/1999/02/22-rdf-syntax-ns#" xmlns:sodipodi="http://sodipodi.sourceforge.net/DTD/sodipodi-0.dtd" xmlns:svg="http://www.w3.org/2000/svg"
	 xmlns="http://www.w3.org/2000/svg" xmlns:xlink="http://www.w3.org/1999/xlink" x="0px" y="0px" viewBox="0 0 300 300"
	 style="enable-background:new 0 0 300 300;" xml:space="preserve">
<style type="text/css">
	.st0{fill:#b33a9a;}
</style>
<g transform="translate(0,-288.53333)">
	<path class="st0" d="M18.75,307.28v9.38v140.62h150v-150H18.75z M84.38,335.41h18.75l37.5,93.75h-18.75l-7.51-18.75H73.13
		l-7.51,18.75H46.88L84.38,335.41z M93.75,358.85l-13.13,32.81h26.26L93.75,358.85z M187.5,419.78v18.75h75v112.5H150v-75h-18.75
		v93.75h150v-150H187.5z M196.87,447.91v18.75h-37.5v18.75h19.26c1.48,12.99,6.1,23.54,12.52,31.77
		c-9.65,4.13-21.27,5.73-31.79,5.73v18.75c14.61,0,31.95-2.23,46.88-11.15c14.92,8.93,32.26,11.15,46.88,11.15v-18.75
		c-10.52,0-22.14-1.6-31.79-5.73c6.43-8.23,11.04-18.78,12.52-31.77h19.26v-18.75h-37.5v-18.75H196.87z M197.52,485.41h17.47
		c-1.23,9.37-4.34,16.07-8.73,21.11C201.86,501.48,198.75,494.78,197.52,485.41z"/>
</g>
</svg>
