<svg xmlns="http://www.w3.org/2000/svg" height="300" width="300" fill="#b33a9a" baseProfile="basic" viewBox="0 0 128 128"  xmlns:v="https://vecta.io/nano"><path d="M125.3 18.9a2.22 2.22 0 0 0 2.2-2.2v-14a2.22 2.22 0 0 0-2.2-2.2h-14a2.22 2.22 0 0 0-2.2 2.2v3.2H18.9V2.7A2.22 2.22 0 0 0 16.7.5h-14A2.22 2.22 0 0 0 .5 2.7v14a2.22 2.22 0 0 0 2.2 2.2h3.2v90.2H2.7a2.22 2.22 0 0 0-2.2 2.2v14a2.22 2.22 0 0 0 2.2 2.2h14a2.22 2.22 0 0 0 2.2-2.2v-3.2h90.2v3.2a2.22 2.22 0 0 0 2.2 2.2h14a2.22 2.22 0 0 0 2.2-2.2v-14a2.22 2.22 0 0 0-2.2-2.2h-3.2V18.9h3.2zm-10.8 90.2h-3.2a2.22 2.22 0 0 0-2.2 2.2v3.2H18.9v-3.2a2.22 2.22 0 0 0-2.2-2.2h-3.2V18.9h3.2a2.22 2.22 0 0 0 2.2-2.2v-3.2h90.2v3.2a2.22 2.22 0 0 0 2.2 2.2h3.2v90.2zM98.2 23.7H29.8c-1.2 0-2.3 1-2.3 2.3v18.3c0 1.2 1 2.3 2.3 2.3h10.7c1.2 0 2.3-1 2.3-2.3V39h13.6v50H51c-1.2 0-2.3 1-2.3 2.3V102c0 1.2 1 2.3 2.3 2.3h26c1.2 0 2.3-1 2.3-2.3V91.3c0-1.2-1-2.3-2.3-2.3h-5.4V39h13.6v5.4c0 1.2 1 2.3 2.3 2.3h10.7c1.2 0 2.3-1 2.3-2.3V26a2.26 2.26 0 0 0-2.3-2.3z"/></svg>