<?xml version="1.0" encoding="UTF-8" standalone="no"?>
<!-- Generator: Adobe Illustrator 17.0.0, SVG Export Plug-In . SVG Version: 6.00 Build 0)  -->
<!DOCTYPE svg  PUBLIC '-//W3C//DTD SVG 1.1//EN'  'http://www.w3.org/Graphics/SVG/1.1/DTD/svg11.dtd'>
<svg id="Layer_1" xmlns="http://www.w3.org/2000/svg" xml:space="preserve" height="300px" viewBox="0 0 300 300" width="300px" version="1.1" y="0px" x="0px" xmlns:xlink="http://www.w3.org/1999/xlink" enable-background="new 0 0 300 300">
	<g fill="#A46497">
		<path d="m263.66 112.01l-177.77-16.573c-0.975-0.115-1.893-0.115-2.811-0.057l-7.113-34.417c-0.172-0.688-0.344-1.377-0.631-1.95-1.09-2.754-3.384-4.99-6.425-5.908l-33.901-9.981c-5.22-1.549-10.727 1.434-12.276 6.711-1.549 5.22 1.434 10.727 6.711 12.276l28.28 8.318 34.016 163.94c0.631 4.818 4.761 8.547 9.809 8.547l146.28-0.057c5.45 0 9.866-4.417 9.866-9.866s-4.417-9.866-9.866-9.866l-138.19 0.057-4.704-22.658h145.47c7.629 0 14.226-5.048 15.603-11.989l11.759-59.256c1.55-8.48-4.88-16.39-14.11-17.26z"/>
		<circle cy="271.6" cx="129.66" r="19.733"/>
		<circle cy="271.6" cx="223.96" r="19.733"/>
		<path d="m112.74 87.807l2.237 0.229 6.998 0.631 28.796 2.696 1.032-11.071c1.434-14.972 14.685-25.928 29.656-24.551 14.972 1.434 25.928 14.685 24.551 29.656l-1.032 11.071 28.796 2.696 9.178 0.861c3.384 0.344 6.425-2.18 6.711-5.564l0.918-9.866c0.344-3.384-2.18-6.425-5.564-6.711l-9.178-0.861c-0.746-7.629-3.04-14.857-6.597-21.339l7.113-5.908c2.639-2.18 2.983-6.08 0.803-8.719l-6.31-7.629c-2.18-2.639-6.08-2.983-8.719-0.803l-7.17 5.851c-5.736-4.647-12.39-8.26-19.733-10.44l0.861-9.178c0.344-3.384-2.18-6.425-5.564-6.711l-9.866-0.918c-3.384-0.344-6.425 2.18-6.711 5.564l-0.861 9.178c-7.629 0.746-14.857 3.04-21.339 6.597l-5.908-7.113c-2.18-2.639-6.08-2.983-8.719-0.803l-7.629 6.31c-2.639 2.18-2.983 6.08-0.803 8.719l5.908 7.113c-4.647 5.736-8.26 12.39-10.44 19.733l-9.178-0.861c-3.384-0.344-6.425 2.18-6.711 5.564l-0.918 9.866c-0.53 3.389 1.99 6.372 5.38 6.716z"/>
	</g>
</svg>
